G75*
G70*
%OFA0B0*%
%FSLAX24Y24*%
%IPPOS*%
%LPD*%
%AMOC8*
5,1,8,0,0,1.08239X$1,22.5*
%
%ADD10C,0.0050*%
%ADD11C,0.0480*%
%ADD12R,0.0660X0.0660*%
%ADD13C,0.0700*%
%ADD14C,0.0760*%
%ADD15R,0.0700X0.0700*%
%ADD16C,0.0010*%
%ADD17C,0.0080*%
%ADD18C,0.0270*%
%ADD19C,0.0100*%
%ADD20C,0.0320*%
%ADD21C,0.0240*%
%ADD22C,0.0560*%
D10*
X012683Y013608D02*
X012683Y013683D01*
X012383Y013983D01*
X012383Y014058D01*
X012683Y014058D01*
X012844Y013983D02*
X012844Y013908D01*
X013144Y013608D01*
X012844Y013608D01*
X012844Y013983D02*
X012919Y014058D01*
X013069Y014058D01*
X013144Y013983D01*
X013304Y013983D02*
X013604Y013683D01*
X013529Y013608D01*
X013379Y013608D01*
X013304Y013683D01*
X013304Y013983D01*
X013379Y014058D01*
X013529Y014058D01*
X013604Y013983D01*
X013604Y013683D01*
X013764Y013683D02*
X013839Y013608D01*
X013989Y013608D01*
X014064Y013683D01*
X014064Y013758D01*
X013989Y013833D01*
X013839Y013833D01*
X013764Y013758D01*
X013764Y013683D01*
X013839Y013833D02*
X013764Y013908D01*
X013764Y013983D01*
X013839Y014058D01*
X013989Y014058D01*
X014064Y013983D01*
X014064Y013908D01*
X013989Y013833D01*
X014225Y013908D02*
X014225Y013983D01*
X014300Y014058D01*
X014450Y014058D01*
X014525Y013983D01*
X014685Y014058D02*
X014985Y014058D01*
X014985Y013608D01*
X014985Y013833D02*
X014835Y013833D01*
X015145Y013833D02*
X015446Y013833D01*
X015606Y013608D02*
X015906Y013608D01*
X015906Y014058D01*
X016066Y014058D02*
X016366Y013608D01*
X016526Y013608D02*
X016526Y014058D01*
X016366Y014058D02*
X016066Y013608D01*
X016526Y013833D02*
X016827Y013833D01*
X016987Y013683D02*
X017062Y013608D01*
X017212Y013608D01*
X017287Y013683D01*
X017287Y013983D01*
X017212Y014058D01*
X017062Y014058D01*
X016987Y013983D01*
X016827Y014058D02*
X016827Y013608D01*
X017447Y013608D02*
X017447Y014058D01*
X017747Y014058D02*
X017447Y013608D01*
X017747Y013608D02*
X017747Y014058D01*
X017907Y014058D02*
X017907Y013683D01*
X017983Y013608D01*
X018133Y013608D01*
X018208Y013683D01*
X018208Y014058D01*
X018368Y013908D02*
X018368Y013608D01*
X018368Y013833D02*
X018668Y013833D01*
X018668Y013908D02*
X018518Y014058D01*
X018368Y013908D01*
X018668Y013908D02*
X018668Y013608D01*
X018828Y013608D02*
X019128Y013608D01*
X019128Y014058D01*
X014525Y013608D02*
X014225Y013908D01*
X014225Y013608D02*
X014525Y013608D01*
D11*
X024453Y022233D03*
X024453Y024133D03*
D12*
X019953Y032183D03*
X037453Y032183D03*
X019953Y015183D03*
X019953Y014183D03*
D13*
X020953Y014183D03*
X020953Y015183D03*
X025453Y015183D03*
X026453Y015183D03*
X027453Y015183D03*
X028453Y015183D03*
X029453Y015183D03*
X030453Y015183D03*
X031453Y015183D03*
X032453Y015183D03*
X033453Y015183D03*
X033453Y014183D03*
X032453Y014183D03*
X031453Y014183D03*
X030453Y014183D03*
X029453Y014183D03*
X028453Y014183D03*
X027453Y014183D03*
X026453Y014183D03*
X025453Y014183D03*
X025453Y031183D03*
X025453Y032183D03*
X026453Y032183D03*
X026453Y031183D03*
X027453Y031183D03*
X027453Y032183D03*
X028453Y032183D03*
X028453Y031183D03*
X029453Y031183D03*
X029453Y032183D03*
X030453Y032183D03*
X030453Y031183D03*
X031453Y031183D03*
X031453Y032183D03*
X032453Y032183D03*
X032453Y031183D03*
X033453Y031183D03*
X033453Y032183D03*
X020953Y032183D03*
D14*
X035453Y032183D03*
X036453Y032183D03*
D15*
X024453Y032183D03*
X024453Y031183D03*
X024453Y015183D03*
X024453Y014183D03*
D16*
X022608Y030107D02*
X022574Y030103D01*
X022551Y030101D01*
X022532Y030102D01*
X022500Y030107D01*
X022497Y030109D01*
X022491Y030119D01*
X022483Y030129D01*
X022472Y030135D01*
X022454Y030144D01*
X022432Y030150D01*
X022392Y030154D01*
X022356Y030152D01*
X022335Y030149D01*
X022320Y030150D01*
X022317Y030157D01*
X022314Y030169D01*
X022311Y030188D01*
X022308Y030209D01*
X022304Y030246D01*
X022303Y030280D01*
X022304Y030320D01*
X022317Y030323D01*
X022347Y030329D01*
X022375Y030336D01*
X022392Y030340D01*
X022405Y030342D01*
X022405Y030272D01*
X022415Y030275D01*
X022500Y030295D01*
X022767Y030295D01*
X022763Y030291D02*
X022747Y030273D01*
X022734Y030254D01*
X022724Y030237D01*
X022715Y030222D01*
X022709Y030209D01*
X022696Y030186D01*
X022686Y030160D01*
X022679Y030145D01*
X022673Y030128D01*
X022669Y030119D01*
X022663Y030115D01*
X022651Y030113D01*
X022631Y030110D01*
X022608Y030107D01*
X022613Y030107D02*
X022499Y030107D01*
X022493Y030116D02*
X022664Y030116D01*
X022671Y030124D02*
X022487Y030124D01*
X022476Y030133D02*
X022675Y030133D01*
X022678Y030141D02*
X022460Y030141D01*
X022434Y030150D02*
X022681Y030150D01*
X022685Y030159D02*
X022316Y030159D01*
X022314Y030167D02*
X022689Y030167D01*
X022692Y030176D02*
X022313Y030176D01*
X022311Y030184D02*
X022695Y030184D01*
X022700Y030193D02*
X022310Y030193D01*
X022309Y030201D02*
X022704Y030201D01*
X022709Y030210D02*
X022308Y030210D01*
X022307Y030218D02*
X022713Y030218D01*
X022718Y030227D02*
X022306Y030227D01*
X022305Y030235D02*
X022723Y030235D01*
X022728Y030244D02*
X022305Y030244D01*
X022304Y030253D02*
X022733Y030253D01*
X022738Y030261D02*
X022304Y030261D01*
X022304Y030270D02*
X022745Y030270D01*
X022751Y030278D02*
X022428Y030278D01*
X022405Y030278D02*
X022303Y030278D01*
X022303Y030287D02*
X022405Y030287D01*
X022405Y030295D02*
X022303Y030295D01*
X022304Y030304D02*
X022405Y030304D01*
X022405Y030312D02*
X022304Y030312D01*
X022307Y030321D02*
X022405Y030321D01*
X022405Y030329D02*
X022348Y030329D01*
X022339Y030365D02*
X022341Y030452D01*
X022340Y030452D01*
X022651Y030520D01*
X022651Y030435D01*
X022339Y030365D01*
X022340Y030372D02*
X022371Y030372D01*
X022340Y030381D02*
X022409Y030381D01*
X022447Y030389D02*
X022340Y030389D01*
X022340Y030398D02*
X022485Y030398D01*
X022500Y030364D02*
X022625Y030391D01*
X022651Y030392D01*
X022654Y030388D01*
X022657Y030382D01*
X022656Y030355D01*
X022500Y030355D01*
X022500Y030346D02*
X022655Y030346D01*
X022654Y030338D02*
X022500Y030338D01*
X022500Y030329D02*
X022805Y030329D01*
X022806Y030330D02*
X022791Y030318D01*
X022776Y030305D01*
X022763Y030291D01*
X022759Y030287D02*
X022465Y030287D01*
X022500Y030295D02*
X022500Y030364D01*
X022656Y030364D01*
X022656Y030372D02*
X022537Y030372D01*
X022523Y030406D02*
X022340Y030406D01*
X022340Y030415D02*
X022561Y030415D01*
X022577Y030381D02*
X022657Y030381D01*
X022653Y030389D02*
X022616Y030389D01*
X022599Y030423D02*
X022340Y030423D01*
X022340Y030432D02*
X022637Y030432D01*
X022651Y030440D02*
X022340Y030440D01*
X022341Y030449D02*
X022651Y030449D01*
X022651Y030458D02*
X022364Y030458D01*
X022345Y030492D02*
X022290Y030492D01*
X022289Y030500D02*
X022387Y030500D01*
X022405Y030504D02*
X022291Y030481D01*
X022289Y030502D01*
X022282Y030519D01*
X022276Y030531D01*
X022141Y030531D01*
X022141Y030747D01*
X022141Y030746D01*
X022250Y030747D01*
X022357Y030746D01*
X022465Y030746D01*
X022464Y030936D01*
X022547Y030936D01*
X022539Y030944D02*
X022555Y030928D01*
X022574Y030909D01*
X022587Y030896D01*
X022596Y030887D01*
X022607Y030877D01*
X022621Y030868D01*
X022645Y030858D01*
X022666Y030849D01*
X022686Y030840D01*
X022699Y030832D01*
X022718Y030817D01*
X022730Y030800D01*
X022734Y030793D01*
X022737Y030776D01*
X022734Y030756D01*
X022728Y030749D01*
X022722Y030742D01*
X022708Y030730D01*
X022695Y030717D01*
X022686Y030708D01*
X022683Y030702D01*
X022680Y030682D01*
X022682Y030663D01*
X022692Y030649D01*
X022704Y030637D01*
X022141Y030637D01*
X022141Y030646D02*
X022695Y030646D01*
X022688Y030654D02*
X022141Y030654D01*
X022141Y030663D02*
X022682Y030663D01*
X022681Y030671D02*
X022141Y030671D01*
X022141Y030680D02*
X022680Y030680D01*
X022681Y030688D02*
X022141Y030688D01*
X022141Y030697D02*
X022682Y030697D01*
X022685Y030705D02*
X022141Y030705D01*
X022141Y030714D02*
X022692Y030714D01*
X022700Y030722D02*
X022141Y030722D01*
X022141Y030731D02*
X022709Y030731D01*
X022719Y030739D02*
X022141Y030739D01*
X022141Y030628D02*
X022719Y030628D01*
X022704Y030637D02*
X022743Y030615D01*
X022769Y030602D01*
X022791Y030593D01*
X022814Y030584D01*
X022840Y030570D01*
X022864Y030558D01*
X022893Y030539D01*
X022923Y030513D01*
X022942Y030491D01*
X022959Y030468D01*
X022968Y030451D01*
X022974Y030436D01*
X022977Y030420D01*
X022979Y030392D01*
X022977Y030373D01*
X022974Y030359D01*
X022971Y030350D01*
X022967Y030343D01*
X022962Y030342D01*
X022947Y030347D01*
X022947Y030346D02*
X022969Y030346D01*
X022973Y030355D02*
X022911Y030355D01*
X022903Y030356D02*
X022885Y030359D01*
X022871Y030357D01*
X022851Y030353D01*
X022835Y030347D01*
X022835Y030346D02*
X022690Y030346D01*
X022658Y030338D02*
X022819Y030338D01*
X022823Y030341D02*
X022806Y030330D01*
X022795Y030321D02*
X022500Y030321D01*
X022500Y030312D02*
X022784Y030312D01*
X022775Y030304D02*
X022500Y030304D01*
X022405Y030338D02*
X022384Y030338D01*
X022311Y030369D02*
X022314Y030378D01*
X022315Y030395D01*
X022314Y030410D01*
X022307Y030423D01*
X022301Y030429D01*
X022294Y030436D01*
X022285Y030439D01*
X022268Y030440D01*
X022253Y030439D01*
X022253Y030439D01*
X022240Y030433D01*
X022237Y030429D01*
X022234Y030426D01*
X022231Y030420D01*
X022225Y030410D01*
X022224Y030394D01*
X022224Y030375D01*
X022227Y030369D01*
X022234Y030362D01*
X022241Y030356D01*
X022244Y030353D01*
X022250Y030350D01*
X022260Y030346D01*
X022279Y030346D01*
X022291Y030349D01*
X022301Y030356D01*
X022311Y030369D01*
X022312Y030372D02*
X022226Y030372D01*
X022224Y030381D02*
X022314Y030381D01*
X022315Y030389D02*
X022224Y030389D01*
X022224Y030398D02*
X022315Y030398D01*
X022314Y030406D02*
X022225Y030406D01*
X022228Y030415D02*
X022311Y030415D01*
X022307Y030423D02*
X022233Y030423D01*
X022240Y030432D02*
X022298Y030432D01*
X022291Y030483D02*
X022304Y030483D01*
X022286Y030509D02*
X022405Y030509D01*
X022405Y030504D02*
X022405Y030574D01*
X022499Y030595D01*
X022500Y030527D01*
X022512Y030528D01*
X022555Y030538D01*
X022633Y030554D01*
X022650Y030557D01*
X022679Y030557D01*
X022701Y030554D01*
X022717Y030548D01*
X022729Y030538D01*
X022743Y030525D01*
X022753Y030507D01*
X022755Y030497D01*
X022759Y030465D01*
X022755Y030435D01*
X022748Y030403D01*
X022743Y030381D01*
X022737Y030362D01*
X022724Y030355D01*
X022654Y030337D01*
X022656Y030355D01*
X022723Y030355D02*
X022860Y030355D01*
X022835Y030347D02*
X022823Y030341D01*
X022903Y030356D02*
X022924Y030353D01*
X022947Y030347D01*
X022975Y030364D02*
X022738Y030364D01*
X022740Y030372D02*
X022977Y030372D01*
X022978Y030381D02*
X022743Y030381D01*
X022745Y030389D02*
X022979Y030389D01*
X022979Y030398D02*
X022747Y030398D01*
X022749Y030406D02*
X022978Y030406D01*
X022977Y030415D02*
X022751Y030415D01*
X022752Y030423D02*
X022976Y030423D01*
X022975Y030432D02*
X022754Y030432D01*
X022755Y030440D02*
X022972Y030440D01*
X022969Y030449D02*
X022756Y030449D01*
X022758Y030458D02*
X022964Y030458D01*
X022959Y030466D02*
X022758Y030466D01*
X022758Y030475D02*
X022953Y030475D01*
X022947Y030483D02*
X022757Y030483D01*
X022756Y030492D02*
X022941Y030492D01*
X022934Y030500D02*
X022754Y030500D01*
X022752Y030509D02*
X022926Y030509D01*
X022918Y030517D02*
X022747Y030517D01*
X022742Y030526D02*
X022908Y030526D01*
X022898Y030534D02*
X022733Y030534D01*
X022723Y030543D02*
X022886Y030543D01*
X022874Y030552D02*
X022708Y030552D01*
X022651Y030517D02*
X022638Y030517D01*
X022651Y030509D02*
X022599Y030509D01*
X022579Y030543D02*
X022500Y030543D01*
X022500Y030552D02*
X022620Y030552D01*
X022651Y030500D02*
X022560Y030500D01*
X022540Y030534D02*
X022500Y030534D01*
X022500Y030560D02*
X022860Y030560D01*
X022843Y030569D02*
X022500Y030569D01*
X022500Y030577D02*
X022827Y030577D01*
X022810Y030586D02*
X022499Y030586D01*
X022499Y030594D02*
X022788Y030594D01*
X022768Y030603D02*
X022141Y030603D01*
X022141Y030611D02*
X022751Y030611D01*
X022735Y030620D02*
X022141Y030620D01*
X022141Y030594D02*
X022497Y030594D01*
X022458Y030586D02*
X022141Y030586D01*
X022141Y030577D02*
X022420Y030577D01*
X022405Y030569D02*
X022141Y030569D01*
X022141Y030560D02*
X022405Y030560D01*
X022405Y030552D02*
X022141Y030552D01*
X022141Y030543D02*
X022405Y030543D01*
X022405Y030534D02*
X022141Y030534D01*
X022278Y030526D02*
X022405Y030526D01*
X022405Y030517D02*
X022283Y030517D01*
X022403Y030466D02*
X022651Y030466D01*
X022651Y030475D02*
X022442Y030475D01*
X022481Y030483D02*
X022651Y030483D01*
X022651Y030492D02*
X022521Y030492D01*
X022307Y030364D02*
X022233Y030364D01*
X022242Y030355D02*
X022299Y030355D01*
X022281Y030346D02*
X022259Y030346D01*
X022324Y030150D02*
X022344Y030150D01*
X022465Y030748D02*
X022727Y030748D01*
X022734Y030757D02*
X022465Y030757D01*
X022465Y030765D02*
X022736Y030765D01*
X022737Y030774D02*
X022465Y030774D01*
X022465Y030782D02*
X022736Y030782D01*
X022735Y030791D02*
X022465Y030791D01*
X022465Y030799D02*
X022731Y030799D01*
X022725Y030808D02*
X022465Y030808D01*
X022465Y030816D02*
X022718Y030816D01*
X022708Y030825D02*
X022464Y030825D01*
X022464Y030833D02*
X022697Y030833D01*
X022681Y030842D02*
X022464Y030842D01*
X022464Y030851D02*
X022662Y030851D01*
X022643Y030859D02*
X022464Y030859D01*
X022464Y030868D02*
X022622Y030868D01*
X022608Y030876D02*
X022464Y030876D01*
X022464Y030885D02*
X022598Y030885D01*
X022590Y030893D02*
X022464Y030893D01*
X022464Y030902D02*
X022581Y030902D01*
X022573Y030910D02*
X022464Y030910D01*
X022464Y030919D02*
X022564Y030919D01*
X022556Y030927D02*
X022464Y030927D01*
X022464Y030936D02*
X022464Y030973D01*
X022482Y030973D01*
X022500Y030967D01*
X022523Y030957D01*
X022539Y030944D01*
X022539Y030945D02*
X022464Y030945D01*
X022464Y030953D02*
X022528Y030953D01*
X022512Y030962D02*
X022464Y030962D01*
X022464Y030970D02*
X022490Y030970D01*
D17*
X022040Y031293D02*
X021866Y031293D01*
X021743Y031170D01*
X021743Y029796D01*
X021866Y029673D01*
X022040Y029673D01*
X023240Y029673D01*
X023363Y029796D01*
X023363Y029970D01*
X023363Y031170D01*
X023240Y031293D01*
X023066Y031293D01*
X022040Y031293D01*
X021821Y031248D02*
X021453Y031248D01*
X021453Y031326D02*
X023943Y031326D01*
X023943Y031248D02*
X023285Y031248D01*
X023363Y031169D02*
X023943Y031169D01*
X023943Y031091D02*
X023363Y031091D01*
X023363Y031012D02*
X023943Y031012D01*
X023943Y030934D02*
X023363Y030934D01*
X023363Y030855D02*
X023943Y030855D01*
X023943Y030777D02*
X023363Y030777D01*
X023363Y030698D02*
X024012Y030698D01*
X024037Y030673D02*
X024870Y030673D01*
X024963Y030767D01*
X024963Y031033D01*
X025021Y030894D01*
X025164Y030751D01*
X025352Y030673D01*
X025555Y030673D01*
X025742Y030751D01*
X025886Y030894D01*
X025953Y031057D01*
X026021Y030894D01*
X026164Y030751D01*
X026352Y030673D01*
X026555Y030673D01*
X026742Y030751D01*
X026886Y030894D01*
X026953Y031057D01*
X027021Y030894D01*
X027164Y030751D01*
X027304Y030693D01*
X026766Y030693D01*
X026751Y030678D01*
X026695Y030678D01*
X026586Y030633D01*
X026503Y030550D01*
X026458Y030442D01*
X026458Y030324D01*
X026503Y030216D01*
X026586Y030133D01*
X026503Y030050D01*
X026458Y029942D01*
X026458Y029824D01*
X026503Y029716D01*
X026586Y029633D01*
X026503Y029550D01*
X026458Y029442D01*
X026458Y029324D01*
X026503Y029216D01*
X026586Y029133D01*
X026659Y029103D01*
X023817Y029103D01*
X023690Y029103D01*
X023572Y029054D01*
X022521Y028003D01*
X022273Y028003D01*
X022273Y028247D01*
X022225Y028364D01*
X022135Y028454D01*
X022017Y028503D01*
X021890Y028503D01*
X021772Y028454D01*
X021682Y028364D01*
X021633Y028247D01*
X021633Y027747D01*
X021633Y024519D01*
X021633Y019147D01*
X021633Y015619D01*
X021633Y014947D01*
X021633Y014819D01*
X021682Y014702D01*
X022382Y014002D01*
X022472Y013912D01*
X022590Y013863D01*
X023943Y013863D01*
X023943Y013767D01*
X024037Y013673D01*
X024870Y013673D01*
X024963Y013767D01*
X024963Y014033D01*
X025021Y013894D01*
X025164Y013751D01*
X025352Y013673D01*
X025555Y013673D01*
X025742Y013751D01*
X025886Y013894D01*
X025953Y014057D01*
X026021Y013894D01*
X026164Y013751D01*
X026352Y013673D01*
X026555Y013673D01*
X026742Y013751D01*
X026886Y013894D01*
X026953Y014057D01*
X027021Y013894D01*
X027164Y013751D01*
X027352Y013673D01*
X027555Y013673D01*
X027742Y013751D01*
X027886Y013894D01*
X027953Y014057D01*
X028021Y013894D01*
X028164Y013751D01*
X028352Y013673D01*
X028555Y013673D01*
X028742Y013751D01*
X028886Y013894D01*
X028953Y014057D01*
X029021Y013894D01*
X029164Y013751D01*
X029352Y013673D01*
X029555Y013673D01*
X029742Y013751D01*
X029886Y013894D01*
X029953Y014057D01*
X030021Y013894D01*
X030164Y013751D01*
X030352Y013673D01*
X030555Y013673D01*
X030742Y013751D01*
X030886Y013894D01*
X030953Y014057D01*
X031021Y013894D01*
X031164Y013751D01*
X031352Y013673D01*
X031555Y013673D01*
X031742Y013751D01*
X031886Y013894D01*
X031953Y014057D01*
X032021Y013894D01*
X032164Y013751D01*
X032352Y013673D01*
X032555Y013673D01*
X032742Y013751D01*
X032886Y013894D01*
X032953Y014057D01*
X033021Y013894D01*
X033164Y013751D01*
X033352Y013673D01*
X033555Y013673D01*
X033742Y013751D01*
X033886Y013894D01*
X033963Y014081D01*
X033963Y014284D01*
X033886Y014472D01*
X033885Y014473D01*
X037240Y014473D01*
X037363Y014596D01*
X037563Y014796D01*
X037563Y013573D01*
X021453Y013573D01*
X021453Y014057D01*
X021463Y014081D01*
X021463Y014284D01*
X021453Y014309D01*
X021453Y015057D01*
X021463Y015081D01*
X021463Y015284D01*
X021453Y015308D01*
X021453Y032793D01*
X037563Y032793D01*
X037563Y032673D01*
X037057Y032673D01*
X036963Y032579D01*
X036963Y032287D01*
X036961Y032305D01*
X036935Y032383D01*
X036898Y032456D01*
X036850Y032522D01*
X036792Y032580D01*
X036726Y032628D01*
X036653Y032665D01*
X036575Y032690D01*
X036494Y032703D01*
X036493Y032703D01*
X036493Y032223D01*
X036413Y032223D01*
X036413Y032143D01*
X035973Y032143D01*
X035494Y032143D01*
X035494Y032223D01*
X035973Y032223D01*
X036413Y032223D01*
X036413Y032703D01*
X036412Y032703D01*
X036332Y032690D01*
X036254Y032665D01*
X036181Y032628D01*
X036115Y032580D01*
X036057Y032522D01*
X036009Y032456D01*
X035971Y032383D01*
X035953Y032327D01*
X035935Y032383D01*
X035898Y032456D01*
X035850Y032522D01*
X035792Y032580D01*
X035726Y032628D01*
X035653Y032665D01*
X035575Y032690D01*
X035494Y032703D01*
X035493Y032703D01*
X035493Y032223D01*
X035413Y032223D01*
X035413Y032143D01*
X034933Y032143D01*
X034933Y032142D01*
X034946Y032061D01*
X034971Y031983D01*
X035009Y031910D01*
X035057Y031844D01*
X035115Y031786D01*
X035181Y031738D01*
X035254Y031701D01*
X035332Y031676D01*
X035412Y031663D01*
X035413Y031663D01*
X035413Y032143D01*
X035493Y032143D01*
X035493Y031663D01*
X035494Y031663D01*
X035575Y031676D01*
X035653Y031701D01*
X035726Y031738D01*
X035792Y031786D01*
X035850Y031844D01*
X035898Y031910D01*
X035935Y031983D01*
X035953Y032039D01*
X035971Y031983D01*
X036009Y031910D01*
X036057Y031844D01*
X036115Y031786D01*
X036181Y031738D01*
X036254Y031701D01*
X036332Y031676D01*
X036412Y031663D01*
X036413Y031663D01*
X036413Y032143D01*
X036493Y032143D01*
X036493Y031663D01*
X036494Y031663D01*
X036575Y031676D01*
X036653Y031701D01*
X036726Y031738D01*
X036792Y031786D01*
X036850Y031844D01*
X036898Y031910D01*
X036935Y031983D01*
X036961Y032061D01*
X036963Y032079D01*
X036963Y031787D01*
X037057Y031693D01*
X037133Y031693D01*
X037133Y028716D01*
X037021Y028603D01*
X033417Y028603D01*
X033290Y028603D01*
X033172Y028554D01*
X032921Y028303D01*
X030386Y028303D01*
X030373Y028316D01*
X030373Y028419D01*
X030373Y028547D01*
X030360Y028580D01*
X030466Y028473D01*
X031746Y028473D01*
X031786Y028433D01*
X031895Y028388D01*
X032012Y028388D01*
X032120Y028433D01*
X032203Y028516D01*
X032248Y028624D01*
X032248Y028742D01*
X032203Y028850D01*
X032120Y028933D01*
X032036Y028968D01*
X032240Y029173D01*
X032246Y029173D01*
X032286Y029133D01*
X032395Y029088D01*
X032512Y029088D01*
X032620Y029133D01*
X032703Y029216D01*
X032748Y029324D01*
X032748Y029442D01*
X032703Y029550D01*
X032620Y029633D01*
X032512Y029678D01*
X032395Y029678D01*
X032286Y029633D01*
X032246Y029593D01*
X032066Y029593D01*
X031943Y029470D01*
X031713Y029240D01*
X031748Y029324D01*
X031748Y029442D01*
X031703Y029550D01*
X031620Y029633D01*
X031512Y029678D01*
X031395Y029678D01*
X031286Y029633D01*
X031203Y029550D01*
X031163Y029590D01*
X031163Y029814D01*
X031040Y029937D01*
X030904Y030073D01*
X031366Y030073D01*
X031540Y030073D01*
X032040Y030573D01*
X032040Y030573D01*
X032163Y030696D01*
X032163Y030752D01*
X032164Y030751D01*
X032352Y030673D01*
X032555Y030673D01*
X032742Y030751D01*
X032886Y030894D01*
X032953Y031057D01*
X033021Y030894D01*
X033164Y030751D01*
X033352Y030673D01*
X033555Y030673D01*
X033742Y030751D01*
X033886Y030894D01*
X033963Y031081D01*
X033963Y031284D01*
X033886Y031472D01*
X033742Y031615D01*
X033579Y031683D01*
X033742Y031751D01*
X033886Y031894D01*
X033963Y032081D01*
X033963Y032284D01*
X033886Y032472D01*
X033742Y032615D01*
X033555Y032693D01*
X033352Y032693D01*
X033164Y032615D01*
X033021Y032472D01*
X032953Y032308D01*
X032886Y032472D01*
X032742Y032615D01*
X032555Y032693D01*
X032352Y032693D01*
X032164Y032615D01*
X032021Y032472D01*
X031953Y032308D01*
X031886Y032472D01*
X031742Y032615D01*
X031555Y032693D01*
X031352Y032693D01*
X031164Y032615D01*
X031021Y032472D01*
X030953Y032308D01*
X030886Y032472D01*
X030742Y032615D01*
X030555Y032693D01*
X030352Y032693D01*
X030164Y032615D01*
X030021Y032472D01*
X029953Y032309D01*
X029886Y032472D01*
X029742Y032615D01*
X029555Y032693D01*
X029352Y032693D01*
X029164Y032615D01*
X029021Y032472D01*
X028953Y032309D01*
X028886Y032472D01*
X028742Y032615D01*
X028555Y032693D01*
X028352Y032693D01*
X028164Y032615D01*
X028021Y032472D01*
X027953Y032309D01*
X027886Y032472D01*
X027742Y032615D01*
X027555Y032693D01*
X027352Y032693D01*
X027164Y032615D01*
X027021Y032472D01*
X026953Y032309D01*
X026886Y032472D01*
X026742Y032615D01*
X026555Y032693D01*
X026352Y032693D01*
X026164Y032615D01*
X026021Y032472D01*
X025953Y032309D01*
X025886Y032472D01*
X025742Y032615D01*
X025555Y032693D01*
X025352Y032693D01*
X025164Y032615D01*
X025021Y032472D01*
X024943Y032284D01*
X024943Y032081D01*
X025021Y031894D01*
X025164Y031751D01*
X025328Y031683D01*
X025164Y031615D01*
X025021Y031472D01*
X024963Y031333D01*
X024963Y031599D01*
X024870Y031693D01*
X024037Y031693D01*
X023943Y031599D01*
X023943Y030767D01*
X024037Y030673D01*
X023363Y030620D02*
X026573Y030620D01*
X026616Y030698D02*
X027291Y030698D01*
X027138Y030777D02*
X026768Y030777D01*
X026847Y030855D02*
X027060Y030855D01*
X027005Y030934D02*
X026902Y030934D01*
X026935Y031012D02*
X026972Y031012D01*
X026953Y031309D02*
X026886Y031472D01*
X026742Y031615D01*
X026579Y031683D01*
X026742Y031751D01*
X026886Y031894D01*
X026953Y032057D01*
X027021Y031894D01*
X027164Y031751D01*
X027328Y031683D01*
X027164Y031615D01*
X027021Y031472D01*
X026953Y031309D01*
X026946Y031326D02*
X026961Y031326D01*
X026993Y031405D02*
X026913Y031405D01*
X026874Y031484D02*
X027033Y031484D01*
X027111Y031562D02*
X026795Y031562D01*
X026681Y031641D02*
X027226Y031641D01*
X027240Y031719D02*
X026666Y031719D01*
X026789Y031798D02*
X027117Y031798D01*
X027039Y031876D02*
X026868Y031876D01*
X026911Y031955D02*
X026996Y031955D01*
X026963Y032033D02*
X026943Y032033D01*
X026937Y032348D02*
X026970Y032348D01*
X027002Y032426D02*
X026905Y032426D01*
X026853Y032505D02*
X027054Y032505D01*
X027132Y032583D02*
X026774Y032583D01*
X026630Y032662D02*
X027277Y032662D01*
X027630Y032662D02*
X028277Y032662D01*
X028132Y032583D02*
X027774Y032583D01*
X027853Y032505D02*
X028054Y032505D01*
X028002Y032426D02*
X027905Y032426D01*
X027937Y032348D02*
X027970Y032348D01*
X027953Y032057D02*
X028021Y031894D01*
X028164Y031751D01*
X028328Y031683D01*
X028164Y031615D01*
X028021Y031472D01*
X027953Y031309D01*
X027886Y031472D01*
X027742Y031615D01*
X027579Y031683D01*
X027742Y031751D01*
X027886Y031894D01*
X027953Y032057D01*
X027943Y032033D02*
X027963Y032033D01*
X027996Y031955D02*
X027911Y031955D01*
X027868Y031876D02*
X028039Y031876D01*
X028117Y031798D02*
X027789Y031798D01*
X027666Y031719D02*
X028240Y031719D01*
X028226Y031641D02*
X027681Y031641D01*
X027795Y031562D02*
X028111Y031562D01*
X028033Y031484D02*
X027874Y031484D01*
X027913Y031405D02*
X027993Y031405D01*
X027961Y031326D02*
X027946Y031326D01*
X027953Y031057D02*
X028021Y030894D01*
X028164Y030751D01*
X028304Y030693D01*
X027603Y030693D01*
X027742Y030751D01*
X027886Y030894D01*
X027953Y031057D01*
X027935Y031012D02*
X027972Y031012D01*
X028005Y030934D02*
X027902Y030934D01*
X027847Y030855D02*
X028060Y030855D01*
X028138Y030777D02*
X027768Y030777D01*
X027615Y030698D02*
X028291Y030698D01*
X028603Y030693D02*
X028742Y030751D01*
X028886Y030894D01*
X028953Y031057D01*
X029021Y030894D01*
X029164Y030751D01*
X029207Y030733D01*
X029166Y030693D01*
X028603Y030693D01*
X028615Y030698D02*
X029172Y030698D01*
X029138Y030777D02*
X028768Y030777D01*
X028847Y030855D02*
X029060Y030855D01*
X029005Y030934D02*
X028902Y030934D01*
X028935Y031012D02*
X028972Y031012D01*
X028953Y031309D02*
X028886Y031472D01*
X028742Y031615D01*
X028579Y031683D01*
X028742Y031751D01*
X028886Y031894D01*
X028953Y032057D01*
X029021Y031894D01*
X029164Y031751D01*
X029328Y031683D01*
X029164Y031615D01*
X029021Y031472D01*
X028953Y031309D01*
X028946Y031326D02*
X028961Y031326D01*
X028993Y031405D02*
X028913Y031405D01*
X028874Y031484D02*
X029033Y031484D01*
X029111Y031562D02*
X028795Y031562D01*
X028681Y031641D02*
X029226Y031641D01*
X029240Y031719D02*
X028666Y031719D01*
X028789Y031798D02*
X029117Y031798D01*
X029039Y031876D02*
X028868Y031876D01*
X028911Y031955D02*
X028996Y031955D01*
X028963Y032033D02*
X028943Y032033D01*
X028937Y032348D02*
X028970Y032348D01*
X029002Y032426D02*
X028905Y032426D01*
X028853Y032505D02*
X029054Y032505D01*
X029132Y032583D02*
X028774Y032583D01*
X028630Y032662D02*
X029277Y032662D01*
X029630Y032662D02*
X030277Y032662D01*
X030132Y032583D02*
X029774Y032583D01*
X029853Y032505D02*
X030054Y032505D01*
X030002Y032426D02*
X029905Y032426D01*
X029937Y032348D02*
X029970Y032348D01*
X029953Y032057D02*
X030021Y031894D01*
X030164Y031751D01*
X030328Y031683D01*
X030164Y031615D01*
X030021Y031472D01*
X029953Y031309D01*
X029886Y031472D01*
X029742Y031615D01*
X029579Y031683D01*
X029742Y031751D01*
X029886Y031894D01*
X029953Y032057D01*
X029943Y032033D02*
X029963Y032033D01*
X029996Y031955D02*
X029911Y031955D01*
X029868Y031876D02*
X030039Y031876D01*
X030117Y031798D02*
X029789Y031798D01*
X029666Y031719D02*
X030240Y031719D01*
X030226Y031641D02*
X029681Y031641D01*
X029795Y031562D02*
X030111Y031562D01*
X030033Y031484D02*
X029874Y031484D01*
X029913Y031405D02*
X029993Y031405D01*
X029961Y031326D02*
X029946Y031326D01*
X029953Y031057D02*
X030021Y030894D01*
X030122Y030793D01*
X029785Y030793D01*
X029886Y030894D01*
X029953Y031057D01*
X029935Y031012D02*
X029972Y031012D01*
X030005Y030934D02*
X029902Y030934D01*
X029847Y030855D02*
X030060Y030855D01*
X030960Y030493D02*
X031040Y030573D01*
X031163Y030696D01*
X031163Y030752D01*
X031164Y030751D01*
X031352Y030673D01*
X031546Y030673D01*
X031366Y030493D01*
X030960Y030493D01*
X031008Y030541D02*
X031415Y030541D01*
X031493Y030620D02*
X031087Y030620D01*
X031163Y030698D02*
X031291Y030698D01*
X031773Y030305D02*
X037133Y030305D01*
X037133Y030227D02*
X031694Y030227D01*
X031616Y030148D02*
X037133Y030148D01*
X037133Y030070D02*
X030908Y030070D01*
X030986Y029991D02*
X037133Y029991D01*
X037133Y029913D02*
X031065Y029913D01*
X031143Y029834D02*
X037133Y029834D01*
X037133Y029756D02*
X031163Y029756D01*
X031163Y029677D02*
X031393Y029677D01*
X031514Y029677D02*
X032393Y029677D01*
X032514Y029677D02*
X037133Y029677D01*
X037133Y029599D02*
X032655Y029599D01*
X032716Y029520D02*
X037133Y029520D01*
X037133Y029441D02*
X032748Y029441D01*
X032748Y029363D02*
X037133Y029363D01*
X037133Y029284D02*
X032732Y029284D01*
X032693Y029206D02*
X037133Y029206D01*
X037133Y029127D02*
X032607Y029127D01*
X032300Y029127D02*
X032195Y029127D01*
X032116Y029049D02*
X037133Y029049D01*
X037133Y028970D02*
X032038Y028970D01*
X032162Y028892D02*
X037133Y028892D01*
X037133Y028813D02*
X032219Y028813D01*
X032248Y028735D02*
X037133Y028735D01*
X037074Y028656D02*
X032248Y028656D01*
X032229Y028577D02*
X033228Y028577D01*
X033117Y028499D02*
X032186Y028499D01*
X032090Y028420D02*
X033038Y028420D01*
X032960Y028342D02*
X030373Y028342D01*
X030373Y028420D02*
X031816Y028420D01*
X031758Y029284D02*
X031732Y029284D01*
X031748Y029363D02*
X031836Y029363D01*
X031915Y029441D02*
X031748Y029441D01*
X031716Y029520D02*
X031993Y029520D01*
X032252Y029599D02*
X031655Y029599D01*
X031252Y029599D02*
X031163Y029599D01*
X031851Y030384D02*
X037133Y030384D01*
X037133Y030463D02*
X031930Y030463D01*
X032008Y030541D02*
X037133Y030541D01*
X037133Y030620D02*
X032087Y030620D01*
X032163Y030698D02*
X032291Y030698D01*
X032616Y030698D02*
X033291Y030698D01*
X033138Y030777D02*
X032768Y030777D01*
X032847Y030855D02*
X033060Y030855D01*
X033005Y030934D02*
X032902Y030934D01*
X032935Y031012D02*
X032972Y031012D01*
X032953Y031309D02*
X032886Y031472D01*
X032742Y031615D01*
X032579Y031683D01*
X032742Y031751D01*
X032886Y031894D01*
X032953Y032057D01*
X033021Y031894D01*
X033164Y031751D01*
X033328Y031683D01*
X033164Y031615D01*
X033021Y031472D01*
X032953Y031309D01*
X032946Y031326D02*
X032961Y031326D01*
X032993Y031405D02*
X032913Y031405D01*
X032874Y031484D02*
X033033Y031484D01*
X033111Y031562D02*
X032795Y031562D01*
X032681Y031641D02*
X033226Y031641D01*
X033240Y031719D02*
X032666Y031719D01*
X032789Y031798D02*
X033117Y031798D01*
X033039Y031876D02*
X032868Y031876D01*
X032911Y031955D02*
X032996Y031955D01*
X032963Y032033D02*
X032943Y032033D01*
X032937Y032348D02*
X032970Y032348D01*
X033002Y032426D02*
X032905Y032426D01*
X032853Y032505D02*
X033054Y032505D01*
X033132Y032583D02*
X032774Y032583D01*
X032630Y032662D02*
X033277Y032662D01*
X033630Y032662D02*
X035248Y032662D01*
X035254Y032665D02*
X035181Y032628D01*
X035115Y032580D01*
X035057Y032522D01*
X035009Y032456D01*
X034971Y032383D01*
X034946Y032305D01*
X034933Y032224D01*
X034933Y032223D01*
X035413Y032223D01*
X035413Y032703D01*
X035412Y032703D01*
X035332Y032690D01*
X035254Y032665D01*
X035120Y032583D02*
X033774Y032583D01*
X033853Y032505D02*
X035044Y032505D01*
X034994Y032426D02*
X033905Y032426D01*
X033937Y032348D02*
X034960Y032348D01*
X034941Y032269D02*
X033963Y032269D01*
X033963Y032190D02*
X035413Y032190D01*
X035413Y032112D02*
X035493Y032112D01*
X035494Y032190D02*
X036413Y032190D01*
X036413Y032112D02*
X036493Y032112D01*
X036493Y032033D02*
X036413Y032033D01*
X036413Y031955D02*
X036493Y031955D01*
X036493Y031876D02*
X036413Y031876D01*
X036413Y031798D02*
X036493Y031798D01*
X036493Y031719D02*
X036413Y031719D01*
X036218Y031719D02*
X035689Y031719D01*
X035804Y031798D02*
X036103Y031798D01*
X036033Y031876D02*
X035873Y031876D01*
X035921Y031955D02*
X035986Y031955D01*
X035955Y032033D02*
X035951Y032033D01*
X035947Y032348D02*
X035960Y032348D01*
X035994Y032426D02*
X035913Y032426D01*
X035862Y032505D02*
X036044Y032505D01*
X036120Y032583D02*
X035787Y032583D01*
X035659Y032662D02*
X036248Y032662D01*
X036413Y032662D02*
X036493Y032662D01*
X036493Y032583D02*
X036413Y032583D01*
X036413Y032505D02*
X036493Y032505D01*
X036493Y032426D02*
X036413Y032426D01*
X036413Y032348D02*
X036493Y032348D01*
X036493Y032269D02*
X036413Y032269D01*
X036659Y032662D02*
X037046Y032662D01*
X036967Y032583D02*
X036787Y032583D01*
X036862Y032505D02*
X036963Y032505D01*
X036963Y032426D02*
X036913Y032426D01*
X036947Y032348D02*
X036963Y032348D01*
X036951Y032033D02*
X036963Y032033D01*
X036963Y031955D02*
X036921Y031955D01*
X036963Y031876D02*
X036873Y031876D01*
X036804Y031798D02*
X036963Y031798D01*
X037031Y031719D02*
X036689Y031719D01*
X037133Y031641D02*
X033681Y031641D01*
X033666Y031719D02*
X035218Y031719D01*
X035103Y031798D02*
X033789Y031798D01*
X033868Y031876D02*
X035033Y031876D01*
X034986Y031955D02*
X033911Y031955D01*
X033943Y032033D02*
X034955Y032033D01*
X034938Y032112D02*
X033963Y032112D01*
X033795Y031562D02*
X037133Y031562D01*
X037133Y031484D02*
X033874Y031484D01*
X033913Y031405D02*
X037133Y031405D01*
X037133Y031326D02*
X033946Y031326D01*
X033963Y031248D02*
X037133Y031248D01*
X037133Y031169D02*
X033963Y031169D01*
X033963Y031091D02*
X037133Y031091D01*
X037133Y031012D02*
X033935Y031012D01*
X033902Y030934D02*
X037133Y030934D01*
X037133Y030855D02*
X033847Y030855D01*
X033768Y030777D02*
X037133Y030777D01*
X037133Y030698D02*
X033616Y030698D01*
X032328Y031683D02*
X032273Y031706D01*
X032195Y031628D01*
X032328Y031683D01*
X032226Y031641D02*
X032208Y031641D01*
X031899Y031925D02*
X031953Y032057D01*
X031976Y032003D01*
X031899Y031925D01*
X031911Y031955D02*
X031928Y031955D01*
X031943Y032033D02*
X031963Y032033D01*
X031970Y032348D02*
X031937Y032348D01*
X031905Y032426D02*
X032002Y032426D01*
X032054Y032505D02*
X031853Y032505D01*
X031774Y032583D02*
X032132Y032583D01*
X032277Y032662D02*
X031630Y032662D01*
X031277Y032662D02*
X030630Y032662D01*
X030774Y032583D02*
X031132Y032583D01*
X031054Y032505D02*
X030853Y032505D01*
X030905Y032426D02*
X031002Y032426D01*
X030970Y032348D02*
X030937Y032348D01*
X030953Y032057D02*
X030899Y031925D01*
X030976Y032003D01*
X030953Y032057D01*
X030943Y032033D02*
X030963Y032033D01*
X030928Y031955D02*
X030911Y031955D01*
X030743Y031752D02*
X030743Y031614D01*
X030742Y031615D01*
X030579Y031683D01*
X030742Y031751D01*
X030743Y031752D01*
X030743Y031719D02*
X030666Y031719D01*
X030681Y031641D02*
X030743Y031641D01*
X031195Y031628D02*
X031273Y031706D01*
X031328Y031683D01*
X031195Y031628D01*
X031208Y031641D02*
X031226Y031641D01*
X031579Y031683D02*
X031742Y031751D01*
X031743Y031752D01*
X031743Y031614D01*
X031742Y031615D01*
X031579Y031683D01*
X031666Y031719D02*
X031743Y031719D01*
X031743Y031641D02*
X031681Y031641D01*
X028846Y029773D02*
X028743Y029670D01*
X028743Y029590D01*
X028703Y029550D01*
X028658Y029442D01*
X028658Y029324D01*
X028703Y029216D01*
X028786Y029133D01*
X028859Y029103D01*
X026848Y029103D01*
X026920Y029133D01*
X027003Y029216D01*
X027048Y029324D01*
X027048Y029381D01*
X027440Y029773D01*
X028846Y029773D01*
X028829Y029756D02*
X027423Y029756D01*
X027344Y029677D02*
X028751Y029677D01*
X028743Y029599D02*
X027266Y029599D01*
X027187Y029520D02*
X028691Y029520D01*
X028658Y029441D02*
X027109Y029441D01*
X027048Y029363D02*
X028658Y029363D01*
X028675Y029284D02*
X027032Y029284D01*
X026993Y029206D02*
X028713Y029206D01*
X028800Y029127D02*
X026907Y029127D01*
X026600Y029127D02*
X021453Y029127D01*
X021453Y029049D02*
X023567Y029049D01*
X023488Y028970D02*
X021453Y028970D01*
X021453Y028892D02*
X023409Y028892D01*
X023331Y028813D02*
X021453Y028813D01*
X021453Y028735D02*
X023252Y028735D01*
X023174Y028656D02*
X021453Y028656D01*
X021453Y028577D02*
X023095Y028577D01*
X023017Y028499D02*
X022027Y028499D01*
X021880Y028499D02*
X021453Y028499D01*
X021453Y028420D02*
X021738Y028420D01*
X021673Y028342D02*
X021453Y028342D01*
X021453Y028263D02*
X021640Y028263D01*
X021633Y028185D02*
X021453Y028185D01*
X021453Y028106D02*
X021633Y028106D01*
X021633Y028028D02*
X021453Y028028D01*
X021453Y027949D02*
X021633Y027949D01*
X021633Y027871D02*
X021453Y027871D01*
X021453Y027792D02*
X021633Y027792D01*
X021633Y027714D02*
X021453Y027714D01*
X021453Y027635D02*
X021633Y027635D01*
X021633Y027556D02*
X021453Y027556D01*
X021453Y027478D02*
X021633Y027478D01*
X021633Y027399D02*
X021453Y027399D01*
X021453Y027321D02*
X021633Y027321D01*
X021633Y027242D02*
X021453Y027242D01*
X021453Y027164D02*
X021633Y027164D01*
X021633Y027085D02*
X021453Y027085D01*
X021453Y027007D02*
X021633Y027007D01*
X021633Y026928D02*
X021453Y026928D01*
X021453Y026850D02*
X021633Y026850D01*
X021633Y026771D02*
X021453Y026771D01*
X021453Y026692D02*
X021633Y026692D01*
X021633Y026614D02*
X021453Y026614D01*
X021453Y026535D02*
X021633Y026535D01*
X021633Y026457D02*
X021453Y026457D01*
X021453Y026378D02*
X021633Y026378D01*
X021633Y026300D02*
X021453Y026300D01*
X021453Y026221D02*
X021633Y026221D01*
X021633Y026143D02*
X021453Y026143D01*
X021453Y026064D02*
X021633Y026064D01*
X021633Y025986D02*
X021453Y025986D01*
X021453Y025907D02*
X021633Y025907D01*
X021633Y025828D02*
X021453Y025828D01*
X021453Y025750D02*
X021633Y025750D01*
X021633Y025671D02*
X021453Y025671D01*
X021453Y025593D02*
X021633Y025593D01*
X021633Y025514D02*
X021453Y025514D01*
X021453Y025436D02*
X021633Y025436D01*
X021633Y025357D02*
X021453Y025357D01*
X021453Y025279D02*
X021633Y025279D01*
X021633Y025200D02*
X021453Y025200D01*
X021453Y025122D02*
X021633Y025122D01*
X021633Y025043D02*
X021453Y025043D01*
X021453Y024964D02*
X021633Y024964D01*
X021633Y024886D02*
X021453Y024886D01*
X021453Y024807D02*
X021633Y024807D01*
X021633Y024729D02*
X021453Y024729D01*
X021453Y024650D02*
X021633Y024650D01*
X021633Y024572D02*
X021453Y024572D01*
X021453Y024493D02*
X021633Y024493D01*
X021633Y024415D02*
X021453Y024415D01*
X021453Y024336D02*
X021633Y024336D01*
X021633Y024258D02*
X021453Y024258D01*
X021453Y024179D02*
X021633Y024179D01*
X021633Y024101D02*
X021453Y024101D01*
X021453Y024022D02*
X021633Y024022D01*
X021633Y023943D02*
X021453Y023943D01*
X021453Y023865D02*
X021633Y023865D01*
X021633Y023786D02*
X021453Y023786D01*
X021453Y023708D02*
X021633Y023708D01*
X021633Y023629D02*
X021453Y023629D01*
X021453Y023551D02*
X021633Y023551D01*
X021633Y023472D02*
X021453Y023472D01*
X021453Y023394D02*
X021633Y023394D01*
X021633Y023315D02*
X021453Y023315D01*
X021453Y023237D02*
X021633Y023237D01*
X021633Y023158D02*
X021453Y023158D01*
X021453Y023079D02*
X021633Y023079D01*
X021633Y023001D02*
X021453Y023001D01*
X021453Y022922D02*
X021633Y022922D01*
X021633Y022844D02*
X021453Y022844D01*
X021453Y022765D02*
X021633Y022765D01*
X021633Y022687D02*
X021453Y022687D01*
X021453Y022608D02*
X021633Y022608D01*
X021633Y022530D02*
X021453Y022530D01*
X021453Y022451D02*
X021633Y022451D01*
X021633Y022373D02*
X021453Y022373D01*
X021453Y022294D02*
X021633Y022294D01*
X021633Y022215D02*
X021453Y022215D01*
X021453Y022137D02*
X021633Y022137D01*
X021633Y022058D02*
X021453Y022058D01*
X021453Y021980D02*
X021633Y021980D01*
X021633Y021901D02*
X021453Y021901D01*
X021453Y021823D02*
X021633Y021823D01*
X021633Y021744D02*
X021453Y021744D01*
X021453Y021666D02*
X021633Y021666D01*
X021633Y021587D02*
X021453Y021587D01*
X021453Y021509D02*
X021633Y021509D01*
X021633Y021430D02*
X021453Y021430D01*
X021453Y021351D02*
X021633Y021351D01*
X021633Y021273D02*
X021453Y021273D01*
X021453Y021194D02*
X021633Y021194D01*
X021633Y021116D02*
X021453Y021116D01*
X021453Y021037D02*
X021633Y021037D01*
X021633Y020959D02*
X021453Y020959D01*
X021453Y020880D02*
X021633Y020880D01*
X021633Y020802D02*
X021453Y020802D01*
X021453Y020723D02*
X021633Y020723D01*
X021633Y020645D02*
X021453Y020645D01*
X021453Y020566D02*
X021633Y020566D01*
X021633Y020488D02*
X021453Y020488D01*
X021453Y020409D02*
X021633Y020409D01*
X021633Y020330D02*
X021453Y020330D01*
X021453Y020252D02*
X021633Y020252D01*
X021633Y020173D02*
X021453Y020173D01*
X021453Y020095D02*
X021633Y020095D01*
X021633Y020016D02*
X021453Y020016D01*
X021453Y019938D02*
X021633Y019938D01*
X021633Y019859D02*
X021453Y019859D01*
X021453Y019781D02*
X021633Y019781D01*
X021633Y019702D02*
X021453Y019702D01*
X021453Y019624D02*
X021633Y019624D01*
X021633Y019545D02*
X021453Y019545D01*
X021453Y019466D02*
X021633Y019466D01*
X021633Y019388D02*
X021453Y019388D01*
X021453Y019309D02*
X021633Y019309D01*
X021633Y019231D02*
X021453Y019231D01*
X021453Y019152D02*
X021633Y019152D01*
X021633Y019074D02*
X021453Y019074D01*
X021453Y018995D02*
X021633Y018995D01*
X021633Y018917D02*
X021453Y018917D01*
X021453Y018838D02*
X021633Y018838D01*
X021633Y018760D02*
X021453Y018760D01*
X021453Y018681D02*
X021633Y018681D01*
X021633Y018602D02*
X021453Y018602D01*
X021453Y018524D02*
X021633Y018524D01*
X021633Y018445D02*
X021453Y018445D01*
X021453Y018367D02*
X021633Y018367D01*
X021633Y018288D02*
X021453Y018288D01*
X021453Y018210D02*
X021633Y018210D01*
X021633Y018131D02*
X021453Y018131D01*
X021453Y018053D02*
X021633Y018053D01*
X021633Y017974D02*
X021453Y017974D01*
X021453Y017896D02*
X021633Y017896D01*
X021633Y017817D02*
X021453Y017817D01*
X021453Y017739D02*
X021633Y017739D01*
X021633Y017660D02*
X021453Y017660D01*
X021453Y017581D02*
X021633Y017581D01*
X021633Y017503D02*
X021453Y017503D01*
X021453Y017424D02*
X021633Y017424D01*
X021633Y017346D02*
X021453Y017346D01*
X021453Y017267D02*
X021633Y017267D01*
X021633Y017189D02*
X021453Y017189D01*
X021453Y017110D02*
X021633Y017110D01*
X021633Y017032D02*
X021453Y017032D01*
X021453Y016953D02*
X021633Y016953D01*
X021633Y016875D02*
X021453Y016875D01*
X021453Y016796D02*
X021633Y016796D01*
X021633Y016717D02*
X021453Y016717D01*
X021453Y016639D02*
X021633Y016639D01*
X021633Y016560D02*
X021453Y016560D01*
X021453Y016482D02*
X021633Y016482D01*
X021633Y016403D02*
X021453Y016403D01*
X021453Y016325D02*
X021633Y016325D01*
X021633Y016246D02*
X021453Y016246D01*
X021453Y016168D02*
X021633Y016168D01*
X021633Y016089D02*
X021453Y016089D01*
X021453Y016011D02*
X021633Y016011D01*
X021633Y015932D02*
X021453Y015932D01*
X021453Y015853D02*
X021633Y015853D01*
X021633Y015775D02*
X021453Y015775D01*
X021453Y015696D02*
X021633Y015696D01*
X021633Y015618D02*
X021453Y015618D01*
X021453Y015539D02*
X021633Y015539D01*
X021633Y015461D02*
X021453Y015461D01*
X021453Y015382D02*
X021633Y015382D01*
X021633Y015304D02*
X021455Y015304D01*
X021463Y015225D02*
X021633Y015225D01*
X021633Y015147D02*
X021463Y015147D01*
X021458Y015068D02*
X021633Y015068D01*
X021633Y014989D02*
X021453Y014989D01*
X021453Y014911D02*
X021633Y014911D01*
X021633Y014832D02*
X021453Y014832D01*
X021453Y014754D02*
X021660Y014754D01*
X021708Y014675D02*
X021453Y014675D01*
X021453Y014597D02*
X021787Y014597D01*
X021866Y014518D02*
X021453Y014518D01*
X021453Y014440D02*
X021944Y014440D01*
X022023Y014361D02*
X021453Y014361D01*
X021463Y014283D02*
X022101Y014283D01*
X022180Y014204D02*
X021463Y014204D01*
X021463Y014126D02*
X022258Y014126D01*
X022337Y014047D02*
X021453Y014047D01*
X021453Y013968D02*
X022415Y013968D01*
X022525Y013890D02*
X021453Y013890D01*
X021453Y013811D02*
X023943Y013811D01*
X023977Y013733D02*
X021453Y013733D01*
X021453Y013654D02*
X037563Y013654D01*
X037563Y013576D02*
X021453Y013576D01*
X022614Y014675D02*
X024019Y014675D01*
X024027Y014683D02*
X023943Y014599D01*
X023943Y014503D01*
X022786Y014503D01*
X022273Y015016D01*
X022273Y015619D01*
X022273Y016988D01*
X022303Y016916D01*
X022386Y016833D01*
X022495Y016788D01*
X022612Y016788D01*
X022720Y016833D01*
X022761Y016873D01*
X026566Y016873D01*
X026658Y016873D01*
X026658Y016824D01*
X026703Y016716D01*
X026786Y016633D01*
X026895Y016588D01*
X027012Y016588D01*
X027120Y016633D01*
X027161Y016673D01*
X027726Y016673D01*
X027703Y016650D01*
X027658Y016542D01*
X027658Y016424D01*
X027703Y016316D01*
X027786Y016233D01*
X027895Y016188D01*
X028012Y016188D01*
X028120Y016233D01*
X028203Y016316D01*
X028227Y016373D01*
X028483Y016373D01*
X028386Y016333D01*
X028303Y016250D01*
X028258Y016142D01*
X028258Y016024D01*
X028303Y015916D01*
X028386Y015833D01*
X028495Y015788D01*
X028612Y015788D01*
X028720Y015833D01*
X028743Y015856D01*
X028743Y015614D01*
X028742Y015615D01*
X028555Y015693D01*
X028352Y015693D01*
X028164Y015615D01*
X028021Y015472D01*
X027953Y015308D01*
X027886Y015472D01*
X027742Y015615D01*
X027555Y015693D01*
X027352Y015693D01*
X027164Y015615D01*
X027021Y015472D01*
X026953Y015308D01*
X026886Y015472D01*
X026742Y015615D01*
X026555Y015693D01*
X026352Y015693D01*
X026164Y015615D01*
X026021Y015472D01*
X025943Y015284D01*
X025943Y015081D01*
X026021Y014894D01*
X026164Y014751D01*
X026328Y014683D01*
X026164Y014615D01*
X026021Y014472D01*
X025953Y014309D01*
X025886Y014472D01*
X025742Y014615D01*
X025555Y014693D01*
X025352Y014693D01*
X025164Y014615D01*
X025021Y014472D01*
X024963Y014333D01*
X024963Y014599D01*
X024880Y014683D01*
X024963Y014767D01*
X024963Y015599D01*
X024870Y015693D01*
X024037Y015693D01*
X023943Y015599D01*
X023943Y014767D01*
X024027Y014683D01*
X023956Y014754D02*
X022535Y014754D01*
X022456Y014832D02*
X023943Y014832D01*
X023943Y014911D02*
X022378Y014911D01*
X022299Y014989D02*
X023943Y014989D01*
X023943Y015068D02*
X022273Y015068D01*
X022273Y015147D02*
X023943Y015147D01*
X023943Y015225D02*
X022273Y015225D01*
X022273Y015304D02*
X023943Y015304D01*
X023943Y015382D02*
X022273Y015382D01*
X022273Y015461D02*
X023943Y015461D01*
X023943Y015539D02*
X022273Y015539D01*
X022273Y015618D02*
X023962Y015618D01*
X024945Y015618D02*
X025228Y015618D01*
X025197Y015602D02*
X025134Y015557D01*
X025080Y015502D01*
X025034Y015440D01*
X024999Y015371D01*
X024975Y015298D01*
X024964Y015223D01*
X025413Y015223D01*
X025413Y015143D01*
X024964Y015143D01*
X024975Y015068D01*
X024963Y015068D01*
X024975Y015068D02*
X024999Y014995D01*
X025034Y014926D01*
X025080Y014864D01*
X025134Y014809D01*
X025197Y014764D01*
X025265Y014729D01*
X025339Y014705D01*
X025413Y014693D01*
X025413Y015143D01*
X025493Y015143D01*
X025493Y014693D01*
X025568Y014705D01*
X025641Y014729D01*
X025710Y014764D01*
X025773Y014809D01*
X025827Y014864D01*
X025872Y014926D01*
X025907Y014995D01*
X025931Y015068D01*
X025949Y015068D01*
X025931Y015068D02*
X025943Y015143D01*
X025494Y015143D01*
X025494Y015223D01*
X025943Y015223D01*
X025931Y015298D01*
X025907Y015371D01*
X025872Y015440D01*
X025827Y015502D01*
X025773Y015557D01*
X025710Y015602D01*
X025641Y015637D01*
X025568Y015661D01*
X025493Y015673D01*
X025493Y015223D01*
X025413Y015223D01*
X025413Y015673D01*
X025339Y015661D01*
X025265Y015637D01*
X025197Y015602D01*
X025117Y015539D02*
X024963Y015539D01*
X024963Y015461D02*
X025050Y015461D01*
X025005Y015382D02*
X024963Y015382D01*
X024963Y015304D02*
X024977Y015304D01*
X024963Y015225D02*
X024964Y015225D01*
X024963Y015147D02*
X025413Y015147D01*
X025413Y015225D02*
X025493Y015225D01*
X025494Y015147D02*
X025943Y015147D01*
X025943Y015225D02*
X025943Y015225D01*
X025951Y015304D02*
X025929Y015304D01*
X025902Y015382D02*
X025984Y015382D01*
X026016Y015461D02*
X025857Y015461D01*
X025790Y015539D02*
X026088Y015539D01*
X026171Y015618D02*
X025679Y015618D01*
X025493Y015618D02*
X025413Y015618D01*
X025413Y015539D02*
X025493Y015539D01*
X025493Y015461D02*
X025413Y015461D01*
X025413Y015382D02*
X025493Y015382D01*
X025493Y015304D02*
X025413Y015304D01*
X025413Y015068D02*
X025493Y015068D01*
X025493Y014989D02*
X025413Y014989D01*
X025413Y014911D02*
X025493Y014911D01*
X025493Y014832D02*
X025413Y014832D01*
X025413Y014754D02*
X025493Y014754D01*
X025597Y014675D02*
X026309Y014675D01*
X026161Y014754D02*
X025690Y014754D01*
X025796Y014832D02*
X026083Y014832D01*
X026014Y014911D02*
X025861Y014911D01*
X025905Y014989D02*
X025981Y014989D01*
X026146Y014597D02*
X025761Y014597D01*
X025839Y014518D02*
X026067Y014518D01*
X026008Y014440D02*
X025899Y014440D01*
X025932Y014361D02*
X025975Y014361D01*
X025958Y014047D02*
X025949Y014047D01*
X025916Y013968D02*
X025990Y013968D01*
X026025Y013890D02*
X025881Y013890D01*
X025803Y013811D02*
X026104Y013811D01*
X026208Y013733D02*
X025699Y013733D01*
X025208Y013733D02*
X024929Y013733D01*
X024963Y013811D02*
X025104Y013811D01*
X025025Y013890D02*
X024963Y013890D01*
X024963Y013968D02*
X024990Y013968D01*
X024963Y014361D02*
X024975Y014361D01*
X024963Y014440D02*
X025008Y014440D01*
X024963Y014518D02*
X025067Y014518D01*
X025146Y014597D02*
X024963Y014597D01*
X024887Y014675D02*
X025309Y014675D01*
X025216Y014754D02*
X024950Y014754D01*
X024963Y014832D02*
X025111Y014832D01*
X025045Y014911D02*
X024963Y014911D01*
X024963Y014989D02*
X025002Y014989D01*
X023943Y014597D02*
X022692Y014597D01*
X022771Y014518D02*
X023943Y014518D01*
X022273Y015696D02*
X028743Y015696D01*
X028736Y015618D02*
X028743Y015618D01*
X028743Y015775D02*
X022273Y015775D01*
X022273Y015853D02*
X028366Y015853D01*
X028297Y015932D02*
X022273Y015932D01*
X022273Y016011D02*
X028264Y016011D01*
X028258Y016089D02*
X022273Y016089D01*
X022273Y016168D02*
X028269Y016168D01*
X028302Y016246D02*
X028134Y016246D01*
X028207Y016325D02*
X028378Y016325D01*
X027773Y016246D02*
X022273Y016246D01*
X022273Y016325D02*
X027700Y016325D01*
X027667Y016403D02*
X022273Y016403D01*
X022273Y016482D02*
X027658Y016482D01*
X027666Y016560D02*
X022273Y016560D01*
X022273Y016639D02*
X026780Y016639D01*
X026703Y016717D02*
X022273Y016717D01*
X022273Y016796D02*
X022475Y016796D01*
X022345Y016875D02*
X022273Y016875D01*
X022273Y016953D02*
X022288Y016953D01*
X022273Y017178D02*
X022273Y018763D01*
X022890Y018763D01*
X023017Y018763D01*
X023135Y018812D01*
X023635Y019312D01*
X023686Y019363D01*
X029190Y019363D01*
X031217Y019363D01*
X031335Y019412D01*
X031425Y019502D01*
X031525Y019602D01*
X031573Y019719D01*
X031573Y019847D01*
X031525Y019964D01*
X031463Y020026D01*
X031463Y020040D01*
X031596Y020173D01*
X033243Y020173D01*
X033243Y019690D01*
X033203Y019650D01*
X033120Y019733D01*
X033012Y019778D01*
X032895Y019778D01*
X032786Y019733D01*
X032703Y019650D01*
X032658Y019542D01*
X032658Y019424D01*
X032703Y019316D01*
X032786Y019233D01*
X032895Y019188D01*
X032951Y019188D01*
X033366Y018773D01*
X033540Y018773D01*
X034466Y018773D01*
X034666Y018573D01*
X034840Y018573D01*
X035846Y018573D01*
X035886Y018533D01*
X035995Y018488D01*
X036112Y018488D01*
X036220Y018533D01*
X036303Y018616D01*
X036348Y018724D01*
X036348Y018842D01*
X036303Y018950D01*
X036220Y019033D01*
X036112Y019078D01*
X035995Y019078D01*
X035886Y019033D01*
X035846Y018993D01*
X035380Y018993D01*
X035403Y019016D01*
X035448Y019124D01*
X035448Y019242D01*
X035403Y019350D01*
X035320Y019433D01*
X035212Y019478D01*
X035155Y019478D01*
X034740Y019893D01*
X034566Y019893D01*
X034061Y019893D01*
X034020Y019933D01*
X033912Y019978D01*
X033795Y019978D01*
X033686Y019933D01*
X033663Y019910D01*
X033663Y020173D01*
X033866Y020173D01*
X034040Y020173D01*
X034340Y020473D01*
X035666Y020473D01*
X035840Y020473D01*
X036355Y020988D01*
X036412Y020988D01*
X036520Y021033D01*
X036603Y021116D01*
X037343Y021116D01*
X037343Y021194D02*
X036636Y021194D01*
X036648Y021224D02*
X036648Y021342D01*
X036603Y021450D01*
X036563Y021490D01*
X036563Y021976D01*
X036603Y022016D01*
X036648Y022124D01*
X036648Y022242D01*
X036603Y022350D01*
X036563Y022390D01*
X036563Y022976D01*
X036603Y023016D01*
X036648Y023124D01*
X036648Y023242D01*
X036603Y023350D01*
X036563Y023390D01*
X036563Y024076D01*
X036603Y024116D01*
X036648Y024224D01*
X036648Y024342D01*
X036603Y024450D01*
X036563Y024490D01*
X036563Y025876D01*
X036603Y025916D01*
X036648Y026024D01*
X036648Y026142D01*
X036603Y026250D01*
X036520Y026333D01*
X036412Y026378D01*
X036295Y026378D01*
X036186Y026333D01*
X036103Y026250D01*
X036058Y026142D01*
X036058Y026024D01*
X036103Y025916D01*
X036143Y025876D01*
X036143Y024490D01*
X036103Y024450D01*
X036058Y024342D01*
X036058Y024224D01*
X036103Y024116D01*
X036143Y024076D01*
X036143Y023390D01*
X036103Y023350D01*
X036058Y023242D01*
X036058Y023124D01*
X036103Y023016D01*
X036143Y022976D01*
X036143Y022390D01*
X036103Y022350D01*
X036058Y022242D01*
X036058Y022124D01*
X036103Y022016D01*
X036143Y021976D01*
X036143Y021490D01*
X036103Y021450D01*
X036058Y021342D01*
X036058Y021285D01*
X036048Y021275D01*
X036048Y021342D01*
X036003Y021450D01*
X035920Y021533D01*
X035812Y021578D01*
X035695Y021578D01*
X035586Y021533D01*
X035546Y021493D01*
X035166Y021493D01*
X035043Y021370D01*
X034966Y021293D01*
X034935Y021293D01*
X034948Y021324D01*
X034948Y021442D01*
X034903Y021550D01*
X034820Y021633D01*
X034712Y021678D01*
X034595Y021678D01*
X034486Y021633D01*
X034446Y021593D01*
X034140Y021593D01*
X033740Y021993D01*
X033566Y021993D01*
X031961Y021993D01*
X031920Y022033D01*
X031812Y022078D01*
X031695Y022078D01*
X031586Y022033D01*
X031503Y021950D01*
X031458Y021842D01*
X031458Y021724D01*
X031503Y021616D01*
X031586Y021533D01*
X031695Y021488D01*
X031812Y021488D01*
X031920Y021533D01*
X031961Y021573D01*
X033566Y021573D01*
X033843Y021296D01*
X033846Y021293D01*
X032527Y021293D01*
X032503Y021350D01*
X032420Y021433D01*
X032312Y021478D01*
X032195Y021478D01*
X032086Y021433D01*
X032003Y021350D01*
X031958Y021242D01*
X031958Y021124D01*
X032003Y021016D01*
X032026Y020993D01*
X029240Y020993D01*
X029048Y021185D01*
X029048Y021242D01*
X029003Y021350D01*
X028920Y021433D01*
X028812Y021478D01*
X028695Y021478D01*
X028586Y021433D01*
X028503Y021350D01*
X028458Y021242D01*
X028458Y021124D01*
X028503Y021016D01*
X028586Y020933D01*
X028695Y020888D01*
X028751Y020888D01*
X029066Y020573D01*
X029240Y020573D01*
X031402Y020573D01*
X031166Y020337D01*
X031043Y020214D01*
X031043Y020026D01*
X031021Y020003D01*
X029190Y020003D01*
X023617Y020003D01*
X023490Y020003D01*
X023372Y019954D01*
X023182Y019764D01*
X022821Y019403D01*
X022273Y019403D01*
X022273Y021988D01*
X022303Y021916D01*
X022343Y021876D01*
X022343Y021870D01*
X022343Y021696D01*
X022643Y021396D01*
X022766Y021273D01*
X027966Y021273D01*
X028140Y021273D01*
X029140Y022273D01*
X031440Y022273D01*
X031563Y022396D01*
X032140Y022973D01*
X033340Y022973D01*
X033463Y023096D01*
X033540Y023173D01*
X033663Y023296D01*
X033663Y023576D01*
X033703Y023616D01*
X033739Y023701D01*
X033843Y023596D01*
X033843Y023496D01*
X034243Y023096D01*
X034366Y022973D01*
X035146Y022973D01*
X035186Y022933D01*
X035295Y022888D01*
X035412Y022888D01*
X035520Y022933D01*
X035603Y023016D01*
X035648Y023124D01*
X035648Y023242D01*
X035603Y023350D01*
X035520Y023433D01*
X035412Y023478D01*
X035295Y023478D01*
X035186Y023433D01*
X035146Y023393D01*
X034780Y023393D01*
X034803Y023416D01*
X034848Y023524D01*
X034848Y023642D01*
X034803Y023750D01*
X034720Y023833D01*
X034612Y023878D01*
X034555Y023878D01*
X033940Y024493D01*
X033766Y024493D01*
X030866Y024493D01*
X030851Y024478D01*
X030795Y024478D01*
X030686Y024433D01*
X030603Y024350D01*
X030558Y024242D01*
X030558Y024124D01*
X030603Y024016D01*
X030636Y023983D01*
X030603Y023950D01*
X030558Y023842D01*
X030558Y023724D01*
X030603Y023616D01*
X030686Y023533D01*
X030795Y023488D01*
X030912Y023488D01*
X031020Y023533D01*
X031103Y023616D01*
X031148Y023724D01*
X031148Y023781D01*
X031240Y023873D01*
X033171Y023873D01*
X033158Y023842D01*
X033158Y023778D01*
X033095Y023778D01*
X032986Y023733D01*
X032946Y023693D01*
X032090Y023693D01*
X031916Y023693D01*
X031116Y022893D01*
X028990Y022893D01*
X028816Y022893D01*
X027816Y021893D01*
X024678Y021893D01*
X024680Y021894D01*
X024792Y022006D01*
X024853Y022153D01*
X024853Y022313D01*
X024792Y022460D01*
X024680Y022572D01*
X024533Y022633D01*
X024374Y022633D01*
X024227Y022572D01*
X024114Y022460D01*
X024053Y022313D01*
X024053Y022153D01*
X024114Y022006D01*
X024227Y021894D01*
X024229Y021893D01*
X023063Y021893D01*
X023063Y022370D01*
X022940Y022493D01*
X022848Y022585D01*
X022848Y022642D01*
X022803Y022750D01*
X022720Y022833D01*
X022612Y022878D01*
X022495Y022878D01*
X022386Y022833D01*
X022303Y022750D01*
X022273Y022678D01*
X022273Y024519D01*
X022273Y027363D01*
X022717Y027363D01*
X022835Y027412D01*
X022925Y027502D01*
X023886Y028463D01*
X029621Y028463D01*
X029733Y028350D01*
X029733Y028247D01*
X029733Y028119D01*
X029782Y028002D01*
X029991Y027793D01*
X027861Y027793D01*
X027820Y027833D01*
X027712Y027878D01*
X027595Y027878D01*
X027486Y027833D01*
X027403Y027750D01*
X027358Y027642D01*
X027358Y027524D01*
X027403Y027416D01*
X027426Y027393D01*
X026161Y027393D01*
X026120Y027433D01*
X026012Y027478D01*
X025895Y027478D01*
X025786Y027433D01*
X025703Y027350D01*
X025658Y027242D01*
X025658Y027124D01*
X025703Y027016D01*
X025786Y026933D01*
X025895Y026888D01*
X026012Y026888D01*
X026120Y026933D01*
X026161Y026973D01*
X028183Y026973D01*
X028086Y026933D01*
X028046Y026893D01*
X027640Y026893D01*
X027466Y026893D01*
X027451Y026878D01*
X027395Y026878D01*
X027286Y026833D01*
X027203Y026750D01*
X027158Y026642D01*
X027158Y026524D01*
X027203Y026416D01*
X027226Y026393D01*
X025940Y026393D01*
X025748Y026585D01*
X025748Y026642D01*
X025703Y026750D01*
X025620Y026833D01*
X025512Y026878D01*
X025395Y026878D01*
X025286Y026833D01*
X025203Y026750D01*
X025120Y026833D01*
X025012Y026878D01*
X024895Y026878D01*
X024786Y026833D01*
X024703Y026750D01*
X024620Y026833D01*
X024512Y026878D01*
X024395Y026878D01*
X024286Y026833D01*
X024203Y026750D01*
X024158Y026642D01*
X024158Y026524D01*
X024203Y026416D01*
X024286Y026333D01*
X024395Y026288D01*
X024451Y026288D01*
X025096Y025643D01*
X023461Y025643D01*
X023420Y025683D01*
X023312Y025728D01*
X023195Y025728D01*
X023086Y025683D01*
X023003Y025600D01*
X022958Y025492D01*
X022958Y025374D01*
X023003Y025266D01*
X023086Y025183D01*
X023195Y025138D01*
X023312Y025138D01*
X023420Y025183D01*
X023461Y025223D01*
X026496Y025223D01*
X026451Y025178D01*
X026395Y025178D01*
X026286Y025133D01*
X026203Y025050D01*
X026158Y024942D01*
X026158Y024824D01*
X026203Y024716D01*
X026286Y024633D01*
X026395Y024588D01*
X026512Y024588D01*
X026620Y024633D01*
X026703Y024716D01*
X026748Y024824D01*
X026748Y024873D01*
X028046Y024873D01*
X028086Y024833D01*
X028195Y024788D01*
X028312Y024788D01*
X028420Y024833D01*
X028461Y024873D01*
X033266Y024873D01*
X033440Y024873D01*
X033540Y024973D01*
X033946Y024973D01*
X033986Y024933D01*
X034095Y024888D01*
X034212Y024888D01*
X034320Y024933D01*
X034403Y025016D01*
X034448Y025124D01*
X034448Y025242D01*
X034403Y025350D01*
X034320Y025433D01*
X034212Y025478D01*
X034095Y025478D01*
X033986Y025433D01*
X033946Y025393D01*
X033548Y025393D01*
X033548Y025442D01*
X033503Y025550D01*
X033420Y025633D01*
X033312Y025678D01*
X033195Y025678D01*
X033110Y025643D01*
X032030Y025643D01*
X032103Y025716D01*
X032148Y025824D01*
X032148Y025942D01*
X032103Y026050D01*
X032020Y026133D01*
X031912Y026178D01*
X031795Y026178D01*
X031686Y026133D01*
X031646Y026093D01*
X031335Y026093D01*
X031348Y026124D01*
X031348Y026242D01*
X031335Y026273D01*
X031866Y026273D01*
X032040Y026273D01*
X032455Y026688D01*
X032512Y026688D01*
X032620Y026733D01*
X032703Y026816D01*
X032748Y026924D01*
X032748Y026991D01*
X033066Y026673D01*
X033240Y026673D01*
X034246Y026673D01*
X034286Y026633D01*
X034395Y026588D01*
X034512Y026588D01*
X034620Y026633D01*
X034703Y026716D01*
X034748Y026824D01*
X034748Y026942D01*
X034703Y027050D01*
X034620Y027133D01*
X034512Y027178D01*
X034395Y027178D01*
X034286Y027133D01*
X034246Y027093D01*
X034135Y027093D01*
X034148Y027124D01*
X034148Y027242D01*
X037343Y027242D01*
X037343Y027164D02*
X034546Y027164D01*
X034668Y027085D02*
X037343Y027085D01*
X037343Y027007D02*
X034721Y027007D01*
X034748Y026928D02*
X037343Y026928D01*
X037343Y026850D02*
X034748Y026850D01*
X034726Y026771D02*
X037343Y026771D01*
X037343Y026692D02*
X034680Y026692D01*
X034575Y026614D02*
X037343Y026614D01*
X037343Y026535D02*
X032303Y026535D01*
X032224Y026457D02*
X037343Y026457D01*
X037343Y026378D02*
X032146Y026378D01*
X032067Y026300D02*
X036153Y026300D01*
X036091Y026221D02*
X031348Y026221D01*
X031348Y026143D02*
X031709Y026143D01*
X031997Y026143D02*
X036059Y026143D01*
X036058Y026064D02*
X032089Y026064D01*
X032130Y025986D02*
X036074Y025986D01*
X036112Y025907D02*
X032148Y025907D01*
X032148Y025828D02*
X036143Y025828D01*
X036143Y025750D02*
X032118Y025750D01*
X032059Y025671D02*
X033179Y025671D01*
X033328Y025671D02*
X036143Y025671D01*
X036143Y025593D02*
X033461Y025593D01*
X033518Y025514D02*
X036143Y025514D01*
X036143Y025436D02*
X034314Y025436D01*
X034396Y025357D02*
X036143Y025357D01*
X036143Y025279D02*
X034433Y025279D01*
X034448Y025200D02*
X036143Y025200D01*
X036143Y025122D02*
X034447Y025122D01*
X034415Y025043D02*
X036143Y025043D01*
X036143Y024964D02*
X034352Y024964D01*
X033955Y024964D02*
X033532Y024964D01*
X033453Y024886D02*
X036143Y024886D01*
X036143Y024807D02*
X028359Y024807D01*
X028148Y024807D02*
X026741Y024807D01*
X026709Y024729D02*
X027782Y024729D01*
X027786Y024733D02*
X027703Y024650D01*
X027658Y024542D01*
X027658Y024424D01*
X027703Y024316D01*
X027786Y024233D01*
X027895Y024188D01*
X028012Y024188D01*
X028120Y024233D01*
X028161Y024273D01*
X029166Y024273D01*
X029243Y024196D01*
X029243Y024170D01*
X029243Y023996D01*
X029258Y023981D01*
X029258Y023924D01*
X029303Y023816D01*
X029386Y023733D01*
X029495Y023688D01*
X029612Y023688D01*
X029720Y023733D01*
X029803Y023816D01*
X029848Y023924D01*
X029848Y024042D01*
X029803Y024150D01*
X029720Y024233D01*
X029663Y024257D01*
X029663Y024370D01*
X029540Y024493D01*
X036143Y024493D01*
X036143Y024572D02*
X029462Y024572D01*
X029463Y024570D02*
X029340Y024693D01*
X028161Y024693D01*
X028120Y024733D01*
X028012Y024778D01*
X027895Y024778D01*
X027786Y024733D01*
X027704Y024650D02*
X026638Y024650D01*
X026269Y024650D02*
X022273Y024650D01*
X022273Y024572D02*
X027671Y024572D01*
X027658Y024493D02*
X024629Y024493D01*
X024680Y024472D02*
X024533Y024533D01*
X024374Y024533D01*
X024227Y024472D01*
X024114Y024360D01*
X024053Y024213D01*
X024053Y024053D01*
X024114Y023906D01*
X024227Y023794D01*
X024374Y023733D01*
X024533Y023733D01*
X024680Y023794D01*
X024792Y023906D01*
X024853Y024053D01*
X024853Y024213D01*
X024792Y024360D01*
X024680Y024472D01*
X024737Y024415D02*
X027662Y024415D01*
X027695Y024336D02*
X024802Y024336D01*
X024835Y024258D02*
X027762Y024258D01*
X028145Y024258D02*
X029182Y024258D01*
X029243Y024179D02*
X024853Y024179D01*
X024853Y024101D02*
X029243Y024101D01*
X029243Y024022D02*
X024840Y024022D01*
X024808Y023943D02*
X029258Y023943D01*
X029283Y023865D02*
X024751Y023865D01*
X024662Y023786D02*
X029333Y023786D01*
X029447Y023708D02*
X022273Y023708D01*
X022273Y023786D02*
X024245Y023786D01*
X024156Y023865D02*
X022273Y023865D01*
X022273Y023943D02*
X024099Y023943D01*
X024066Y024022D02*
X022273Y024022D01*
X022273Y024101D02*
X024053Y024101D01*
X024053Y024179D02*
X022273Y024179D01*
X022273Y024258D02*
X024072Y024258D01*
X024105Y024336D02*
X022273Y024336D01*
X022273Y024415D02*
X024169Y024415D01*
X024278Y024493D02*
X022273Y024493D01*
X022273Y024729D02*
X026198Y024729D01*
X026165Y024807D02*
X022273Y024807D01*
X022273Y024886D02*
X026158Y024886D01*
X026168Y024964D02*
X022273Y024964D01*
X022273Y025043D02*
X026200Y025043D01*
X026275Y025122D02*
X022273Y025122D01*
X022273Y025200D02*
X023069Y025200D01*
X022998Y025279D02*
X022273Y025279D01*
X022273Y025357D02*
X022965Y025357D01*
X022958Y025436D02*
X022273Y025436D01*
X022273Y025514D02*
X022968Y025514D01*
X023000Y025593D02*
X022273Y025593D01*
X022273Y025671D02*
X023075Y025671D01*
X023432Y025671D02*
X025068Y025671D01*
X024989Y025750D02*
X022273Y025750D01*
X022273Y025828D02*
X024911Y025828D01*
X024832Y025907D02*
X022273Y025907D01*
X022273Y025986D02*
X024754Y025986D01*
X024675Y026064D02*
X022273Y026064D01*
X022273Y026143D02*
X024597Y026143D01*
X024518Y026221D02*
X022273Y026221D01*
X022273Y026300D02*
X024366Y026300D01*
X024241Y026378D02*
X022273Y026378D01*
X022273Y026457D02*
X024186Y026457D01*
X024158Y026535D02*
X022273Y026535D01*
X022273Y026614D02*
X024158Y026614D01*
X024179Y026692D02*
X022273Y026692D01*
X022273Y026771D02*
X024224Y026771D01*
X024326Y026850D02*
X022273Y026850D01*
X022273Y026928D02*
X025798Y026928D01*
X025713Y027007D02*
X022273Y027007D01*
X022273Y027085D02*
X025675Y027085D01*
X025658Y027164D02*
X022273Y027164D01*
X022273Y027242D02*
X025659Y027242D01*
X025691Y027321D02*
X022273Y027321D01*
X022805Y027399D02*
X025753Y027399D01*
X025895Y027478D02*
X022901Y027478D01*
X022979Y027556D02*
X027358Y027556D01*
X027358Y027635D02*
X023058Y027635D01*
X023136Y027714D02*
X027388Y027714D01*
X027445Y027792D02*
X023215Y027792D01*
X023294Y027871D02*
X027577Y027871D01*
X027730Y027871D02*
X029913Y027871D01*
X029835Y027949D02*
X023372Y027949D01*
X023451Y028028D02*
X029771Y028028D01*
X029739Y028106D02*
X023529Y028106D01*
X023608Y028185D02*
X029733Y028185D01*
X029733Y028263D02*
X023686Y028263D01*
X023765Y028342D02*
X029733Y028342D01*
X029663Y028420D02*
X023843Y028420D01*
X022938Y028420D02*
X022169Y028420D01*
X022234Y028342D02*
X022860Y028342D01*
X022781Y028263D02*
X022266Y028263D01*
X022273Y028185D02*
X022703Y028185D01*
X022624Y028106D02*
X022273Y028106D01*
X022273Y028028D02*
X022546Y028028D01*
X021453Y029206D02*
X026513Y029206D01*
X026475Y029284D02*
X021453Y029284D01*
X021453Y029363D02*
X026458Y029363D01*
X026458Y029441D02*
X021453Y029441D01*
X021453Y029520D02*
X026491Y029520D01*
X026552Y029599D02*
X021453Y029599D01*
X021453Y029677D02*
X021862Y029677D01*
X021784Y029756D02*
X021453Y029756D01*
X021453Y029834D02*
X021743Y029834D01*
X021743Y029913D02*
X021453Y029913D01*
X021453Y029991D02*
X021743Y029991D01*
X021743Y030070D02*
X021453Y030070D01*
X021453Y030148D02*
X021743Y030148D01*
X021743Y030227D02*
X021453Y030227D01*
X021453Y030305D02*
X021743Y030305D01*
X021743Y030384D02*
X021453Y030384D01*
X021453Y030463D02*
X021743Y030463D01*
X021743Y030541D02*
X021453Y030541D01*
X021453Y030620D02*
X021743Y030620D01*
X021743Y030698D02*
X021453Y030698D01*
X021453Y030777D02*
X021743Y030777D01*
X021743Y030855D02*
X021453Y030855D01*
X021453Y030934D02*
X021743Y030934D01*
X021743Y031012D02*
X021453Y031012D01*
X021453Y031091D02*
X021743Y031091D01*
X021743Y031169D02*
X021453Y031169D01*
X021453Y031405D02*
X023943Y031405D01*
X023943Y031484D02*
X021453Y031484D01*
X021453Y031562D02*
X023943Y031562D01*
X023985Y031641D02*
X021453Y031641D01*
X021453Y031719D02*
X024020Y031719D01*
X024017Y031721D02*
X024049Y031703D01*
X024085Y031693D01*
X024413Y031693D01*
X024413Y032143D01*
X023963Y032143D01*
X023963Y031815D01*
X023973Y031779D01*
X023991Y031747D01*
X024017Y031721D01*
X023968Y031798D02*
X021453Y031798D01*
X021453Y031876D02*
X023963Y031876D01*
X023963Y031955D02*
X021453Y031955D01*
X021453Y032033D02*
X023963Y032033D01*
X023963Y032112D02*
X021453Y032112D01*
X021453Y032190D02*
X024413Y032190D01*
X024413Y032223D02*
X024413Y032143D01*
X024493Y032143D01*
X024493Y031693D01*
X024822Y031693D01*
X024857Y031703D01*
X024889Y031721D01*
X024915Y031747D01*
X024934Y031779D01*
X024943Y031815D01*
X024943Y032143D01*
X024494Y032143D01*
X024494Y032223D01*
X024943Y032223D01*
X024943Y032551D01*
X024934Y032587D01*
X024915Y032619D01*
X024889Y032645D01*
X024857Y032663D01*
X024822Y032673D01*
X024493Y032673D01*
X024493Y032223D01*
X024413Y032223D01*
X023963Y032223D01*
X023963Y032551D01*
X023973Y032587D01*
X023991Y032619D01*
X024017Y032645D01*
X024049Y032663D01*
X024085Y032673D01*
X024413Y032673D01*
X024413Y032223D01*
X024413Y032269D02*
X024493Y032269D01*
X024493Y032348D02*
X024413Y032348D01*
X024413Y032426D02*
X024493Y032426D01*
X024493Y032505D02*
X024413Y032505D01*
X024413Y032583D02*
X024493Y032583D01*
X024493Y032662D02*
X024413Y032662D01*
X024046Y032662D02*
X021453Y032662D01*
X021453Y032740D02*
X037563Y032740D01*
X035493Y032662D02*
X035413Y032662D01*
X035413Y032583D02*
X035493Y032583D01*
X035493Y032505D02*
X035413Y032505D01*
X035413Y032426D02*
X035493Y032426D01*
X035493Y032348D02*
X035413Y032348D01*
X035413Y032269D02*
X035493Y032269D01*
X035493Y032033D02*
X035413Y032033D01*
X035413Y031955D02*
X035493Y031955D01*
X035493Y031876D02*
X035413Y031876D01*
X035413Y031798D02*
X035493Y031798D01*
X035493Y031719D02*
X035413Y031719D01*
X037563Y028240D02*
X037563Y027770D01*
X037440Y027893D01*
X037266Y027893D01*
X033661Y027893D01*
X033620Y027933D01*
X033548Y027963D01*
X037217Y027963D01*
X037335Y028012D01*
X037425Y028102D01*
X037563Y028240D01*
X037563Y028185D02*
X037508Y028185D01*
X037563Y028106D02*
X037429Y028106D01*
X037351Y028028D02*
X037563Y028028D01*
X037563Y027949D02*
X033582Y027949D01*
X033158Y027680D02*
X033158Y027624D01*
X033203Y027516D01*
X033286Y027433D01*
X033383Y027393D01*
X033290Y027393D01*
X033020Y027663D01*
X033117Y027663D01*
X033158Y027680D01*
X033158Y027635D02*
X033048Y027635D01*
X033127Y027556D02*
X033186Y027556D01*
X033205Y027478D02*
X033241Y027478D01*
X033284Y027399D02*
X033367Y027399D01*
X033524Y027393D02*
X033620Y027433D01*
X033661Y027473D01*
X033783Y027473D01*
X033686Y027433D01*
X033646Y027393D01*
X033524Y027393D01*
X033539Y027399D02*
X033653Y027399D01*
X033924Y027473D02*
X037266Y027473D01*
X037343Y027396D01*
X037343Y015170D01*
X037066Y014893D01*
X033885Y014893D01*
X033886Y014894D01*
X033963Y015081D01*
X033963Y015284D01*
X033886Y015472D01*
X033742Y015615D01*
X033573Y015685D01*
X033603Y015716D01*
X033648Y015824D01*
X033648Y015873D01*
X034271Y015873D01*
X034258Y015842D01*
X034258Y015724D01*
X034303Y015616D01*
X034386Y015533D01*
X034495Y015488D01*
X034612Y015488D01*
X034720Y015533D01*
X034761Y015573D01*
X036246Y015573D01*
X036286Y015533D01*
X036395Y015488D01*
X036512Y015488D01*
X036620Y015533D01*
X036703Y015616D01*
X036748Y015724D01*
X036748Y015842D01*
X036703Y015950D01*
X036620Y016033D01*
X036512Y016078D01*
X036395Y016078D01*
X036286Y016033D01*
X036246Y015993D01*
X035824Y015993D01*
X035920Y016033D01*
X036003Y016116D01*
X036048Y016224D01*
X036048Y016342D01*
X036003Y016450D01*
X035920Y016533D01*
X035812Y016578D01*
X035695Y016578D01*
X035586Y016533D01*
X035503Y016450D01*
X035458Y016342D01*
X035458Y016293D01*
X034835Y016293D01*
X034848Y016324D01*
X034848Y016442D01*
X034803Y016550D01*
X034720Y016633D01*
X034612Y016678D01*
X034495Y016678D01*
X034386Y016633D01*
X034346Y016593D01*
X033961Y016593D01*
X033920Y016633D01*
X033812Y016678D01*
X033695Y016678D01*
X033586Y016633D01*
X033546Y016593D01*
X032861Y016593D01*
X032820Y016633D01*
X032712Y016678D01*
X032595Y016678D01*
X032486Y016633D01*
X032403Y016550D01*
X032358Y016442D01*
X032358Y016393D01*
X031560Y016393D01*
X031663Y016496D01*
X031663Y016696D01*
X031663Y016870D01*
X031648Y016885D01*
X031648Y016942D01*
X031603Y017050D01*
X031520Y017133D01*
X031424Y017173D01*
X032246Y017173D01*
X032286Y017133D01*
X032395Y017088D01*
X032451Y017088D01*
X032666Y016873D01*
X032840Y016873D01*
X035546Y016873D01*
X035586Y016833D01*
X035695Y016788D01*
X035812Y016788D01*
X035920Y016833D01*
X036003Y016916D01*
X036048Y017024D01*
X036048Y017142D01*
X036003Y017250D01*
X035920Y017333D01*
X035812Y017378D01*
X035695Y017378D01*
X035586Y017333D01*
X035546Y017293D01*
X033435Y017293D01*
X033448Y017324D01*
X033448Y017442D01*
X033403Y017550D01*
X033320Y017633D01*
X033212Y017678D01*
X033155Y017678D01*
X032940Y017893D01*
X032766Y017893D01*
X031461Y017893D01*
X031421Y017933D01*
X031503Y018016D01*
X031548Y018124D01*
X031548Y018242D01*
X031503Y018350D01*
X031420Y018433D01*
X031312Y018478D01*
X031195Y018478D01*
X031086Y018433D01*
X031046Y018393D01*
X029940Y018393D01*
X029766Y018393D01*
X029051Y017678D01*
X028995Y017678D01*
X028886Y017633D01*
X028803Y017550D01*
X028758Y017442D01*
X028758Y017324D01*
X028771Y017293D01*
X027340Y017293D01*
X027240Y017393D01*
X027066Y017393D01*
X026666Y017393D01*
X026566Y017293D01*
X022761Y017293D01*
X022720Y017333D01*
X022612Y017378D01*
X022495Y017378D01*
X022386Y017333D01*
X022303Y017250D01*
X022273Y017178D01*
X022273Y017189D02*
X022278Y017189D01*
X022273Y017267D02*
X022320Y017267D01*
X022273Y017346D02*
X022417Y017346D01*
X022273Y017424D02*
X028758Y017424D01*
X028758Y017346D02*
X027288Y017346D01*
X027395Y017588D02*
X027512Y017588D01*
X027620Y017633D01*
X027703Y017716D01*
X027748Y017824D01*
X027748Y017942D01*
X027703Y018050D01*
X027620Y018133D01*
X027524Y018173D01*
X028846Y018173D01*
X028886Y018133D01*
X028995Y018088D01*
X029112Y018088D01*
X029220Y018133D01*
X029303Y018216D01*
X029348Y018324D01*
X029348Y018442D01*
X029303Y018550D01*
X029220Y018633D01*
X029112Y018678D01*
X028995Y018678D01*
X028886Y018633D01*
X028846Y018593D01*
X022766Y018593D01*
X022751Y018578D01*
X022695Y018578D01*
X022586Y018533D01*
X022503Y018450D01*
X022458Y018342D01*
X022458Y018224D01*
X022503Y018116D01*
X022586Y018033D01*
X022695Y017988D01*
X022812Y017988D01*
X022920Y018033D01*
X023003Y018116D01*
X023027Y018173D01*
X025783Y018173D01*
X025686Y018133D01*
X025603Y018050D01*
X025558Y017942D01*
X025558Y017824D01*
X025603Y017716D01*
X025686Y017633D01*
X025795Y017588D01*
X025912Y017588D01*
X026020Y017633D01*
X026061Y017673D01*
X027246Y017673D01*
X027286Y017633D01*
X027395Y017588D01*
X027259Y017660D02*
X026048Y017660D01*
X025659Y017660D02*
X022273Y017660D01*
X022273Y017739D02*
X025594Y017739D01*
X025561Y017817D02*
X022273Y017817D01*
X022273Y017896D02*
X025558Y017896D01*
X025572Y017974D02*
X022273Y017974D01*
X022273Y018053D02*
X022566Y018053D01*
X022497Y018131D02*
X022273Y018131D01*
X022273Y018210D02*
X022464Y018210D01*
X022458Y018288D02*
X022273Y018288D01*
X022273Y018367D02*
X022469Y018367D01*
X022501Y018445D02*
X022273Y018445D01*
X022273Y018524D02*
X022577Y018524D01*
X022273Y018602D02*
X028856Y018602D01*
X029251Y018602D02*
X034637Y018602D01*
X034558Y018681D02*
X022273Y018681D01*
X022273Y018760D02*
X025960Y018760D01*
X025986Y018733D02*
X026095Y018688D01*
X026212Y018688D01*
X026320Y018733D01*
X026361Y018773D01*
X027246Y018773D01*
X027286Y018733D01*
X027395Y018688D01*
X027512Y018688D01*
X027620Y018733D01*
X027703Y018816D01*
X027748Y018924D01*
X027748Y019042D01*
X027703Y019150D01*
X027620Y019233D01*
X027512Y019278D01*
X027395Y019278D01*
X027286Y019233D01*
X027246Y019193D01*
X026361Y019193D01*
X026320Y019233D01*
X026212Y019278D01*
X026095Y019278D01*
X025986Y019233D01*
X025903Y019150D01*
X025858Y019042D01*
X025858Y018924D01*
X025903Y018816D01*
X025986Y018733D01*
X025894Y018838D02*
X023161Y018838D01*
X023240Y018917D02*
X025862Y018917D01*
X025858Y018995D02*
X023318Y018995D01*
X023397Y019074D02*
X025872Y019074D01*
X025906Y019152D02*
X023475Y019152D01*
X023554Y019231D02*
X025984Y019231D01*
X026323Y019231D02*
X027284Y019231D01*
X027623Y019231D02*
X032791Y019231D01*
X032710Y019309D02*
X023632Y019309D01*
X023198Y019781D02*
X022273Y019781D01*
X022273Y019859D02*
X023277Y019859D01*
X023356Y019938D02*
X022273Y019938D01*
X022273Y020016D02*
X031034Y020016D01*
X031043Y020095D02*
X022273Y020095D01*
X022273Y020173D02*
X031043Y020173D01*
X031081Y020252D02*
X022273Y020252D01*
X022273Y020330D02*
X031160Y020330D01*
X031238Y020409D02*
X022273Y020409D01*
X022273Y020488D02*
X031317Y020488D01*
X031395Y020566D02*
X022273Y020566D01*
X022273Y020645D02*
X028995Y020645D01*
X028916Y020723D02*
X022273Y020723D01*
X022273Y020802D02*
X028838Y020802D01*
X028759Y020880D02*
X022273Y020880D01*
X022273Y020959D02*
X028560Y020959D01*
X028494Y021037D02*
X022273Y021037D01*
X022273Y021116D02*
X028462Y021116D01*
X028458Y021194D02*
X022273Y021194D01*
X022273Y021273D02*
X028471Y021273D01*
X028505Y021351D02*
X028219Y021351D01*
X028297Y021430D02*
X028583Y021430D01*
X028454Y021587D02*
X031532Y021587D01*
X031483Y021666D02*
X028533Y021666D01*
X028612Y021744D02*
X031458Y021744D01*
X031458Y021823D02*
X028690Y021823D01*
X028769Y021901D02*
X031483Y021901D01*
X031533Y021980D02*
X028847Y021980D01*
X028926Y022058D02*
X031647Y022058D01*
X031859Y022058D02*
X036086Y022058D01*
X036058Y022137D02*
X029004Y022137D01*
X029083Y022215D02*
X036058Y022215D01*
X036080Y022294D02*
X031461Y022294D01*
X031540Y022373D02*
X036126Y022373D01*
X036143Y022451D02*
X031618Y022451D01*
X031563Y022396D02*
X031563Y022396D01*
X031697Y022530D02*
X036143Y022530D01*
X036143Y022608D02*
X031776Y022608D01*
X031854Y022687D02*
X036143Y022687D01*
X036143Y022765D02*
X031933Y022765D01*
X032011Y022844D02*
X036143Y022844D01*
X036143Y022922D02*
X035495Y022922D01*
X035588Y023001D02*
X036118Y023001D01*
X036077Y023079D02*
X035630Y023079D01*
X035648Y023158D02*
X036058Y023158D01*
X036058Y023237D02*
X035648Y023237D01*
X035618Y023315D02*
X036089Y023315D01*
X036143Y023394D02*
X035560Y023394D01*
X035426Y023472D02*
X036143Y023472D01*
X036143Y023551D02*
X034848Y023551D01*
X034848Y023629D02*
X036143Y023629D01*
X036143Y023708D02*
X034821Y023708D01*
X034767Y023786D02*
X036143Y023786D01*
X036143Y023865D02*
X034644Y023865D01*
X034490Y023943D02*
X036143Y023943D01*
X036143Y024022D02*
X034411Y024022D01*
X034333Y024101D02*
X036119Y024101D01*
X036077Y024179D02*
X034254Y024179D01*
X034176Y024258D02*
X036058Y024258D01*
X036058Y024336D02*
X034097Y024336D01*
X034019Y024415D02*
X036089Y024415D01*
X036143Y024650D02*
X029383Y024650D01*
X029463Y024570D02*
X029463Y024570D01*
X029540Y024493D01*
X029540Y024493D01*
X029619Y024415D02*
X030668Y024415D01*
X030598Y024336D02*
X029663Y024336D01*
X029663Y024258D02*
X030565Y024258D01*
X030558Y024179D02*
X029774Y024179D01*
X029824Y024101D02*
X030568Y024101D01*
X030601Y024022D02*
X029848Y024022D01*
X029848Y023943D02*
X030601Y023943D01*
X030568Y023865D02*
X029824Y023865D01*
X029774Y023786D02*
X030558Y023786D01*
X030565Y023708D02*
X029660Y023708D01*
X030598Y023629D02*
X022273Y023629D01*
X022273Y023551D02*
X030668Y023551D01*
X031038Y023551D02*
X031774Y023551D01*
X031853Y023629D02*
X031109Y023629D01*
X031141Y023708D02*
X032961Y023708D01*
X033158Y023786D02*
X031154Y023786D01*
X031232Y023865D02*
X033168Y023865D01*
X033663Y023551D02*
X033843Y023551D01*
X033867Y023472D02*
X033663Y023472D01*
X033663Y023394D02*
X033946Y023394D01*
X034024Y023315D02*
X033663Y023315D01*
X033604Y023237D02*
X034103Y023237D01*
X034181Y023158D02*
X033525Y023158D01*
X033447Y023079D02*
X034260Y023079D01*
X034338Y023001D02*
X033368Y023001D01*
X033709Y023629D02*
X033810Y023629D01*
X034781Y023394D02*
X035147Y023394D01*
X035281Y023472D02*
X034827Y023472D01*
X035212Y022922D02*
X032090Y022922D01*
X031617Y023394D02*
X022273Y023394D01*
X022273Y023472D02*
X031696Y023472D01*
X031539Y023315D02*
X022273Y023315D01*
X022273Y023237D02*
X031460Y023237D01*
X031381Y023158D02*
X022273Y023158D01*
X022273Y023079D02*
X031303Y023079D01*
X031224Y023001D02*
X022273Y023001D01*
X022273Y022922D02*
X031146Y022922D01*
X031645Y021509D02*
X028376Y021509D01*
X028923Y021430D02*
X032083Y021430D01*
X032005Y021351D02*
X029002Y021351D01*
X029035Y021273D02*
X031971Y021273D01*
X031958Y021194D02*
X029048Y021194D01*
X029117Y021116D02*
X031962Y021116D01*
X031994Y021037D02*
X029196Y021037D01*
X027982Y022058D02*
X024814Y022058D01*
X024846Y022137D02*
X028060Y022137D01*
X028139Y022215D02*
X024853Y022215D01*
X024853Y022294D02*
X028217Y022294D01*
X028296Y022373D02*
X024829Y022373D01*
X024796Y022451D02*
X028375Y022451D01*
X028453Y022530D02*
X024722Y022530D01*
X024593Y022608D02*
X028532Y022608D01*
X028610Y022687D02*
X022830Y022687D01*
X022848Y022608D02*
X024314Y022608D01*
X024184Y022530D02*
X022904Y022530D01*
X022982Y022451D02*
X024111Y022451D01*
X024078Y022373D02*
X023061Y022373D01*
X023063Y022294D02*
X024053Y022294D01*
X024053Y022215D02*
X023063Y022215D01*
X023063Y022137D02*
X024060Y022137D01*
X024093Y022058D02*
X023063Y022058D01*
X023063Y021980D02*
X024141Y021980D01*
X024219Y021901D02*
X023063Y021901D01*
X022609Y021430D02*
X022273Y021430D01*
X022273Y021351D02*
X022688Y021351D01*
X022531Y021509D02*
X022273Y021509D01*
X022273Y021587D02*
X022452Y021587D01*
X022374Y021666D02*
X022273Y021666D01*
X022273Y021744D02*
X022343Y021744D01*
X022343Y021823D02*
X022273Y021823D01*
X022273Y021901D02*
X022318Y021901D01*
X022277Y021980D02*
X022273Y021980D01*
X022273Y022178D02*
X022273Y022488D01*
X022303Y022416D01*
X022386Y022333D01*
X022303Y022250D01*
X022273Y022178D01*
X022273Y022215D02*
X022289Y022215D01*
X022273Y022294D02*
X022347Y022294D01*
X022347Y022373D02*
X022273Y022373D01*
X022273Y022451D02*
X022289Y022451D01*
X022273Y022687D02*
X022277Y022687D01*
X022273Y022765D02*
X022319Y022765D01*
X022273Y022844D02*
X022412Y022844D01*
X022694Y022844D02*
X028767Y022844D01*
X028689Y022765D02*
X022788Y022765D01*
X024687Y021901D02*
X027825Y021901D01*
X027903Y021980D02*
X024766Y021980D01*
X023120Y019702D02*
X022273Y019702D01*
X022273Y019624D02*
X023041Y019624D01*
X022963Y019545D02*
X022273Y019545D01*
X022273Y019466D02*
X022884Y019466D01*
X023010Y018131D02*
X025684Y018131D01*
X025606Y018053D02*
X022940Y018053D01*
X022273Y017581D02*
X028835Y017581D01*
X028784Y017503D02*
X022273Y017503D01*
X022690Y017346D02*
X026619Y017346D01*
X026670Y016796D02*
X022631Y016796D01*
X025924Y018173D02*
X027383Y018173D01*
X027286Y018133D01*
X027246Y018093D01*
X026061Y018093D01*
X026020Y018133D01*
X025924Y018173D01*
X026022Y018131D02*
X027284Y018131D01*
X027622Y018131D02*
X028890Y018131D01*
X029216Y018131D02*
X029505Y018131D01*
X029583Y018210D02*
X029297Y018210D01*
X029333Y018288D02*
X029662Y018288D01*
X029740Y018367D02*
X029348Y018367D01*
X029347Y018445D02*
X031116Y018445D01*
X031391Y018445D02*
X037343Y018445D01*
X037343Y018367D02*
X031487Y018367D01*
X031529Y018288D02*
X037343Y018288D01*
X037343Y018210D02*
X031548Y018210D01*
X031548Y018131D02*
X037343Y018131D01*
X037343Y018053D02*
X031519Y018053D01*
X031462Y017974D02*
X037343Y017974D01*
X037343Y017896D02*
X031458Y017896D01*
X031086Y017933D02*
X031003Y017850D01*
X030958Y017742D01*
X030958Y017624D01*
X030971Y017593D01*
X030666Y017593D01*
X030543Y017470D01*
X030366Y017293D01*
X029335Y017293D01*
X029348Y017324D01*
X029348Y017381D01*
X029940Y017973D01*
X031046Y017973D01*
X031086Y017933D01*
X031049Y017896D02*
X029863Y017896D01*
X029784Y017817D02*
X030990Y017817D01*
X030958Y017739D02*
X029706Y017739D01*
X029627Y017660D02*
X030958Y017660D01*
X030655Y017581D02*
X029549Y017581D01*
X029470Y017503D02*
X030576Y017503D01*
X030498Y017424D02*
X029392Y017424D01*
X029348Y017346D02*
X030419Y017346D01*
X030836Y017168D02*
X030840Y017173D01*
X031283Y017173D01*
X031186Y017133D01*
X031103Y017050D01*
X031073Y016978D01*
X031033Y016978D01*
X031003Y017050D01*
X030920Y017133D01*
X030836Y017168D01*
X030943Y017110D02*
X031163Y017110D01*
X031096Y017032D02*
X031011Y017032D01*
X031543Y017110D02*
X032341Y017110D01*
X032508Y017032D02*
X031611Y017032D01*
X031644Y016953D02*
X032586Y016953D01*
X032665Y016875D02*
X031659Y016875D01*
X031663Y016796D02*
X035675Y016796D01*
X035831Y016796D02*
X037343Y016796D01*
X037343Y016875D02*
X035962Y016875D01*
X036019Y016953D02*
X037343Y016953D01*
X037343Y017032D02*
X036048Y017032D01*
X036048Y017110D02*
X037343Y017110D01*
X037343Y017189D02*
X036029Y017189D01*
X035986Y017267D02*
X037343Y017267D01*
X037343Y017346D02*
X035890Y017346D01*
X035617Y017346D02*
X033448Y017346D01*
X033448Y017424D02*
X037343Y017424D01*
X037343Y017503D02*
X033423Y017503D01*
X033372Y017581D02*
X037343Y017581D01*
X037343Y017660D02*
X033256Y017660D01*
X033095Y017739D02*
X037343Y017739D01*
X037343Y017817D02*
X033016Y017817D01*
X032766Y017473D02*
X032858Y017381D01*
X032858Y017324D01*
X032871Y017293D01*
X032840Y017293D01*
X032748Y017385D01*
X032748Y017442D01*
X032735Y017473D01*
X032766Y017473D01*
X032748Y017424D02*
X032815Y017424D01*
X032788Y017346D02*
X032858Y017346D01*
X032806Y016639D02*
X033600Y016639D01*
X033906Y016639D02*
X034400Y016639D01*
X034706Y016639D02*
X037343Y016639D01*
X037343Y016717D02*
X031663Y016717D01*
X031663Y016639D02*
X032500Y016639D01*
X032414Y016560D02*
X031663Y016560D01*
X031649Y016482D02*
X032375Y016482D01*
X032358Y016403D02*
X031571Y016403D01*
X031786Y015933D02*
X031703Y015850D01*
X031658Y015742D01*
X031658Y015650D01*
X031555Y015693D01*
X031352Y015693D01*
X031164Y015615D01*
X031021Y015472D01*
X030953Y015309D01*
X030886Y015472D01*
X030742Y015615D01*
X030555Y015693D01*
X030352Y015693D01*
X030164Y015615D01*
X030021Y015472D01*
X029953Y015309D01*
X029886Y015472D01*
X029742Y015615D01*
X029555Y015693D01*
X029352Y015693D01*
X029164Y015615D01*
X029163Y015614D01*
X029163Y015896D01*
X029240Y015973D01*
X031883Y015973D01*
X031786Y015933D01*
X031785Y015932D02*
X029199Y015932D01*
X029163Y015853D02*
X031707Y015853D01*
X031672Y015775D02*
X029163Y015775D01*
X029163Y015696D02*
X031658Y015696D01*
X031920Y015388D02*
X031986Y015388D01*
X031953Y015309D01*
X031920Y015388D01*
X031923Y015382D02*
X031984Y015382D01*
X031953Y015057D02*
X032021Y014894D01*
X032022Y014893D01*
X031885Y014893D01*
X031886Y014894D01*
X031953Y015057D01*
X031925Y014989D02*
X031981Y014989D01*
X032014Y014911D02*
X031893Y014911D01*
X031885Y014473D02*
X032022Y014473D01*
X032021Y014472D01*
X031953Y014309D01*
X031886Y014472D01*
X031885Y014473D01*
X031899Y014440D02*
X032008Y014440D01*
X031975Y014361D02*
X031932Y014361D01*
X031949Y014047D02*
X031958Y014047D01*
X031990Y013968D02*
X031916Y013968D01*
X031881Y013890D02*
X032025Y013890D01*
X032104Y013811D02*
X031803Y013811D01*
X031699Y013733D02*
X032208Y013733D01*
X032699Y013733D02*
X033208Y013733D01*
X033104Y013811D02*
X032803Y013811D01*
X032881Y013890D02*
X033025Y013890D01*
X032990Y013968D02*
X032916Y013968D01*
X032949Y014047D02*
X032958Y014047D01*
X032953Y014308D02*
X032886Y014472D01*
X032885Y014473D01*
X033022Y014473D01*
X033021Y014472D01*
X032953Y014308D01*
X032932Y014361D02*
X032975Y014361D01*
X033008Y014440D02*
X032899Y014440D01*
X032885Y014893D02*
X032886Y014894D01*
X032953Y015057D01*
X033021Y014894D01*
X033022Y014893D01*
X032885Y014893D01*
X032893Y014911D02*
X033014Y014911D01*
X032981Y014989D02*
X032925Y014989D01*
X032953Y015309D02*
X032886Y015472D01*
X032785Y015573D01*
X033122Y015573D01*
X033021Y015472D01*
X032953Y015309D01*
X032923Y015382D02*
X032984Y015382D01*
X033016Y015461D02*
X032890Y015461D01*
X032818Y015539D02*
X033089Y015539D01*
X033584Y015696D02*
X034270Y015696D01*
X034258Y015775D02*
X033628Y015775D01*
X033648Y015853D02*
X034263Y015853D01*
X034302Y015618D02*
X033736Y015618D01*
X033818Y015539D02*
X034380Y015539D01*
X034727Y015539D02*
X036280Y015539D01*
X036627Y015539D02*
X037343Y015539D01*
X037343Y015461D02*
X033890Y015461D01*
X033923Y015382D02*
X037343Y015382D01*
X037343Y015304D02*
X033955Y015304D01*
X033963Y015225D02*
X037343Y015225D01*
X037320Y015147D02*
X033963Y015147D01*
X033958Y015068D02*
X037241Y015068D01*
X037163Y014989D02*
X033925Y014989D01*
X033893Y014911D02*
X037084Y014911D01*
X037364Y014597D02*
X037563Y014597D01*
X037563Y014675D02*
X037443Y014675D01*
X037521Y014754D02*
X037563Y014754D01*
X037563Y014518D02*
X037286Y014518D01*
X037563Y014440D02*
X033899Y014440D01*
X033932Y014361D02*
X037563Y014361D01*
X037563Y014283D02*
X033963Y014283D01*
X033963Y014204D02*
X037563Y014204D01*
X037563Y014126D02*
X033963Y014126D01*
X033949Y014047D02*
X037563Y014047D01*
X037563Y013968D02*
X033916Y013968D01*
X033881Y013890D02*
X037563Y013890D01*
X037563Y013811D02*
X033803Y013811D01*
X033699Y013733D02*
X037563Y013733D01*
X037343Y015618D02*
X036704Y015618D01*
X036737Y015696D02*
X037343Y015696D01*
X037343Y015775D02*
X036748Y015775D01*
X036743Y015853D02*
X037343Y015853D01*
X037343Y015932D02*
X036711Y015932D01*
X036643Y016011D02*
X037343Y016011D01*
X037343Y016089D02*
X035977Y016089D01*
X036025Y016168D02*
X037343Y016168D01*
X037343Y016246D02*
X036048Y016246D01*
X036048Y016325D02*
X037343Y016325D01*
X037343Y016403D02*
X036023Y016403D01*
X035972Y016482D02*
X037343Y016482D01*
X037343Y016560D02*
X035855Y016560D01*
X035652Y016560D02*
X034793Y016560D01*
X034832Y016482D02*
X035535Y016482D01*
X035484Y016403D02*
X034848Y016403D01*
X034848Y016325D02*
X035458Y016325D01*
X035866Y016011D02*
X036264Y016011D01*
X036199Y018524D02*
X037343Y018524D01*
X037343Y018602D02*
X036290Y018602D01*
X036330Y018681D02*
X037343Y018681D01*
X037343Y018760D02*
X036348Y018760D01*
X036348Y018838D02*
X037343Y018838D01*
X037343Y018917D02*
X036317Y018917D01*
X036258Y018995D02*
X037343Y018995D01*
X037343Y019074D02*
X036122Y019074D01*
X035985Y019074D02*
X035427Y019074D01*
X035448Y019152D02*
X037343Y019152D01*
X037343Y019231D02*
X035448Y019231D01*
X035420Y019309D02*
X037343Y019309D01*
X037343Y019388D02*
X035366Y019388D01*
X035240Y019466D02*
X037343Y019466D01*
X037343Y019545D02*
X035088Y019545D01*
X035010Y019624D02*
X037343Y019624D01*
X037343Y019702D02*
X034931Y019702D01*
X034853Y019781D02*
X037343Y019781D01*
X037343Y019859D02*
X034774Y019859D01*
X034566Y019473D02*
X034061Y019473D01*
X034020Y019433D01*
X033912Y019388D01*
X033795Y019388D01*
X033742Y019410D01*
X033703Y019316D01*
X033620Y019233D01*
X033536Y019198D01*
X033540Y019193D01*
X034640Y019193D01*
X034763Y019070D01*
X034840Y018993D01*
X034926Y018993D01*
X034903Y019016D01*
X034858Y019124D01*
X034858Y019181D01*
X034566Y019473D01*
X034573Y019466D02*
X034054Y019466D01*
X033733Y019388D02*
X034651Y019388D01*
X034730Y019309D02*
X033697Y019309D01*
X033615Y019231D02*
X034809Y019231D01*
X034858Y019152D02*
X034681Y019152D01*
X034760Y019074D02*
X034879Y019074D01*
X034838Y018995D02*
X034924Y018995D01*
X035383Y018995D02*
X035848Y018995D01*
X035908Y018524D02*
X029314Y018524D01*
X029426Y018053D02*
X027701Y018053D01*
X027735Y017974D02*
X029348Y017974D01*
X029269Y017896D02*
X027748Y017896D01*
X027745Y017817D02*
X029190Y017817D01*
X029112Y017739D02*
X027713Y017739D01*
X027648Y017660D02*
X028951Y017660D01*
X027699Y016639D02*
X027126Y016639D01*
X027171Y015618D02*
X026736Y015618D01*
X026818Y015539D02*
X027088Y015539D01*
X027016Y015461D02*
X026890Y015461D01*
X026923Y015382D02*
X026984Y015382D01*
X026953Y015057D02*
X027021Y014894D01*
X027164Y014751D01*
X027328Y014683D01*
X027164Y014615D01*
X027021Y014472D01*
X026953Y014309D01*
X026886Y014472D01*
X026742Y014615D01*
X026579Y014683D01*
X026742Y014751D01*
X026886Y014894D01*
X026953Y015057D01*
X026925Y014989D02*
X026981Y014989D01*
X027014Y014911D02*
X026893Y014911D01*
X026824Y014832D02*
X027083Y014832D01*
X027161Y014754D02*
X026745Y014754D01*
X026761Y014597D02*
X027146Y014597D01*
X027067Y014518D02*
X026839Y014518D01*
X026899Y014440D02*
X027008Y014440D01*
X026975Y014361D02*
X026932Y014361D01*
X026949Y014047D02*
X026958Y014047D01*
X026990Y013968D02*
X026916Y013968D01*
X026881Y013890D02*
X027025Y013890D01*
X027104Y013811D02*
X026803Y013811D01*
X026699Y013733D02*
X027208Y013733D01*
X027699Y013733D02*
X028208Y013733D01*
X028104Y013811D02*
X027803Y013811D01*
X027881Y013890D02*
X028025Y013890D01*
X027990Y013968D02*
X027916Y013968D01*
X027949Y014047D02*
X027958Y014047D01*
X027953Y014309D02*
X027886Y014472D01*
X027742Y014615D01*
X027579Y014683D01*
X027742Y014751D01*
X027886Y014894D01*
X027953Y015057D01*
X028021Y014894D01*
X028164Y014751D01*
X028328Y014683D01*
X028164Y014615D01*
X028021Y014472D01*
X027953Y014309D01*
X027932Y014361D02*
X027975Y014361D01*
X028008Y014440D02*
X027899Y014440D01*
X027839Y014518D02*
X028067Y014518D01*
X028146Y014597D02*
X027761Y014597D01*
X027745Y014754D02*
X028161Y014754D01*
X028083Y014832D02*
X027824Y014832D01*
X027893Y014911D02*
X028014Y014911D01*
X027981Y014989D02*
X027925Y014989D01*
X027923Y015382D02*
X027984Y015382D01*
X028016Y015461D02*
X027890Y015461D01*
X027818Y015539D02*
X028088Y015539D01*
X028171Y015618D02*
X027736Y015618D01*
X028741Y015853D02*
X028743Y015853D01*
X029163Y015618D02*
X029171Y015618D01*
X029736Y015618D02*
X030171Y015618D01*
X030088Y015539D02*
X029818Y015539D01*
X029890Y015461D02*
X030016Y015461D01*
X029984Y015382D02*
X029923Y015382D01*
X029953Y015057D02*
X030021Y014894D01*
X030164Y014751D01*
X030328Y014683D01*
X030164Y014615D01*
X030021Y014472D01*
X029953Y014309D01*
X029886Y014472D01*
X029742Y014615D01*
X029579Y014683D01*
X029742Y014751D01*
X029886Y014894D01*
X029953Y015057D01*
X029925Y014989D02*
X029981Y014989D01*
X030014Y014911D02*
X029893Y014911D01*
X029824Y014832D02*
X030083Y014832D01*
X030161Y014754D02*
X029745Y014754D01*
X029761Y014597D02*
X030146Y014597D01*
X030067Y014518D02*
X029839Y014518D01*
X029899Y014440D02*
X030008Y014440D01*
X029975Y014361D02*
X029932Y014361D01*
X029949Y014047D02*
X029958Y014047D01*
X029990Y013968D02*
X029916Y013968D01*
X029881Y013890D02*
X030025Y013890D01*
X030104Y013811D02*
X029803Y013811D01*
X029699Y013733D02*
X030208Y013733D01*
X030699Y013733D02*
X031208Y013733D01*
X031104Y013811D02*
X030803Y013811D01*
X030881Y013890D02*
X031025Y013890D01*
X030990Y013968D02*
X030916Y013968D01*
X030949Y014047D02*
X030958Y014047D01*
X030953Y014309D02*
X031008Y014441D01*
X030931Y014363D01*
X030953Y014309D01*
X030932Y014361D02*
X030975Y014361D01*
X031007Y014440D02*
X031008Y014440D01*
X030711Y014738D02*
X030634Y014660D01*
X030579Y014683D01*
X030711Y014738D01*
X030649Y014675D02*
X030597Y014675D01*
X030309Y014675D02*
X029597Y014675D01*
X029328Y014683D02*
X029164Y014615D01*
X029163Y014614D01*
X029163Y014752D01*
X029164Y014751D01*
X029328Y014683D01*
X029309Y014675D02*
X029163Y014675D01*
X029008Y014441D02*
X028953Y014309D01*
X028931Y014363D01*
X029008Y014441D01*
X029007Y014440D02*
X029008Y014440D01*
X028975Y014361D02*
X028932Y014361D01*
X028949Y014047D02*
X028958Y014047D01*
X028990Y013968D02*
X028916Y013968D01*
X028881Y013890D02*
X029025Y013890D01*
X029104Y013811D02*
X028803Y013811D01*
X028699Y013733D02*
X029208Y013733D01*
X028634Y014660D02*
X028579Y014683D01*
X028711Y014738D01*
X028634Y014660D01*
X028649Y014675D02*
X028597Y014675D01*
X028309Y014675D02*
X027597Y014675D01*
X027309Y014675D02*
X026597Y014675D01*
X030736Y015618D02*
X031171Y015618D01*
X031088Y015539D02*
X030818Y015539D01*
X030890Y015461D02*
X031016Y015461D01*
X030984Y015382D02*
X030923Y015382D01*
X030953Y015057D02*
X031021Y014894D01*
X031022Y014893D01*
X030885Y014893D01*
X030886Y014894D01*
X030953Y015057D01*
X030925Y014989D02*
X030981Y014989D01*
X031014Y014911D02*
X030893Y014911D01*
X032560Y015993D02*
X032671Y015993D01*
X032658Y016024D01*
X032658Y016088D01*
X032655Y016088D01*
X032560Y015993D01*
X032578Y016011D02*
X032664Y016011D01*
X033301Y018838D02*
X027713Y018838D01*
X027745Y018917D02*
X033223Y018917D01*
X033144Y018995D02*
X027748Y018995D01*
X027735Y019074D02*
X033066Y019074D01*
X032987Y019152D02*
X027701Y019152D01*
X027647Y018760D02*
X034480Y018760D01*
X034009Y019938D02*
X037343Y019938D01*
X037343Y020016D02*
X033663Y020016D01*
X033663Y019938D02*
X033698Y019938D01*
X033663Y020095D02*
X037343Y020095D01*
X037343Y020173D02*
X034041Y020173D01*
X034119Y020252D02*
X037343Y020252D01*
X037343Y020330D02*
X034198Y020330D01*
X034276Y020409D02*
X037343Y020409D01*
X037343Y020488D02*
X035855Y020488D01*
X035933Y020566D02*
X037343Y020566D01*
X037343Y020645D02*
X036012Y020645D01*
X036090Y020723D02*
X037343Y020723D01*
X037343Y020802D02*
X036169Y020802D01*
X036248Y020880D02*
X037343Y020880D01*
X037343Y020959D02*
X036326Y020959D01*
X036525Y021037D02*
X037343Y021037D01*
X037343Y021273D02*
X036648Y021273D01*
X036648Y021224D02*
X036603Y021116D01*
X036644Y021351D02*
X037343Y021351D01*
X037343Y021430D02*
X036612Y021430D01*
X036563Y021509D02*
X037343Y021509D01*
X037343Y021587D02*
X036563Y021587D01*
X036563Y021666D02*
X037343Y021666D01*
X037343Y021744D02*
X036563Y021744D01*
X036563Y021823D02*
X037343Y021823D01*
X037343Y021901D02*
X036563Y021901D01*
X036567Y021980D02*
X037343Y021980D01*
X037343Y022058D02*
X036621Y022058D01*
X036648Y022137D02*
X037343Y022137D01*
X037343Y022215D02*
X036648Y022215D01*
X036627Y022294D02*
X037343Y022294D01*
X037343Y022373D02*
X036581Y022373D01*
X036563Y022451D02*
X037343Y022451D01*
X037343Y022530D02*
X036563Y022530D01*
X036563Y022608D02*
X037343Y022608D01*
X037343Y022687D02*
X036563Y022687D01*
X036563Y022765D02*
X037343Y022765D01*
X037343Y022844D02*
X036563Y022844D01*
X036563Y022922D02*
X037343Y022922D01*
X037343Y023001D02*
X036588Y023001D01*
X036630Y023079D02*
X037343Y023079D01*
X037343Y023158D02*
X036648Y023158D01*
X036648Y023237D02*
X037343Y023237D01*
X037343Y023315D02*
X036618Y023315D01*
X036563Y023394D02*
X037343Y023394D01*
X037343Y023472D02*
X036563Y023472D01*
X036563Y023551D02*
X037343Y023551D01*
X037343Y023629D02*
X036563Y023629D01*
X036563Y023708D02*
X037343Y023708D01*
X037343Y023786D02*
X036563Y023786D01*
X036563Y023865D02*
X037343Y023865D01*
X037343Y023943D02*
X036563Y023943D01*
X036563Y024022D02*
X037343Y024022D01*
X037343Y024101D02*
X036588Y024101D01*
X036630Y024179D02*
X037343Y024179D01*
X037343Y024258D02*
X036648Y024258D01*
X036648Y024336D02*
X037343Y024336D01*
X037343Y024415D02*
X036618Y024415D01*
X036563Y024493D02*
X037343Y024493D01*
X037343Y024572D02*
X036563Y024572D01*
X036563Y024650D02*
X037343Y024650D01*
X037343Y024729D02*
X036563Y024729D01*
X036563Y024807D02*
X037343Y024807D01*
X037343Y024886D02*
X036563Y024886D01*
X036563Y024964D02*
X037343Y024964D01*
X037343Y025043D02*
X036563Y025043D01*
X036563Y025122D02*
X037343Y025122D01*
X037343Y025200D02*
X036563Y025200D01*
X036563Y025279D02*
X037343Y025279D01*
X037343Y025357D02*
X036563Y025357D01*
X036563Y025436D02*
X037343Y025436D01*
X037343Y025514D02*
X036563Y025514D01*
X036563Y025593D02*
X037343Y025593D01*
X037343Y025671D02*
X036563Y025671D01*
X036563Y025750D02*
X037343Y025750D01*
X037343Y025828D02*
X036563Y025828D01*
X036595Y025907D02*
X037343Y025907D01*
X037343Y025986D02*
X036632Y025986D01*
X036648Y026064D02*
X037343Y026064D01*
X037343Y026143D02*
X036648Y026143D01*
X036615Y026221D02*
X037343Y026221D01*
X037343Y026300D02*
X036554Y026300D01*
X037343Y027321D02*
X034116Y027321D01*
X034103Y027350D02*
X034020Y027433D01*
X033924Y027473D01*
X034054Y027399D02*
X037340Y027399D01*
X037541Y027792D02*
X037563Y027792D01*
X037563Y027871D02*
X037463Y027871D01*
X034360Y027164D02*
X034148Y027164D01*
X034148Y027242D02*
X034103Y027350D01*
X034332Y026614D02*
X032381Y026614D01*
X032523Y026692D02*
X033047Y026692D01*
X032968Y026771D02*
X032659Y026771D01*
X032717Y026850D02*
X032890Y026850D01*
X032811Y026928D02*
X032748Y026928D01*
X032226Y027173D02*
X032203Y027150D01*
X032158Y027042D01*
X032158Y026985D01*
X031866Y026693D01*
X030666Y026693D01*
X030566Y026593D01*
X029148Y026593D01*
X029148Y026642D01*
X029103Y026750D01*
X029020Y026833D01*
X028912Y026878D01*
X028795Y026878D01*
X028686Y026833D01*
X028603Y026750D01*
X028558Y026642D01*
X028558Y026524D01*
X028603Y026416D01*
X028626Y026393D01*
X028324Y026393D01*
X028420Y026433D01*
X028503Y026516D01*
X028548Y026624D01*
X028548Y026742D01*
X028503Y026850D01*
X028420Y026933D01*
X028324Y026973D01*
X028646Y026973D01*
X028686Y026933D01*
X028795Y026888D01*
X028912Y026888D01*
X029020Y026933D01*
X029103Y027016D01*
X029148Y027124D01*
X029148Y027173D01*
X032226Y027173D01*
X032217Y027164D02*
X029148Y027164D01*
X029132Y027085D02*
X032176Y027085D01*
X032158Y027007D02*
X029094Y027007D01*
X029009Y026928D02*
X032101Y026928D01*
X032023Y026850D02*
X028981Y026850D01*
X029083Y026771D02*
X031944Y026771D01*
X031646Y025673D02*
X030840Y025673D01*
X030748Y025673D01*
X030748Y025643D01*
X031676Y025643D01*
X031646Y025673D01*
X031648Y025671D02*
X030748Y025671D01*
X030587Y026614D02*
X029148Y026614D01*
X029127Y026692D02*
X030666Y026692D01*
X028726Y026850D02*
X028504Y026850D01*
X028536Y026771D02*
X028624Y026771D01*
X028579Y026692D02*
X028548Y026692D01*
X028544Y026614D02*
X028558Y026614D01*
X028558Y026535D02*
X028511Y026535D01*
X028444Y026457D02*
X028586Y026457D01*
X028183Y026393D02*
X027680Y026393D01*
X027703Y026416D01*
X027727Y026473D01*
X028046Y026473D01*
X028086Y026433D01*
X028183Y026393D01*
X028062Y026457D02*
X027720Y026457D01*
X027186Y026457D02*
X025876Y026457D01*
X025798Y026535D02*
X027158Y026535D01*
X027158Y026614D02*
X025748Y026614D01*
X025727Y026692D02*
X027179Y026692D01*
X027224Y026771D02*
X025683Y026771D01*
X025581Y026850D02*
X027326Y026850D01*
X027420Y027399D02*
X026154Y027399D01*
X026012Y027478D02*
X027378Y027478D01*
X028081Y026928D02*
X026109Y026928D01*
X025326Y026850D02*
X025081Y026850D01*
X025183Y026771D02*
X025224Y026771D01*
X024826Y026850D02*
X024581Y026850D01*
X024683Y026771D02*
X024724Y026771D01*
X023438Y025200D02*
X026474Y025200D01*
X028125Y024729D02*
X036143Y024729D01*
X033993Y025436D02*
X033548Y025436D01*
X030440Y028499D02*
X030373Y028499D01*
X030361Y028577D02*
X030362Y028577D01*
X029850Y029089D02*
X029817Y029103D01*
X029548Y029103D01*
X029620Y029133D01*
X029703Y029216D01*
X029786Y029133D01*
X029821Y029119D01*
X029850Y029089D01*
X029800Y029127D02*
X029607Y029127D01*
X029693Y029206D02*
X029713Y029206D01*
X029359Y029103D02*
X029048Y029103D01*
X029120Y029133D01*
X029203Y029216D01*
X029286Y029133D01*
X029359Y029103D01*
X029300Y029127D02*
X029107Y029127D01*
X029193Y029206D02*
X029213Y029206D01*
X026542Y029677D02*
X023244Y029677D01*
X023323Y029756D02*
X026487Y029756D01*
X026458Y029834D02*
X023363Y029834D01*
X023363Y029913D02*
X026458Y029913D01*
X026479Y029991D02*
X023363Y029991D01*
X023363Y030070D02*
X026523Y030070D01*
X026571Y030148D02*
X023363Y030148D01*
X023363Y030227D02*
X026499Y030227D01*
X026466Y030305D02*
X023363Y030305D01*
X023363Y030384D02*
X026458Y030384D01*
X026467Y030463D02*
X023363Y030463D01*
X023363Y030541D02*
X026500Y030541D01*
X026291Y030698D02*
X025616Y030698D01*
X025768Y030777D02*
X026138Y030777D01*
X026060Y030855D02*
X025847Y030855D01*
X025902Y030934D02*
X026005Y030934D01*
X025972Y031012D02*
X025935Y031012D01*
X025953Y031309D02*
X025886Y031472D01*
X025742Y031615D01*
X025579Y031683D01*
X025742Y031751D01*
X025886Y031894D01*
X025953Y032057D01*
X026021Y031894D01*
X026164Y031751D01*
X026328Y031683D01*
X026164Y031615D01*
X026021Y031472D01*
X025953Y031309D01*
X025946Y031326D02*
X025961Y031326D01*
X025993Y031405D02*
X025913Y031405D01*
X025874Y031484D02*
X026033Y031484D01*
X026111Y031562D02*
X025795Y031562D01*
X025681Y031641D02*
X026226Y031641D01*
X026240Y031719D02*
X025666Y031719D01*
X025789Y031798D02*
X026117Y031798D01*
X026039Y031876D02*
X025868Y031876D01*
X025911Y031955D02*
X025996Y031955D01*
X025963Y032033D02*
X025943Y032033D01*
X025937Y032348D02*
X025970Y032348D01*
X026002Y032426D02*
X025905Y032426D01*
X025853Y032505D02*
X026054Y032505D01*
X026132Y032583D02*
X025774Y032583D01*
X025630Y032662D02*
X026277Y032662D01*
X025277Y032662D02*
X024860Y032662D01*
X024935Y032583D02*
X025132Y032583D01*
X025054Y032505D02*
X024943Y032505D01*
X024943Y032426D02*
X025002Y032426D01*
X024970Y032348D02*
X024943Y032348D01*
X024943Y032269D02*
X024943Y032269D01*
X024943Y032190D02*
X024494Y032190D01*
X024493Y032112D02*
X024413Y032112D01*
X024413Y032033D02*
X024493Y032033D01*
X024493Y031955D02*
X024413Y031955D01*
X024413Y031876D02*
X024493Y031876D01*
X024493Y031798D02*
X024413Y031798D01*
X024413Y031719D02*
X024493Y031719D01*
X024886Y031719D02*
X025240Y031719D01*
X025226Y031641D02*
X024922Y031641D01*
X024963Y031562D02*
X025111Y031562D01*
X025033Y031484D02*
X024963Y031484D01*
X024963Y031405D02*
X024993Y031405D01*
X024972Y031012D02*
X024963Y031012D01*
X024963Y030934D02*
X025005Y030934D01*
X024963Y030855D02*
X025060Y030855D01*
X025138Y030777D02*
X024963Y030777D01*
X024895Y030698D02*
X025291Y030698D01*
X025117Y031798D02*
X024939Y031798D01*
X024943Y031876D02*
X025039Y031876D01*
X024996Y031955D02*
X024943Y031955D01*
X024943Y032033D02*
X024963Y032033D01*
X024943Y032112D02*
X024943Y032112D01*
X023963Y032269D02*
X021453Y032269D01*
X021453Y032348D02*
X023963Y032348D01*
X023963Y032426D02*
X021453Y032426D01*
X021453Y032505D02*
X023963Y032505D01*
X023972Y032583D02*
X021453Y032583D01*
X028425Y026928D02*
X028698Y026928D01*
X033753Y021980D02*
X036139Y021980D01*
X036143Y021901D02*
X033832Y021901D01*
X033911Y021823D02*
X036143Y021823D01*
X036143Y021744D02*
X033989Y021744D01*
X034068Y021666D02*
X034565Y021666D01*
X034742Y021666D02*
X036143Y021666D01*
X036143Y021587D02*
X034866Y021587D01*
X034921Y021509D02*
X035562Y021509D01*
X035945Y021509D02*
X036143Y021509D01*
X036095Y021430D02*
X036012Y021430D01*
X036044Y021351D02*
X036062Y021351D01*
X035761Y020988D02*
X035748Y020988D01*
X035748Y020975D01*
X035761Y020988D01*
X035103Y021430D02*
X034948Y021430D01*
X034948Y021351D02*
X035025Y021351D01*
X033788Y021351D02*
X032502Y021351D01*
X032423Y021430D02*
X033709Y021430D01*
X033631Y021509D02*
X031862Y021509D01*
X031518Y020095D02*
X033243Y020095D01*
X033243Y020016D02*
X031473Y020016D01*
X031536Y019938D02*
X033243Y019938D01*
X033243Y019859D02*
X031568Y019859D01*
X031573Y019781D02*
X033243Y019781D01*
X033243Y019702D02*
X033151Y019702D01*
X032755Y019702D02*
X031566Y019702D01*
X031534Y019624D02*
X032692Y019624D01*
X032660Y019545D02*
X031468Y019545D01*
X031425Y019502D02*
X031425Y019502D01*
X031389Y019466D02*
X032658Y019466D01*
X032673Y019388D02*
X031277Y019388D01*
X027260Y018760D02*
X026347Y018760D01*
D18*
X026153Y018983D03*
X025853Y017883D03*
X026953Y016883D03*
X027953Y016483D03*
X028553Y016083D03*
X029053Y017383D03*
X029053Y018383D03*
X029253Y019683D03*
X031253Y019783D03*
X031753Y019783D03*
X032953Y019483D03*
X033453Y019483D03*
X033853Y019683D03*
X035153Y019183D03*
X036053Y018783D03*
X036953Y017383D03*
X035753Y017083D03*
X034553Y016383D03*
X034553Y015783D03*
X033753Y016383D03*
X032953Y016083D03*
X032653Y016383D03*
X033353Y015883D03*
X031953Y015683D03*
X031053Y016683D03*
X030753Y016883D03*
X031353Y016883D03*
X031253Y017683D03*
X031253Y018183D03*
X032453Y017383D03*
X033153Y017383D03*
X034253Y017483D03*
X034253Y018483D03*
X033153Y020783D03*
X032753Y020783D03*
X032253Y021183D03*
X031653Y021183D03*
X031753Y021783D03*
X030853Y023083D03*
X030853Y023783D03*
X030853Y024183D03*
X029553Y023983D03*
X027953Y024483D03*
X028253Y025083D03*
X028253Y026683D03*
X028853Y026583D03*
X028853Y027183D03*
X029803Y026783D03*
X031053Y026183D03*
X030453Y025683D03*
X031853Y025883D03*
X033253Y025383D03*
X034153Y025183D03*
X034153Y024683D03*
X033453Y023783D03*
X033153Y023483D03*
X034553Y023583D03*
X035353Y023183D03*
X035253Y022383D03*
X036353Y022183D03*
X036353Y023183D03*
X036353Y024283D03*
X036353Y026083D03*
X036753Y027183D03*
X035553Y027183D03*
X034453Y026883D03*
X033853Y027183D03*
X033453Y027683D03*
X032453Y026983D03*
X031953Y028683D03*
X031453Y029383D03*
X030953Y029383D03*
X030453Y029383D03*
X029953Y029383D03*
X029453Y029383D03*
X028953Y029383D03*
X029553Y028183D03*
X030053Y028183D03*
X027653Y027583D03*
X027453Y026583D03*
X025953Y027183D03*
X025453Y026583D03*
X024953Y026583D03*
X024453Y026583D03*
X023253Y025433D03*
X021953Y024583D03*
X020053Y025483D03*
X018953Y026583D03*
X019253Y027083D03*
X019953Y027283D03*
X019953Y028183D03*
X017953Y028333D03*
X017453Y028833D03*
X016953Y028333D03*
X016953Y029333D03*
X017953Y029333D03*
X018053Y031183D03*
X017653Y031183D03*
X017553Y031683D03*
X016953Y031583D03*
X016353Y031833D03*
X015053Y031383D03*
X015353Y030683D03*
X014053Y031483D03*
X013653Y031483D03*
X013053Y031483D03*
X013653Y030483D03*
X012553Y029983D03*
X013653Y028683D03*
X014553Y028083D03*
X014753Y028483D03*
X014653Y029283D03*
X015053Y027283D03*
X014953Y026383D03*
X015853Y024983D03*
X014953Y023983D03*
X015153Y023283D03*
X015153Y022783D03*
X015153Y022283D03*
X017053Y022283D03*
X018753Y022483D03*
X018753Y021983D03*
X018753Y021483D03*
X018153Y020183D03*
X018753Y018583D03*
X018753Y018083D03*
X018753Y017583D03*
X018753Y017083D03*
X017053Y016083D03*
X016753Y016383D03*
X016803Y014883D03*
X016253Y014883D03*
X014053Y017883D03*
X013553Y017883D03*
X012753Y018983D03*
X012753Y019383D03*
X012753Y019783D03*
X013753Y019883D03*
X014353Y019883D03*
X012753Y021783D03*
X012753Y022183D03*
X012753Y022583D03*
X016953Y023783D03*
X017453Y023983D03*
X018753Y023483D03*
X018753Y022983D03*
X017953Y024883D03*
X017453Y026483D03*
X017053Y026483D03*
X018053Y026683D03*
X021953Y028183D03*
X023853Y027983D03*
X023853Y029483D03*
X023453Y031683D03*
X026753Y030383D03*
X026753Y029883D03*
X026753Y029383D03*
X026453Y024883D03*
X025953Y023983D03*
X025953Y022383D03*
X025353Y020283D03*
X027353Y020283D03*
X028753Y021183D03*
X027453Y018983D03*
X027453Y017883D03*
X023453Y019583D03*
X022453Y020083D03*
X022753Y018283D03*
X022553Y017083D03*
X022553Y016583D03*
X021953Y015683D03*
X023453Y014683D03*
X022553Y022083D03*
X022553Y022583D03*
X023053Y023183D03*
X032453Y029383D03*
X033653Y029183D03*
X035153Y029083D03*
X034653Y021383D03*
X035453Y020983D03*
X035753Y021283D03*
X036353Y021283D03*
X036953Y020683D03*
X035753Y016283D03*
X036453Y015783D03*
X036253Y015283D03*
X036953Y015083D03*
X036953Y015483D03*
X036953Y014283D03*
X036953Y013883D03*
X036253Y014083D03*
X014853Y032483D03*
D19*
X012488Y013583D02*
X012353Y013583D01*
X012353Y013737D01*
X012488Y013602D01*
X012488Y013583D01*
X012415Y013676D02*
X012353Y013676D01*
X012353Y014253D02*
X012353Y018773D01*
X012372Y018728D01*
X012498Y018601D01*
X012664Y018533D01*
X012843Y018533D01*
X013008Y018601D01*
X013135Y018728D01*
X013203Y018893D01*
X013203Y019472D01*
X013203Y019872D01*
X013203Y022623D01*
X013299Y022719D01*
X013574Y022993D01*
X015056Y022993D01*
X015093Y022978D01*
X015214Y022978D01*
X015326Y023024D01*
X015412Y023110D01*
X015458Y023222D01*
X015458Y023344D01*
X015412Y023456D01*
X015326Y023542D01*
X015214Y023588D01*
X015093Y023588D01*
X015056Y023573D01*
X013511Y023573D01*
X013396Y023573D01*
X013343Y023551D01*
X013343Y031386D01*
X013353Y031410D01*
X013395Y031310D01*
X013433Y031272D01*
X013433Y031092D01*
X013562Y030963D01*
X013833Y030692D01*
X013833Y028492D01*
X013962Y028363D01*
X014248Y028077D01*
X014248Y028022D01*
X014295Y027910D01*
X014381Y027824D01*
X014493Y027778D01*
X014614Y027778D01*
X014726Y027824D01*
X014812Y027910D01*
X014858Y028022D01*
X014858Y028144D01*
X014840Y028189D01*
X014926Y028224D01*
X015012Y028310D01*
X015058Y028422D01*
X015058Y028544D01*
X015012Y028656D01*
X014926Y028742D01*
X014814Y028788D01*
X014759Y028788D01*
X014553Y028994D01*
X014593Y028978D01*
X014714Y028978D01*
X014826Y029024D01*
X014865Y029063D01*
X014944Y029063D01*
X015133Y029252D01*
X015133Y027603D01*
X015062Y027603D01*
X015047Y027588D01*
X014993Y027588D01*
X014881Y027542D01*
X014795Y027456D01*
X014748Y027344D01*
X014748Y027222D01*
X014795Y027110D01*
X014881Y027024D01*
X014993Y026978D01*
X015114Y026978D01*
X015208Y027017D01*
X015262Y026963D01*
X015462Y026763D01*
X015644Y026763D01*
X016932Y026763D01*
X016881Y026742D01*
X016795Y026656D01*
X016748Y026544D01*
X016748Y026422D01*
X016795Y026310D01*
X016881Y026224D01*
X016933Y026203D01*
X016933Y024974D01*
X015862Y023903D01*
X015733Y023774D01*
X015733Y017274D01*
X015733Y017092D01*
X016448Y016377D01*
X016448Y016322D01*
X016495Y016210D01*
X016581Y016124D01*
X016693Y016078D01*
X016748Y016078D01*
X016748Y016022D01*
X016795Y015910D01*
X016881Y015824D01*
X016993Y015778D01*
X017114Y015778D01*
X017226Y015824D01*
X017312Y015910D01*
X017358Y016022D01*
X017358Y016144D01*
X017312Y016256D01*
X017273Y016294D01*
X017273Y016574D01*
X017144Y016703D01*
X016373Y017474D01*
X016373Y023492D01*
X017573Y024692D01*
X017573Y024874D01*
X017573Y026203D01*
X017626Y026224D01*
X017712Y026310D01*
X017758Y026422D01*
X017758Y026544D01*
X017712Y026656D01*
X017626Y026742D01*
X017574Y026763D01*
X017662Y026763D01*
X017748Y026677D01*
X017748Y026622D01*
X017795Y026510D01*
X017881Y026424D01*
X017993Y026378D01*
X018114Y026378D01*
X018226Y026424D01*
X018312Y026510D01*
X018358Y026622D01*
X018358Y026744D01*
X018312Y026856D01*
X018226Y026942D01*
X018114Y026988D01*
X018059Y026988D01*
X017844Y027203D01*
X017662Y027203D01*
X015644Y027203D01*
X015573Y027274D01*
X015573Y027292D01*
X015573Y027474D01*
X015573Y030472D01*
X015612Y030510D01*
X015658Y030622D01*
X015658Y030677D01*
X015944Y030963D01*
X017144Y030963D01*
X017273Y031092D01*
X017348Y031167D01*
X017348Y031122D01*
X017395Y031010D01*
X017481Y030924D01*
X017593Y030878D01*
X017714Y030878D01*
X017826Y030924D01*
X017833Y030932D01*
X017833Y030792D01*
X019433Y029192D01*
X019433Y027992D01*
X019562Y027863D01*
X019853Y027572D01*
X019853Y027572D01*
X019781Y027542D01*
X019695Y027456D01*
X019648Y027344D01*
X019648Y027289D01*
X019542Y027183D01*
X019512Y027256D01*
X019426Y027342D01*
X019314Y027388D01*
X019193Y027388D01*
X019081Y027342D01*
X018995Y027256D01*
X018948Y027144D01*
X018948Y027022D01*
X018995Y026910D01*
X019019Y026886D01*
X019014Y026888D01*
X018893Y026888D01*
X018781Y026842D01*
X018695Y026756D01*
X018648Y026644D01*
X018648Y026589D01*
X018562Y026503D01*
X018433Y026374D01*
X018433Y024974D01*
X018433Y024792D01*
X018833Y024392D01*
X018833Y023374D01*
X018747Y023288D01*
X018693Y023288D01*
X018581Y023242D01*
X018495Y023156D01*
X018448Y023044D01*
X018448Y022922D01*
X018495Y022810D01*
X018572Y022733D01*
X018495Y022656D01*
X018448Y022544D01*
X018448Y022422D01*
X018495Y022310D01*
X018572Y022233D01*
X018495Y022156D01*
X018448Y022044D01*
X018448Y021922D01*
X018495Y021810D01*
X018572Y021733D01*
X018495Y021656D01*
X018448Y021544D01*
X018448Y021422D01*
X018495Y021310D01*
X018581Y021224D01*
X018693Y021178D01*
X018814Y021178D01*
X018926Y021224D01*
X019012Y021310D01*
X019058Y021422D01*
X019058Y021477D01*
X019633Y022052D01*
X019633Y022052D01*
X019633Y019587D01*
X018779Y018888D01*
X018693Y018888D01*
X018581Y018842D01*
X018495Y018756D01*
X018448Y018644D01*
X018448Y018522D01*
X018495Y018410D01*
X018572Y018333D01*
X018495Y018256D01*
X018448Y018144D01*
X018448Y018022D01*
X018495Y017910D01*
X018572Y017833D01*
X018495Y017756D01*
X018448Y017644D01*
X018448Y017522D01*
X018495Y017410D01*
X018581Y017324D01*
X018693Y017278D01*
X018814Y017278D01*
X018926Y017324D01*
X019012Y017410D01*
X019058Y017522D01*
X019058Y017556D01*
X019853Y018245D01*
X019853Y015783D01*
X019253Y015783D01*
X019253Y015473D01*
X018374Y015473D01*
X018343Y015503D01*
X018343Y018625D01*
X018343Y018741D01*
X018299Y018847D01*
X017843Y019303D01*
X017843Y021725D01*
X017843Y021841D01*
X017799Y021947D01*
X017327Y022420D01*
X017312Y022456D01*
X017226Y022542D01*
X017114Y022588D01*
X016993Y022588D01*
X016881Y022542D01*
X016795Y022456D01*
X016748Y022344D01*
X016748Y022222D01*
X016795Y022110D01*
X016881Y022024D01*
X016917Y022009D01*
X017263Y021663D01*
X017263Y019125D01*
X017308Y019019D01*
X017389Y018937D01*
X017763Y018563D01*
X017763Y015325D01*
X017808Y015219D01*
X017889Y015137D01*
X018089Y014937D01*
X018196Y014893D01*
X018311Y014893D01*
X019253Y014893D01*
X019253Y014209D01*
X019209Y014253D01*
X019048Y014253D01*
X018933Y014139D01*
X018933Y013803D01*
X018863Y013803D01*
X018863Y013914D01*
X018863Y013989D01*
X018713Y014139D01*
X018599Y014253D01*
X018437Y014253D01*
X018363Y014179D01*
X018288Y014253D01*
X018127Y014253D01*
X018058Y014184D01*
X017988Y014253D01*
X017828Y014253D01*
X017806Y014253D01*
X017788Y014265D01*
X017728Y014253D01*
X017667Y014253D01*
X017651Y014238D01*
X017630Y014234D01*
X017597Y014184D01*
X017528Y014253D01*
X017366Y014253D01*
X017329Y014216D01*
X017293Y014253D01*
X017131Y014253D01*
X017061Y014253D01*
X016981Y014253D01*
X016978Y014251D01*
X016944Y014216D01*
X016907Y014253D01*
X016746Y014253D01*
X016676Y014184D01*
X016607Y014253D01*
X016446Y014253D01*
X016437Y014245D01*
X016407Y014265D01*
X016249Y014234D01*
X016216Y014185D01*
X016183Y014234D01*
X016025Y014265D01*
X015995Y014245D01*
X015987Y014253D01*
X015825Y014253D01*
X015711Y014139D01*
X015711Y013803D01*
X015641Y013803D01*
X015641Y013914D01*
X015526Y014028D01*
X015180Y014028D01*
X015180Y014139D01*
X015066Y014253D01*
X014604Y014253D01*
X014567Y014216D01*
X014531Y014253D01*
X014369Y014253D01*
X014299Y014253D01*
X014219Y014253D01*
X014216Y014251D01*
X014145Y014179D01*
X014070Y014253D01*
X013840Y014253D01*
X013759Y014253D01*
X013684Y014179D01*
X013610Y014253D01*
X013380Y014253D01*
X013298Y014253D01*
X013224Y014179D01*
X013149Y014253D01*
X012918Y014253D01*
X012838Y014253D01*
X012835Y014251D01*
X012801Y014216D01*
X012764Y014253D01*
X012464Y014253D01*
X012353Y014253D01*
X012353Y014267D02*
X019253Y014267D01*
X019253Y014366D02*
X012353Y014366D01*
X012353Y014464D02*
X019253Y014464D01*
X019253Y014563D02*
X014234Y014563D01*
X014252Y014570D02*
X014400Y014718D01*
X014481Y014912D01*
X014481Y015122D01*
X014400Y015315D01*
X014252Y015464D01*
X014058Y015544D01*
X013849Y015544D01*
X013655Y015464D01*
X013506Y015315D01*
X013426Y015122D01*
X013426Y014912D01*
X013506Y014718D01*
X013655Y014570D01*
X013849Y014490D01*
X014058Y014490D01*
X014252Y014570D01*
X014343Y014661D02*
X019253Y014661D01*
X019253Y014760D02*
X014417Y014760D01*
X014458Y014858D02*
X019253Y014858D01*
X019253Y015548D02*
X018343Y015548D01*
X018343Y015647D02*
X019253Y015647D01*
X019253Y015745D02*
X018343Y015745D01*
X018343Y015844D02*
X019853Y015844D01*
X019853Y015942D02*
X018343Y015942D01*
X018343Y016041D02*
X019853Y016041D01*
X019853Y016139D02*
X018343Y016139D01*
X018343Y016238D02*
X019853Y016238D01*
X019853Y016336D02*
X018343Y016336D01*
X018343Y016435D02*
X019853Y016435D01*
X019853Y016533D02*
X018343Y016533D01*
X018343Y016632D02*
X019853Y016632D01*
X019853Y016731D02*
X018343Y016731D01*
X018343Y016829D02*
X019853Y016829D01*
X019853Y016928D02*
X018343Y016928D01*
X018343Y017026D02*
X019853Y017026D01*
X019853Y017125D02*
X018343Y017125D01*
X018343Y017223D02*
X019853Y017223D01*
X019853Y017322D02*
X018920Y017322D01*
X019016Y017420D02*
X019853Y017420D01*
X019853Y017519D02*
X019057Y017519D01*
X019129Y017617D02*
X019853Y017617D01*
X019853Y017716D02*
X019243Y017716D01*
X019356Y017815D02*
X019853Y017815D01*
X019853Y017913D02*
X019470Y017913D01*
X019584Y018012D02*
X019853Y018012D01*
X019853Y018110D02*
X019698Y018110D01*
X019811Y018209D02*
X019853Y018209D01*
X020253Y018883D02*
X020253Y025283D01*
X020053Y025483D01*
X019653Y025383D02*
X019653Y025683D01*
X020053Y026083D01*
X020053Y026483D01*
X020153Y026583D01*
X020353Y026583D01*
X020653Y026883D01*
X020653Y027933D01*
X019853Y028733D01*
X019853Y029383D01*
X018353Y030883D01*
X018353Y031283D01*
X018153Y031483D01*
X017953Y031483D01*
X017653Y031183D01*
X017391Y031019D02*
X017201Y031019D01*
X017273Y031092D02*
X017273Y031092D01*
X017299Y031118D02*
X017350Y031118D01*
X017489Y030921D02*
X015902Y030921D01*
X015804Y030822D02*
X017833Y030822D01*
X017833Y030921D02*
X017817Y030921D01*
X017902Y030724D02*
X015705Y030724D01*
X015658Y030625D02*
X018000Y030625D01*
X018099Y030527D02*
X015619Y030527D01*
X015573Y030428D02*
X018197Y030428D01*
X018296Y030330D02*
X015573Y030330D01*
X015573Y030231D02*
X018394Y030231D01*
X018493Y030132D02*
X015573Y030132D01*
X015573Y030034D02*
X018591Y030034D01*
X018690Y029935D02*
X015573Y029935D01*
X015573Y029837D02*
X018788Y029837D01*
X018887Y029738D02*
X015573Y029738D01*
X015573Y029640D02*
X018986Y029640D01*
X019084Y029541D02*
X015573Y029541D01*
X015573Y029443D02*
X019183Y029443D01*
X019281Y029344D02*
X015573Y029344D01*
X015573Y029246D02*
X019380Y029246D01*
X019433Y029147D02*
X015573Y029147D01*
X015573Y029048D02*
X019433Y029048D01*
X019433Y028950D02*
X015573Y028950D01*
X015573Y028851D02*
X019433Y028851D01*
X019433Y028753D02*
X015573Y028753D01*
X015573Y028654D02*
X019433Y028654D01*
X019433Y028556D02*
X015573Y028556D01*
X015573Y028457D02*
X019433Y028457D01*
X019433Y028359D02*
X015573Y028359D01*
X015573Y028260D02*
X019433Y028260D01*
X019433Y028162D02*
X015573Y028162D01*
X015573Y028063D02*
X019433Y028063D01*
X019461Y027964D02*
X015573Y027964D01*
X015573Y027866D02*
X019559Y027866D01*
X019658Y027767D02*
X015573Y027767D01*
X015573Y027669D02*
X019756Y027669D01*
X019850Y027570D02*
X015573Y027570D01*
X015573Y027472D02*
X019711Y027472D01*
X019661Y027373D02*
X019350Y027373D01*
X019493Y027275D02*
X019634Y027275D01*
X019953Y027283D02*
X019453Y026783D01*
X019453Y026383D01*
X019053Y025983D01*
X019053Y025083D01*
X019453Y024683D01*
X019453Y022683D01*
X018753Y021983D01*
X018476Y021855D02*
X017838Y021855D01*
X017843Y021756D02*
X018549Y021756D01*
X018497Y021658D02*
X017843Y021658D01*
X017843Y021559D02*
X018455Y021559D01*
X018448Y021461D02*
X017843Y021461D01*
X017843Y021362D02*
X018473Y021362D01*
X018541Y021264D02*
X017843Y021264D01*
X017843Y021165D02*
X019633Y021165D01*
X019633Y021264D02*
X018965Y021264D01*
X019033Y021362D02*
X019633Y021362D01*
X019633Y021461D02*
X019058Y021461D01*
X019141Y021559D02*
X019633Y021559D01*
X019633Y021658D02*
X019239Y021658D01*
X019338Y021756D02*
X019633Y021756D01*
X019633Y021855D02*
X019436Y021855D01*
X019535Y021953D02*
X019633Y021953D01*
X019653Y022383D02*
X019653Y024783D01*
X019253Y025183D01*
X019253Y025883D01*
X019653Y026283D01*
X019653Y026683D01*
X019953Y026983D01*
X020153Y026983D01*
X020253Y027083D01*
X020253Y027483D01*
X019653Y028083D01*
X019653Y029283D01*
X018053Y030883D01*
X018053Y031183D01*
X018435Y031512D02*
X019253Y031512D01*
X019253Y031414D02*
X018534Y031414D01*
X018573Y031374D02*
X018373Y031574D01*
X018244Y031703D01*
X017862Y031703D01*
X017858Y031699D01*
X017858Y031744D01*
X017812Y031856D01*
X017726Y031942D01*
X017614Y031988D01*
X017493Y031988D01*
X017381Y031942D01*
X017295Y031856D01*
X017248Y031744D01*
X017248Y031689D01*
X017242Y031683D01*
X017212Y031756D01*
X017126Y031842D01*
X017014Y031888D01*
X016893Y031888D01*
X016781Y031842D01*
X016695Y031756D01*
X016648Y031644D01*
X016648Y031603D01*
X015265Y031603D01*
X015226Y031642D01*
X015114Y031688D01*
X015059Y031688D01*
X014873Y031874D01*
X014744Y032003D01*
X013262Y032003D01*
X013133Y031874D01*
X013047Y031788D01*
X012993Y031788D01*
X012881Y031742D01*
X012795Y031656D01*
X012748Y031544D01*
X012748Y031422D01*
X012763Y031386D01*
X012763Y023033D01*
X012664Y023033D01*
X012498Y022964D01*
X012372Y022838D01*
X012353Y022793D01*
X012353Y032783D01*
X019253Y032783D01*
X019253Y030483D01*
X019853Y030483D01*
X019853Y029694D01*
X018573Y030974D01*
X018573Y031192D01*
X018573Y031374D01*
X018573Y031315D02*
X019253Y031315D01*
X019253Y031216D02*
X018573Y031216D01*
X018573Y031118D02*
X019253Y031118D01*
X019253Y031019D02*
X018573Y031019D01*
X018627Y030921D02*
X019253Y030921D01*
X019253Y030822D02*
X018725Y030822D01*
X018824Y030724D02*
X019253Y030724D01*
X019253Y030625D02*
X018922Y030625D01*
X019021Y030527D02*
X019253Y030527D01*
X019119Y030428D02*
X019853Y030428D01*
X019853Y030330D02*
X019218Y030330D01*
X019316Y030231D02*
X019853Y030231D01*
X019853Y030132D02*
X019415Y030132D01*
X019514Y030034D02*
X019853Y030034D01*
X019853Y029935D02*
X019612Y029935D01*
X019711Y029837D02*
X019853Y029837D01*
X019853Y029738D02*
X019809Y029738D01*
X019953Y028183D02*
X020453Y027683D01*
X020453Y026983D01*
X020253Y026783D01*
X020053Y026783D01*
X019853Y026583D01*
X019853Y026183D01*
X019453Y025783D01*
X019453Y025283D01*
X019853Y024883D01*
X019853Y019483D01*
X018753Y018583D01*
X018472Y018701D02*
X018343Y018701D01*
X018343Y018603D02*
X018448Y018603D01*
X018456Y018504D02*
X018343Y018504D01*
X018343Y018406D02*
X018499Y018406D01*
X018546Y018307D02*
X018343Y018307D01*
X018343Y018209D02*
X018475Y018209D01*
X018448Y018110D02*
X018343Y018110D01*
X018343Y018012D02*
X018453Y018012D01*
X018494Y017913D02*
X018343Y017913D01*
X018343Y017815D02*
X018554Y017815D01*
X018478Y017716D02*
X018343Y017716D01*
X018343Y017617D02*
X018448Y017617D01*
X018450Y017519D02*
X018343Y017519D01*
X018343Y017420D02*
X018491Y017420D01*
X018587Y017322D02*
X018343Y017322D01*
X018753Y017583D02*
X020253Y018883D01*
X020053Y019183D02*
X020053Y024983D01*
X019653Y025383D01*
X018853Y024983D02*
X018853Y026083D01*
X019253Y026483D01*
X019253Y027083D01*
X018948Y027078D02*
X017970Y027078D01*
X017871Y027176D02*
X018962Y027176D01*
X019014Y027275D02*
X015573Y027275D01*
X015573Y027373D02*
X019157Y027373D01*
X018966Y026979D02*
X018136Y026979D01*
X018287Y026881D02*
X018875Y026881D01*
X018721Y026782D02*
X018343Y026782D01*
X018358Y026683D02*
X018665Y026683D01*
X018644Y026585D02*
X018343Y026585D01*
X018288Y026486D02*
X018546Y026486D01*
X018447Y026388D02*
X018138Y026388D01*
X017969Y026388D02*
X017744Y026388D01*
X017758Y026486D02*
X017819Y026486D01*
X017764Y026585D02*
X017741Y026585D01*
X017742Y026683D02*
X017684Y026683D01*
X017453Y026483D02*
X017353Y026383D01*
X017353Y024783D01*
X016153Y023583D01*
X016153Y017383D01*
X017053Y016483D01*
X017053Y016083D01*
X016782Y015942D02*
X012353Y015942D01*
X012353Y015844D02*
X016861Y015844D01*
X016748Y016041D02*
X012353Y016041D01*
X012353Y016139D02*
X016566Y016139D01*
X016483Y016238D02*
X014097Y016238D01*
X014058Y016222D02*
X014252Y016302D01*
X014400Y016451D01*
X014481Y016644D01*
X014481Y016854D01*
X014400Y017048D01*
X014252Y017196D01*
X014058Y017276D01*
X013849Y017276D01*
X013655Y017196D01*
X013506Y017048D01*
X013426Y016854D01*
X013426Y016644D01*
X013506Y016451D01*
X013655Y016302D01*
X013849Y016222D01*
X014058Y016222D01*
X013810Y016238D02*
X012353Y016238D01*
X012353Y016336D02*
X013621Y016336D01*
X013522Y016435D02*
X012353Y016435D01*
X012353Y016533D02*
X013472Y016533D01*
X013431Y016632D02*
X012353Y016632D01*
X012353Y016731D02*
X013426Y016731D01*
X013426Y016829D02*
X012353Y016829D01*
X012353Y016928D02*
X013457Y016928D01*
X013498Y017026D02*
X012353Y017026D01*
X012353Y017125D02*
X013583Y017125D01*
X013721Y017223D02*
X012353Y017223D01*
X012353Y017322D02*
X015733Y017322D01*
X015733Y017420D02*
X012353Y017420D01*
X012353Y017519D02*
X015733Y017519D01*
X015733Y017617D02*
X012353Y017617D01*
X012353Y017716D02*
X015733Y017716D01*
X015733Y017815D02*
X012353Y017815D01*
X012353Y017913D02*
X015733Y017913D01*
X015733Y018012D02*
X012353Y018012D01*
X012353Y018110D02*
X015733Y018110D01*
X015733Y018209D02*
X012353Y018209D01*
X012353Y018307D02*
X015733Y018307D01*
X015733Y018406D02*
X012353Y018406D01*
X012353Y018504D02*
X015733Y018504D01*
X015733Y018603D02*
X013010Y018603D01*
X013108Y018701D02*
X015733Y018701D01*
X015733Y018800D02*
X013165Y018800D01*
X013203Y018899D02*
X015733Y018899D01*
X015733Y018997D02*
X013203Y018997D01*
X013203Y019096D02*
X015733Y019096D01*
X015733Y019194D02*
X013203Y019194D01*
X013203Y019293D02*
X015733Y019293D01*
X015733Y019391D02*
X013203Y019391D01*
X013203Y019490D02*
X015733Y019490D01*
X015733Y019588D02*
X013203Y019588D01*
X013203Y019687D02*
X015733Y019687D01*
X015733Y019785D02*
X013203Y019785D01*
X013203Y019884D02*
X015733Y019884D01*
X015733Y019982D02*
X013203Y019982D01*
X013203Y020081D02*
X015733Y020081D01*
X015733Y020180D02*
X013203Y020180D01*
X013203Y020278D02*
X015733Y020278D01*
X015733Y020377D02*
X013203Y020377D01*
X013203Y020475D02*
X015733Y020475D01*
X015733Y020574D02*
X013203Y020574D01*
X013203Y020672D02*
X015733Y020672D01*
X015733Y020771D02*
X013203Y020771D01*
X013203Y020869D02*
X015733Y020869D01*
X015733Y020968D02*
X013203Y020968D01*
X013203Y021066D02*
X015733Y021066D01*
X015733Y021165D02*
X013203Y021165D01*
X013203Y021264D02*
X015733Y021264D01*
X015733Y021362D02*
X013203Y021362D01*
X013203Y021461D02*
X015733Y021461D01*
X015733Y021559D02*
X013203Y021559D01*
X013203Y021658D02*
X015733Y021658D01*
X015733Y021756D02*
X013203Y021756D01*
X013203Y021855D02*
X015733Y021855D01*
X015733Y021953D02*
X013203Y021953D01*
X013203Y022052D02*
X015733Y022052D01*
X015733Y022150D02*
X013203Y022150D01*
X013203Y022249D02*
X015733Y022249D01*
X015733Y022348D02*
X013203Y022348D01*
X013203Y022446D02*
X015733Y022446D01*
X015733Y022545D02*
X013203Y022545D01*
X013224Y022643D02*
X015733Y022643D01*
X015733Y022742D02*
X013322Y022742D01*
X013299Y022719D02*
X013299Y022719D01*
X013421Y022840D02*
X015733Y022840D01*
X015733Y022939D02*
X013519Y022939D01*
X013343Y023629D02*
X015733Y023629D01*
X015733Y023727D02*
X013343Y023727D01*
X013343Y023826D02*
X015785Y023826D01*
X015884Y023924D02*
X013343Y023924D01*
X013343Y024023D02*
X015982Y024023D01*
X016081Y024121D02*
X013343Y024121D01*
X013343Y024220D02*
X016179Y024220D01*
X016278Y024318D02*
X013343Y024318D01*
X013343Y024417D02*
X016376Y024417D01*
X016475Y024515D02*
X013343Y024515D01*
X013343Y024614D02*
X016573Y024614D01*
X016672Y024713D02*
X013343Y024713D01*
X013343Y024811D02*
X016770Y024811D01*
X016869Y024910D02*
X013343Y024910D01*
X013343Y025008D02*
X016933Y025008D01*
X016933Y025107D02*
X013343Y025107D01*
X013343Y025205D02*
X016933Y025205D01*
X016933Y025304D02*
X013343Y025304D01*
X013343Y025402D02*
X016933Y025402D01*
X016933Y025501D02*
X013343Y025501D01*
X013343Y025599D02*
X016933Y025599D01*
X016933Y025698D02*
X013343Y025698D01*
X013343Y025797D02*
X016933Y025797D01*
X016933Y025895D02*
X013343Y025895D01*
X013343Y025994D02*
X016933Y025994D01*
X016933Y026092D02*
X013343Y026092D01*
X013343Y026191D02*
X016933Y026191D01*
X016816Y026289D02*
X013343Y026289D01*
X013343Y026388D02*
X016763Y026388D01*
X016748Y026486D02*
X013343Y026486D01*
X013343Y026585D02*
X016765Y026585D01*
X016822Y026683D02*
X013343Y026683D01*
X013343Y026782D02*
X015443Y026782D01*
X015345Y026881D02*
X013343Y026881D01*
X013343Y026979D02*
X014990Y026979D01*
X015117Y026979D02*
X015246Y026979D01*
X015353Y027183D02*
X015353Y027383D01*
X015153Y027383D01*
X015053Y027283D01*
X014748Y027275D02*
X013343Y027275D01*
X013343Y027373D02*
X014761Y027373D01*
X014811Y027472D02*
X013343Y027472D01*
X013343Y027570D02*
X014950Y027570D01*
X015133Y027669D02*
X013343Y027669D01*
X013343Y027767D02*
X015133Y027767D01*
X015133Y027866D02*
X014768Y027866D01*
X014834Y027964D02*
X015133Y027964D01*
X015133Y028063D02*
X014858Y028063D01*
X014851Y028162D02*
X015133Y028162D01*
X015133Y028260D02*
X014962Y028260D01*
X015032Y028359D02*
X015133Y028359D01*
X015133Y028457D02*
X015058Y028457D01*
X015053Y028556D02*
X015133Y028556D01*
X015133Y028654D02*
X015013Y028654D01*
X014899Y028753D02*
X015133Y028753D01*
X015133Y028851D02*
X014696Y028851D01*
X014598Y028950D02*
X015133Y028950D01*
X015133Y029048D02*
X014850Y029048D01*
X015028Y029147D02*
X015133Y029147D01*
X015127Y029246D02*
X015133Y029246D01*
X015053Y029483D02*
X015053Y031383D01*
X014653Y031783D01*
X013353Y031783D01*
X013053Y031483D01*
X012776Y031611D02*
X012353Y031611D01*
X012353Y031709D02*
X012848Y031709D01*
X012748Y031512D02*
X012353Y031512D01*
X012353Y031414D02*
X012752Y031414D01*
X012763Y031315D02*
X012353Y031315D01*
X012353Y031216D02*
X012763Y031216D01*
X012763Y031118D02*
X012353Y031118D01*
X012353Y031019D02*
X012763Y031019D01*
X012763Y030921D02*
X012353Y030921D01*
X012353Y030822D02*
X012763Y030822D01*
X012763Y030724D02*
X012353Y030724D01*
X012353Y030625D02*
X012763Y030625D01*
X012763Y030527D02*
X012353Y030527D01*
X012353Y030428D02*
X012763Y030428D01*
X012763Y030330D02*
X012353Y030330D01*
X012353Y030231D02*
X012763Y030231D01*
X012763Y030132D02*
X012353Y030132D01*
X012353Y030034D02*
X012763Y030034D01*
X012763Y029935D02*
X012353Y029935D01*
X012353Y029837D02*
X012763Y029837D01*
X012763Y029738D02*
X012353Y029738D01*
X012353Y029640D02*
X012763Y029640D01*
X012763Y029541D02*
X012353Y029541D01*
X012353Y029443D02*
X012763Y029443D01*
X012763Y029344D02*
X012353Y029344D01*
X012353Y029246D02*
X012763Y029246D01*
X012763Y029147D02*
X012353Y029147D01*
X012353Y029048D02*
X012763Y029048D01*
X012763Y028950D02*
X012353Y028950D01*
X012353Y028851D02*
X012763Y028851D01*
X012763Y028753D02*
X012353Y028753D01*
X012353Y028654D02*
X012763Y028654D01*
X012763Y028556D02*
X012353Y028556D01*
X012353Y028457D02*
X012763Y028457D01*
X012763Y028359D02*
X012353Y028359D01*
X012353Y028260D02*
X012763Y028260D01*
X012763Y028162D02*
X012353Y028162D01*
X012353Y028063D02*
X012763Y028063D01*
X012763Y027964D02*
X012353Y027964D01*
X012353Y027866D02*
X012763Y027866D01*
X012763Y027767D02*
X012353Y027767D01*
X012353Y027669D02*
X012763Y027669D01*
X012763Y027570D02*
X012353Y027570D01*
X012353Y027472D02*
X012763Y027472D01*
X012763Y027373D02*
X012353Y027373D01*
X012353Y027275D02*
X012763Y027275D01*
X012763Y027176D02*
X012353Y027176D01*
X012353Y027078D02*
X012763Y027078D01*
X012763Y026979D02*
X012353Y026979D01*
X012353Y026881D02*
X012763Y026881D01*
X012763Y026782D02*
X012353Y026782D01*
X012353Y026683D02*
X012763Y026683D01*
X012763Y026585D02*
X012353Y026585D01*
X012353Y026486D02*
X012763Y026486D01*
X012763Y026388D02*
X012353Y026388D01*
X012353Y026289D02*
X012763Y026289D01*
X012763Y026191D02*
X012353Y026191D01*
X012353Y026092D02*
X012763Y026092D01*
X012763Y025994D02*
X012353Y025994D01*
X012353Y025895D02*
X012763Y025895D01*
X012763Y025797D02*
X012353Y025797D01*
X012353Y025698D02*
X012763Y025698D01*
X012763Y025599D02*
X012353Y025599D01*
X012353Y025501D02*
X012763Y025501D01*
X012763Y025402D02*
X012353Y025402D01*
X012353Y025304D02*
X012763Y025304D01*
X012763Y025205D02*
X012353Y025205D01*
X012353Y025107D02*
X012763Y025107D01*
X012763Y025008D02*
X012353Y025008D01*
X012353Y024910D02*
X012763Y024910D01*
X012763Y024811D02*
X012353Y024811D01*
X012353Y024713D02*
X012763Y024713D01*
X012763Y024614D02*
X012353Y024614D01*
X012353Y024515D02*
X012763Y024515D01*
X012763Y024417D02*
X012353Y024417D01*
X012353Y024318D02*
X012763Y024318D01*
X012763Y024220D02*
X012353Y024220D01*
X012353Y024121D02*
X012763Y024121D01*
X012763Y024023D02*
X012353Y024023D01*
X012353Y023924D02*
X012763Y023924D01*
X012763Y023826D02*
X012353Y023826D01*
X012353Y023727D02*
X012763Y023727D01*
X012763Y023629D02*
X012353Y023629D01*
X012353Y023530D02*
X012763Y023530D01*
X012763Y023431D02*
X012353Y023431D01*
X012353Y023333D02*
X012763Y023333D01*
X012763Y023234D02*
X012353Y023234D01*
X012353Y023136D02*
X012763Y023136D01*
X012763Y023037D02*
X012353Y023037D01*
X012353Y022939D02*
X012473Y022939D01*
X012374Y022840D02*
X012353Y022840D01*
X015339Y023037D02*
X015733Y023037D01*
X015733Y023136D02*
X015423Y023136D01*
X015458Y023234D02*
X015733Y023234D01*
X015733Y023333D02*
X015458Y023333D01*
X015422Y023431D02*
X015733Y023431D01*
X015733Y023530D02*
X015338Y023530D01*
X015953Y023683D02*
X015953Y017183D01*
X016753Y016383D01*
X016448Y016336D02*
X014286Y016336D01*
X014385Y016435D02*
X016390Y016435D01*
X016292Y016533D02*
X014435Y016533D01*
X014475Y016632D02*
X016193Y016632D01*
X016095Y016731D02*
X014481Y016731D01*
X014481Y016829D02*
X015996Y016829D01*
X015898Y016928D02*
X014450Y016928D01*
X014409Y017026D02*
X015799Y017026D01*
X015733Y017125D02*
X014323Y017125D01*
X014186Y017223D02*
X015733Y017223D01*
X016373Y017519D02*
X017763Y017519D01*
X017763Y017617D02*
X016373Y017617D01*
X016373Y017716D02*
X017763Y017716D01*
X017763Y017815D02*
X016373Y017815D01*
X016373Y017913D02*
X017763Y017913D01*
X017763Y018012D02*
X016373Y018012D01*
X016373Y018110D02*
X017763Y018110D01*
X017763Y018209D02*
X016373Y018209D01*
X016373Y018307D02*
X017763Y018307D01*
X017763Y018406D02*
X016373Y018406D01*
X016373Y018504D02*
X017763Y018504D01*
X017723Y018603D02*
X016373Y018603D01*
X016373Y018701D02*
X017625Y018701D01*
X017526Y018800D02*
X016373Y018800D01*
X016373Y018899D02*
X017428Y018899D01*
X017329Y018997D02*
X016373Y018997D01*
X016373Y019096D02*
X017276Y019096D01*
X017263Y019194D02*
X016373Y019194D01*
X016373Y019293D02*
X017263Y019293D01*
X017263Y019391D02*
X016373Y019391D01*
X016373Y019490D02*
X017263Y019490D01*
X017263Y019588D02*
X016373Y019588D01*
X016373Y019687D02*
X017263Y019687D01*
X017263Y019785D02*
X016373Y019785D01*
X016373Y019884D02*
X017263Y019884D01*
X017263Y019982D02*
X016373Y019982D01*
X016373Y020081D02*
X017263Y020081D01*
X017263Y020180D02*
X016373Y020180D01*
X016373Y020278D02*
X017263Y020278D01*
X017263Y020377D02*
X016373Y020377D01*
X016373Y020475D02*
X017263Y020475D01*
X017263Y020574D02*
X016373Y020574D01*
X016373Y020672D02*
X017263Y020672D01*
X017263Y020771D02*
X016373Y020771D01*
X016373Y020869D02*
X017263Y020869D01*
X017263Y020968D02*
X016373Y020968D01*
X016373Y021066D02*
X017263Y021066D01*
X017263Y021165D02*
X016373Y021165D01*
X016373Y021264D02*
X017263Y021264D01*
X017263Y021362D02*
X016373Y021362D01*
X016373Y021461D02*
X017263Y021461D01*
X017263Y021559D02*
X016373Y021559D01*
X016373Y021658D02*
X017263Y021658D01*
X017170Y021756D02*
X016373Y021756D01*
X016373Y021855D02*
X017071Y021855D01*
X016973Y021953D02*
X016373Y021953D01*
X016373Y022052D02*
X016853Y022052D01*
X016778Y022150D02*
X016373Y022150D01*
X016373Y022249D02*
X016748Y022249D01*
X016750Y022348D02*
X016373Y022348D01*
X016373Y022446D02*
X016791Y022446D01*
X016888Y022545D02*
X016373Y022545D01*
X016373Y022643D02*
X018490Y022643D01*
X018449Y022545D02*
X017219Y022545D01*
X017316Y022446D02*
X018448Y022446D01*
X018479Y022348D02*
X017399Y022348D01*
X017497Y022249D02*
X018556Y022249D01*
X018493Y022150D02*
X017596Y022150D01*
X017695Y022052D02*
X018452Y022052D01*
X018448Y021953D02*
X017793Y021953D01*
X017843Y021066D02*
X019633Y021066D01*
X019633Y020968D02*
X017843Y020968D01*
X017843Y020869D02*
X019633Y020869D01*
X019633Y020771D02*
X017843Y020771D01*
X017843Y020672D02*
X019633Y020672D01*
X019633Y020574D02*
X017843Y020574D01*
X017843Y020475D02*
X019633Y020475D01*
X019633Y020377D02*
X017843Y020377D01*
X017843Y020278D02*
X019633Y020278D01*
X019633Y020180D02*
X017843Y020180D01*
X017843Y020081D02*
X019633Y020081D01*
X019633Y019982D02*
X017843Y019982D01*
X017843Y019884D02*
X019633Y019884D01*
X019633Y019785D02*
X017843Y019785D01*
X017843Y019687D02*
X019633Y019687D01*
X019633Y019588D02*
X017843Y019588D01*
X017843Y019490D02*
X019514Y019490D01*
X019394Y019391D02*
X017843Y019391D01*
X017854Y019293D02*
X019273Y019293D01*
X019153Y019194D02*
X017952Y019194D01*
X018051Y019096D02*
X019032Y019096D01*
X018912Y018997D02*
X018149Y018997D01*
X018248Y018899D02*
X018792Y018899D01*
X018539Y018800D02*
X018319Y018800D01*
X018753Y018083D02*
X020053Y019183D01*
X022753Y018283D02*
X022853Y018383D01*
X029053Y018383D01*
X029853Y018183D02*
X029053Y017383D01*
X028853Y016383D02*
X031253Y016383D01*
X031453Y016583D01*
X031453Y016783D01*
X031353Y016883D01*
X031053Y016683D02*
X030953Y016583D01*
X028053Y016583D01*
X027953Y016483D01*
X028553Y016083D02*
X028853Y016383D01*
X029153Y016183D02*
X032453Y016183D01*
X032653Y016383D01*
X033753Y016383D01*
X034553Y016383D01*
X034553Y015783D02*
X036453Y015783D01*
X035753Y016283D02*
X035553Y016083D01*
X033553Y016083D01*
X033453Y016183D01*
X033053Y016183D01*
X032953Y016083D01*
X033253Y015783D02*
X033353Y015883D01*
X033253Y015783D02*
X032053Y015783D01*
X031953Y015683D01*
X030953Y014683D02*
X030453Y014183D01*
X030953Y014683D02*
X037153Y014683D01*
X037553Y015083D01*
X037553Y027483D01*
X037353Y027683D01*
X033453Y027683D01*
X033203Y027183D02*
X032803Y027583D01*
X027653Y027583D01*
X027553Y026683D02*
X027453Y026583D01*
X027553Y026683D02*
X028253Y026683D01*
X028853Y026583D02*
X029053Y026383D01*
X030653Y026383D01*
X030753Y026483D01*
X031953Y026483D01*
X032453Y026983D01*
X032653Y027383D02*
X029053Y027383D01*
X028853Y027183D01*
X025953Y027183D01*
X025453Y026583D02*
X025853Y026183D01*
X031053Y026183D01*
X030753Y025883D02*
X030653Y025983D01*
X025553Y025983D01*
X024953Y026583D01*
X024453Y026583D02*
X025353Y025683D01*
X030453Y025683D01*
X030753Y025883D02*
X031853Y025883D01*
X033203Y025433D02*
X033253Y025383D01*
X033203Y025433D02*
X023253Y025433D01*
X026453Y024883D02*
X026653Y025083D01*
X028253Y025083D01*
X033353Y025083D01*
X033453Y025183D01*
X034153Y025183D01*
X033853Y024283D02*
X034553Y023583D01*
X034453Y023183D02*
X035353Y023183D01*
X034453Y023183D02*
X034053Y023583D01*
X034053Y023683D01*
X033653Y024083D01*
X031153Y024083D01*
X030853Y023783D01*
X030853Y024183D02*
X030953Y024283D01*
X033853Y024283D01*
X033453Y023783D02*
X033453Y023383D01*
X033253Y023183D01*
X032053Y023183D01*
X031353Y022483D01*
X029053Y022483D01*
X028053Y021483D01*
X022853Y021483D01*
X022553Y021783D01*
X022553Y022083D01*
X022853Y022283D02*
X022853Y021783D01*
X022953Y021683D01*
X027903Y021683D01*
X028903Y022683D01*
X031203Y022683D01*
X032003Y023483D01*
X033153Y023483D01*
X033653Y021783D02*
X031753Y021783D01*
X032253Y021183D02*
X032353Y021083D01*
X035053Y021083D01*
X035253Y021283D01*
X035753Y021283D01*
X035453Y020983D02*
X035353Y020883D01*
X034053Y020883D01*
X033953Y020783D01*
X033153Y020783D01*
X032753Y020783D02*
X029153Y020783D01*
X028753Y021183D01*
X031253Y020127D02*
X031253Y019783D01*
X031253Y020127D02*
X031509Y020383D01*
X033453Y020383D01*
X033453Y019483D01*
X033853Y019683D02*
X034653Y019683D01*
X035153Y019183D01*
X034753Y018783D02*
X034553Y018983D01*
X033453Y018983D01*
X032953Y019483D01*
X033453Y020383D02*
X033953Y020383D01*
X034253Y020683D01*
X035753Y020683D01*
X036353Y021283D01*
X036353Y022183D01*
X036353Y023183D01*
X036353Y024283D01*
X036353Y026083D01*
X034453Y026883D02*
X033153Y026883D01*
X032653Y027383D01*
X033203Y027183D02*
X033853Y027183D01*
X031953Y028683D02*
X030553Y028683D01*
X029953Y029283D01*
X029953Y029383D01*
X029753Y029683D02*
X030603Y029683D01*
X030703Y029583D01*
X030703Y029183D01*
X030803Y029083D01*
X031353Y029083D01*
X031453Y029183D01*
X031453Y029383D01*
X030953Y029383D02*
X030953Y029727D01*
X030697Y029983D01*
X029653Y029983D01*
X029453Y029783D01*
X029153Y029783D01*
X028953Y029583D01*
X028953Y029383D01*
X029453Y029383D02*
X029753Y029683D01*
X029353Y029983D02*
X029653Y030283D01*
X031453Y030283D01*
X031953Y030783D01*
X031953Y031683D01*
X032453Y032183D01*
X031453Y032183D02*
X030953Y031683D01*
X030953Y030783D01*
X030753Y030583D01*
X029653Y030583D01*
X029253Y030183D01*
X027053Y030183D01*
X026753Y029883D01*
X026753Y030383D02*
X026853Y030483D01*
X029253Y030483D01*
X029453Y030683D01*
X029453Y031183D01*
X029353Y029983D02*
X027353Y029983D01*
X026753Y029383D01*
X023153Y029883D02*
X021953Y029883D01*
X021953Y031083D01*
X023153Y031083D01*
X023153Y029883D01*
X019253Y031611D02*
X018337Y031611D01*
X018373Y031574D02*
X018373Y031574D01*
X017858Y031709D02*
X019253Y031709D01*
X019253Y031808D02*
X017832Y031808D01*
X017761Y031906D02*
X019253Y031906D01*
X019253Y032005D02*
X012353Y032005D01*
X012353Y032103D02*
X019253Y032103D01*
X019253Y032202D02*
X012353Y032202D01*
X012353Y032300D02*
X019253Y032300D01*
X019253Y032399D02*
X012353Y032399D01*
X012353Y032497D02*
X019253Y032497D01*
X019253Y032596D02*
X012353Y032596D01*
X012353Y032695D02*
X019253Y032695D01*
X017553Y031683D02*
X017053Y031183D01*
X015853Y031183D01*
X015353Y030683D01*
X015353Y027383D01*
X015353Y027183D02*
X015553Y026983D01*
X017753Y026983D01*
X018053Y026683D01*
X017691Y026289D02*
X018433Y026289D01*
X018433Y026191D02*
X017573Y026191D01*
X017573Y026092D02*
X018433Y026092D01*
X018433Y025994D02*
X017573Y025994D01*
X017573Y025895D02*
X018433Y025895D01*
X018433Y025797D02*
X017573Y025797D01*
X017573Y025698D02*
X018433Y025698D01*
X018433Y025599D02*
X017573Y025599D01*
X017573Y025501D02*
X018433Y025501D01*
X018433Y025402D02*
X017573Y025402D01*
X017573Y025304D02*
X018433Y025304D01*
X018433Y025205D02*
X017573Y025205D01*
X017573Y025107D02*
X017746Y025107D01*
X017781Y025142D02*
X017695Y025056D01*
X017648Y024944D01*
X017648Y024822D01*
X017695Y024710D01*
X017733Y024672D01*
X017733Y024574D01*
X017447Y024288D01*
X017393Y024288D01*
X017281Y024242D01*
X017195Y024156D01*
X017148Y024044D01*
X017148Y023922D01*
X017195Y023810D01*
X017281Y023724D01*
X017393Y023678D01*
X017514Y023678D01*
X017626Y023724D01*
X017712Y023810D01*
X017758Y023922D01*
X017758Y023977D01*
X018173Y024392D01*
X018173Y024574D01*
X018173Y024672D01*
X018212Y024710D01*
X018258Y024822D01*
X018258Y024944D01*
X018212Y025056D01*
X018126Y025142D01*
X018014Y025188D01*
X017893Y025188D01*
X017781Y025142D01*
X017675Y025008D02*
X017573Y025008D01*
X017573Y024910D02*
X017648Y024910D01*
X017653Y024811D02*
X017573Y024811D01*
X017573Y024713D02*
X017694Y024713D01*
X017733Y024614D02*
X017496Y024614D01*
X017397Y024515D02*
X017675Y024515D01*
X017576Y024417D02*
X017298Y024417D01*
X017200Y024318D02*
X017478Y024318D01*
X017259Y024220D02*
X017101Y024220D01*
X017181Y024121D02*
X017003Y024121D01*
X016904Y024023D02*
X017148Y024023D01*
X017148Y023924D02*
X016806Y023924D01*
X016707Y023826D02*
X017188Y023826D01*
X017278Y023727D02*
X016609Y023727D01*
X016510Y023629D02*
X018833Y023629D01*
X018833Y023727D02*
X017629Y023727D01*
X017718Y023826D02*
X018833Y023826D01*
X018833Y023924D02*
X017758Y023924D01*
X017804Y024023D02*
X018833Y024023D01*
X018833Y024121D02*
X017903Y024121D01*
X018001Y024220D02*
X018833Y024220D01*
X018833Y024318D02*
X018100Y024318D01*
X018173Y024417D02*
X018808Y024417D01*
X018710Y024515D02*
X018173Y024515D01*
X018173Y024614D02*
X018611Y024614D01*
X018513Y024713D02*
X018213Y024713D01*
X018254Y024811D02*
X018433Y024811D01*
X018433Y024910D02*
X018258Y024910D01*
X018232Y025008D02*
X018433Y025008D01*
X018433Y025107D02*
X018161Y025107D01*
X017953Y024883D02*
X017953Y024483D01*
X017453Y023983D01*
X016412Y023530D02*
X018833Y023530D01*
X018833Y023431D02*
X016373Y023431D01*
X016373Y023333D02*
X018792Y023333D01*
X018573Y023234D02*
X016373Y023234D01*
X016373Y023136D02*
X018487Y023136D01*
X018448Y023037D02*
X016373Y023037D01*
X016373Y022939D02*
X018448Y022939D01*
X018482Y022840D02*
X016373Y022840D01*
X016373Y022742D02*
X018563Y022742D01*
X018753Y022983D02*
X019053Y023283D01*
X019053Y024483D01*
X018653Y024883D01*
X018653Y026283D01*
X018953Y026583D01*
X017332Y026763D02*
X017281Y026742D01*
X017253Y026714D01*
X017226Y026742D01*
X017174Y026763D01*
X017332Y026763D01*
X017053Y026483D02*
X017153Y026383D01*
X017153Y024883D01*
X015953Y023683D01*
X018753Y022483D02*
X019253Y022983D01*
X019253Y024583D01*
X018853Y024983D01*
X019653Y022383D02*
X018753Y021483D01*
X022553Y022583D02*
X022853Y022283D01*
X026153Y018983D02*
X027453Y018983D01*
X027453Y017883D02*
X025853Y017883D01*
X026653Y017083D02*
X026753Y017183D01*
X027153Y017183D01*
X027253Y017083D01*
X030453Y017083D01*
X030753Y017383D01*
X032453Y017383D01*
X032753Y017083D01*
X035753Y017083D01*
X036053Y018783D02*
X034753Y018783D01*
X033153Y017383D02*
X032853Y017683D01*
X031253Y017683D01*
X031253Y018183D02*
X029853Y018183D01*
X030753Y016883D02*
X026953Y016883D01*
X026653Y017083D02*
X022553Y017083D01*
X018963Y014168D02*
X018684Y014168D01*
X018782Y014070D02*
X018933Y014070D01*
X018933Y013971D02*
X018863Y013971D01*
X018863Y013873D02*
X018933Y013873D01*
X018069Y014957D02*
X014481Y014957D01*
X014481Y015055D02*
X017971Y015055D01*
X017872Y015154D02*
X014467Y015154D01*
X014426Y015252D02*
X017794Y015252D01*
X017763Y015351D02*
X014365Y015351D01*
X014266Y015449D02*
X017763Y015449D01*
X017763Y015548D02*
X012353Y015548D01*
X012353Y015449D02*
X013641Y015449D01*
X013542Y015351D02*
X012353Y015351D01*
X012353Y015252D02*
X013480Y015252D01*
X013440Y015154D02*
X012353Y015154D01*
X012353Y015055D02*
X013426Y015055D01*
X013426Y014957D02*
X012353Y014957D01*
X012353Y014858D02*
X013448Y014858D01*
X013489Y014760D02*
X012353Y014760D01*
X012353Y014661D02*
X013564Y014661D01*
X013672Y014563D02*
X012353Y014563D01*
X012838Y014253D02*
X012838Y014253D01*
X014219Y014253D02*
X014219Y014253D01*
X014640Y013823D02*
X014640Y013768D01*
X014613Y013796D01*
X014640Y013823D01*
X014634Y013774D02*
X014640Y013774D01*
X014720Y013673D02*
X014754Y013638D01*
X014790Y013638D01*
X014790Y013583D01*
X014720Y013583D01*
X014720Y013673D01*
X015180Y013638D02*
X015411Y013638D01*
X015411Y013583D01*
X015180Y013583D01*
X015180Y013638D01*
X015180Y014070D02*
X015711Y014070D01*
X015711Y013971D02*
X015583Y013971D01*
X015641Y013873D02*
X015711Y013873D01*
X015740Y014168D02*
X015151Y014168D01*
X016981Y014253D02*
X016981Y014253D01*
X017763Y015647D02*
X012353Y015647D01*
X012353Y015745D02*
X017763Y015745D01*
X017763Y015844D02*
X017245Y015844D01*
X017325Y015942D02*
X017763Y015942D01*
X017763Y016041D02*
X017358Y016041D01*
X017358Y016139D02*
X017763Y016139D01*
X017763Y016238D02*
X017319Y016238D01*
X017273Y016336D02*
X017763Y016336D01*
X017763Y016435D02*
X017273Y016435D01*
X017273Y016533D02*
X017763Y016533D01*
X017763Y016632D02*
X017215Y016632D01*
X017144Y016703D02*
X017144Y016703D01*
X017117Y016731D02*
X017763Y016731D01*
X017763Y016829D02*
X017018Y016829D01*
X016920Y016928D02*
X017763Y016928D01*
X017763Y017026D02*
X016821Y017026D01*
X016723Y017125D02*
X017763Y017125D01*
X017763Y017223D02*
X016624Y017223D01*
X016526Y017322D02*
X017763Y017322D01*
X017763Y017420D02*
X016427Y017420D01*
X012497Y018603D02*
X012353Y018603D01*
X012353Y018701D02*
X012399Y018701D01*
X013343Y027078D02*
X014827Y027078D01*
X014767Y027176D02*
X013343Y027176D01*
X013343Y027866D02*
X014339Y027866D01*
X014272Y027964D02*
X013343Y027964D01*
X013343Y028063D02*
X014248Y028063D01*
X014164Y028162D02*
X013343Y028162D01*
X013343Y028260D02*
X014065Y028260D01*
X013967Y028359D02*
X013343Y028359D01*
X013343Y028457D02*
X013868Y028457D01*
X013833Y028556D02*
X013343Y028556D01*
X013343Y028654D02*
X013833Y028654D01*
X013833Y028753D02*
X013343Y028753D01*
X013343Y028851D02*
X013833Y028851D01*
X013833Y028950D02*
X013343Y028950D01*
X013343Y029048D02*
X013833Y029048D01*
X013833Y029147D02*
X013343Y029147D01*
X013343Y029246D02*
X013833Y029246D01*
X013833Y029344D02*
X013343Y029344D01*
X013343Y029443D02*
X013833Y029443D01*
X013833Y029541D02*
X013343Y029541D01*
X013343Y029640D02*
X013833Y029640D01*
X013833Y029738D02*
X013343Y029738D01*
X013343Y029837D02*
X013833Y029837D01*
X013833Y029935D02*
X013343Y029935D01*
X013343Y030034D02*
X013833Y030034D01*
X013833Y030132D02*
X013343Y030132D01*
X013343Y030231D02*
X013833Y030231D01*
X013833Y030330D02*
X013343Y030330D01*
X013343Y030428D02*
X013833Y030428D01*
X013833Y030527D02*
X013343Y030527D01*
X013343Y030625D02*
X013833Y030625D01*
X013802Y030724D02*
X013343Y030724D01*
X013343Y030822D02*
X013703Y030822D01*
X013604Y030921D02*
X013343Y030921D01*
X013343Y031019D02*
X013506Y031019D01*
X013433Y031118D02*
X013343Y031118D01*
X013343Y031216D02*
X013433Y031216D01*
X013393Y031315D02*
X013343Y031315D01*
X013653Y031183D02*
X013653Y031483D01*
X013653Y031183D02*
X014053Y030783D01*
X014053Y028583D01*
X014553Y028083D01*
X014753Y028483D02*
X014253Y028983D01*
X014253Y031283D01*
X014053Y031483D01*
X013953Y031194D02*
X014033Y031114D01*
X014033Y031178D01*
X013993Y031178D01*
X013953Y031194D01*
X014030Y031118D02*
X014033Y031118D01*
X014473Y031118D02*
X014833Y031118D01*
X014833Y031172D02*
X014833Y029574D01*
X014808Y029549D01*
X014714Y029588D01*
X014593Y029588D01*
X014481Y029542D01*
X014473Y029534D01*
X014473Y031374D01*
X014358Y031489D01*
X014358Y031544D01*
X014350Y031563D01*
X014562Y031563D01*
X014748Y031377D01*
X014748Y031322D01*
X014795Y031210D01*
X014833Y031172D01*
X014792Y031216D02*
X014473Y031216D01*
X014473Y031315D02*
X014751Y031315D01*
X014712Y031414D02*
X014434Y031414D01*
X014358Y031512D02*
X014613Y031512D01*
X014940Y031808D02*
X016747Y031808D01*
X016676Y031709D02*
X015038Y031709D01*
X014873Y031874D02*
X014873Y031874D01*
X014841Y031906D02*
X017345Y031906D01*
X017275Y031808D02*
X017160Y031808D01*
X017231Y031709D02*
X017248Y031709D01*
X016953Y031583D02*
X016753Y031383D01*
X015053Y031383D01*
X015257Y031611D02*
X016648Y031611D01*
X015522Y031163D02*
X015273Y031163D01*
X015273Y030980D01*
X015293Y030988D01*
X015347Y030988D01*
X015522Y031163D01*
X015477Y031118D02*
X015273Y031118D01*
X015273Y031019D02*
X015379Y031019D01*
X014833Y031019D02*
X014473Y031019D01*
X014473Y030921D02*
X014833Y030921D01*
X014833Y030822D02*
X014473Y030822D01*
X014473Y030724D02*
X014833Y030724D01*
X014833Y030625D02*
X014473Y030625D01*
X014473Y030527D02*
X014833Y030527D01*
X014833Y030428D02*
X014473Y030428D01*
X014473Y030330D02*
X014833Y030330D01*
X014833Y030231D02*
X014473Y030231D01*
X014473Y030132D02*
X014833Y030132D01*
X014833Y030034D02*
X014473Y030034D01*
X014473Y029935D02*
X014833Y029935D01*
X014833Y029837D02*
X014473Y029837D01*
X014473Y029738D02*
X014833Y029738D01*
X014833Y029640D02*
X014473Y029640D01*
X014473Y029541D02*
X014480Y029541D01*
X014653Y029283D02*
X014853Y029283D01*
X015053Y029483D01*
X013067Y031808D02*
X012353Y031808D01*
X012353Y031906D02*
X013166Y031906D01*
X027953Y024483D02*
X029253Y024483D01*
X029453Y024283D01*
X029453Y024083D01*
X029553Y023983D01*
X033653Y021783D02*
X034053Y021383D01*
X034653Y021383D01*
X029153Y016183D02*
X028953Y015983D01*
X028953Y014683D01*
X028453Y014183D01*
X030653Y028883D02*
X030453Y029083D01*
X030453Y029383D01*
X030953Y029383D02*
X030953Y029583D01*
X030653Y028883D02*
X031653Y028883D01*
X032153Y029383D01*
X032453Y029383D01*
D20*
X033353Y028283D02*
X033053Y027983D01*
X030253Y027983D01*
X030053Y028183D01*
X030053Y028483D01*
X029753Y028783D01*
X023753Y028783D01*
X022653Y027683D01*
X021953Y027683D01*
X021953Y028183D01*
X021953Y027683D02*
X021953Y024583D01*
X021953Y019083D01*
X021953Y015683D01*
X021953Y014883D01*
X022653Y014183D01*
X024453Y014183D01*
X022953Y019083D02*
X021953Y019083D01*
X022953Y019083D02*
X023453Y019583D01*
X023553Y019683D01*
X029253Y019683D01*
X031153Y019683D01*
X031253Y019783D01*
X033353Y028283D02*
X037153Y028283D01*
X037453Y028583D01*
X037453Y032183D01*
X019953Y032183D02*
X018853Y032183D01*
D21*
X013053Y031483D02*
X013053Y022883D01*
X012753Y022583D01*
X013453Y023283D01*
X015153Y023283D01*
X017053Y022283D02*
X017553Y021783D01*
X017553Y019183D01*
X018053Y018683D01*
X018053Y015383D01*
X018253Y015183D01*
X019953Y015183D01*
D22*
X012753Y018983D02*
X012753Y019383D01*
X012753Y019783D01*
X012753Y022583D01*
X012753Y021783D01*
M02*
