%
M48
M72
T01C0.0150
T02C0.0320
T03C0.0354
T04C0.0360
T05C0.0400
%
T01
X16253Y14883
X16803Y14883
X17053Y16083
X16753Y16383
X18753Y17083
X18753Y17583
X18753Y18083
X18753Y18583
X18153Y20183
X18753Y21483
X18753Y21983
X18753Y22483
X18753Y22983
X18753Y23483
X17453Y23983
X16953Y23783
X17953Y24883
X17453Y26483
X17053Y26483
X18053Y26683
X18953Y26583
X19253Y27083
X19953Y27283
X19953Y28183
X17953Y28333
X17453Y28833
X16953Y28333
X16953Y29333
X17953Y29333
X18053Y31183
X17653Y31183
X17553Y31683
X16953Y31583
X16353Y31833
X15053Y31383
X15353Y30683
X14053Y31483
X13653Y31483
X13053Y31483
X13653Y30483
X12553Y29983
X13653Y28683
X14553Y28083
X14753Y28483
X14653Y29283
X15053Y27283
X14953Y26383
X15853Y24983
X14953Y23983
X15153Y23283
X15153Y22783
X15153Y22283
X17053Y22283
X14353Y19883
X13753Y19883
X12753Y19783
X12753Y19383
X12753Y18983
X13553Y17883
X14053Y17883
X12753Y21783
X12753Y22183
X12753Y22583
X20053Y25483
X21953Y24583
X23253Y25433
X24453Y26583
X24953Y26583
X25453Y26583
X25953Y27183
X27453Y26583
X28253Y26683
X28853Y26583
X28853Y27183
X29803Y26783
X31053Y26183
X30453Y25683
X31853Y25883
X33253Y25383
X34153Y25183
X34153Y24683
X33453Y23783
X33153Y23483
X34553Y23583
X35353Y23183
X35253Y22383
X36353Y22183
X36353Y23183
X36353Y24283
X36353Y26083
X36753Y27183
X35553Y27183
X34453Y26883
X33853Y27183
X33453Y27683
X32453Y26983
X31953Y28683
X31453Y29383
X30953Y29383
X30453Y29383
X29953Y29383
X29453Y29383
X28953Y29383
X29553Y28183
X30053Y28183
X27653Y27583
X26753Y29383
X26753Y29883
X26753Y30383
X23853Y29483
X23853Y27983
X21953Y28183
X23453Y31683
X26453Y24883
X25953Y23983
X25953Y22383
X25353Y20283
X26153Y18983
X25853Y17883
X26953Y16883
X27953Y16483
X28553Y16083
X29053Y17383
X29053Y18383
X29253Y19683
X31253Y19783
X31753Y19783
X32953Y19483
X33453Y19483
X33853Y19683
X35153Y19183
X36053Y18783
X36953Y17383
X35753Y17083
X34553Y16383
X34553Y15783
X33753Y16383
X32953Y16083
X32653Y16383
X33353Y15883
X31953Y15683
X31053Y16683
X30753Y16883
X31353Y16883
X31253Y17683
X31253Y18183
X32453Y17383
X33153Y17383
X34253Y17483
X34253Y18483
X33153Y20783
X32753Y20783
X32253Y21183
X31653Y21183
X31753Y21783
X30853Y23083
X30853Y23783
X30853Y24183
X29553Y23983
X27953Y24483
X28253Y25083
X28753Y21183
X27353Y20283
X27453Y18983
X27453Y17883
X23453Y19583
X22453Y20083
X22753Y18283
X22553Y17083
X22553Y16583
X21953Y15683
X23453Y14683
X22553Y22083
X22553Y22583
X23053Y23183
X32453Y29383
X33653Y29183
X35153Y29083
X34653Y21383
X35453Y20983
X35753Y21283
X36353Y21283
X36953Y20683
X35753Y16283
X36453Y15783
X36253Y15283
X36953Y15083
X36953Y15483
X36953Y14283
X36953Y13883
X36253Y14083
X14853Y32483
T02
X24453Y24133
X24453Y22233
T03
X13953Y15017
X13953Y16749
T04
X19953Y15183
X20953Y15183
X20953Y14183
X19953Y14183
X19953Y32183
X20953Y32183
T05
X24453Y32183
X24453Y31183
X25453Y31183
X25453Y32183
X26453Y32183
X26453Y31183
X27453Y31183
X27453Y32183
X28453Y32183
X28453Y31183
X29453Y31183
X29453Y32183
X30453Y32183
X30453Y31183
X31453Y31183
X31453Y32183
X32453Y32183
X32453Y31183
X33453Y31183
X33453Y32183
X35453Y32183
X36453Y32183
X37453Y32183
X33453Y15183
X32453Y15183
X31453Y15183
X30453Y15183
X29453Y15183
X28453Y15183
X27453Y15183
X26453Y15183
X25453Y15183
X24453Y15183
X24453Y14183
X25453Y14183
X26453Y14183
X27453Y14183
X28453Y14183
X29453Y14183
X30453Y14183
X31453Y14183
X32453Y14183
X33453Y14183
M30
